<mxfile host="app.diagrams.net" modified="2024-06-16T21:42:47.857Z" agent="Mozilla/5.0 (Windows NT 10.0; Win64; x64) AppleWebKit/537.36 (KHTML, like Gecko) Chrome/125.0.0.0 Safari/537.36" etag="YMwDWvtCFIKyPGJoUyx7" version="24.5.4" type="github">
  <diagram name="Page-1" id="Jg_0lyOW9nFWxT3cgDCS">
    <mxGraphModel dx="2625" dy="1305" grid="1" gridSize="10" guides="1" tooltips="1" connect="1" arrows="1" fold="1" page="1" pageScale="1" pageWidth="827" pageHeight="1169" math="0" shadow="0">
      <root>
        <mxCell id="0" />
        <mxCell id="1" parent="0" />
        <mxCell id="dEBICoWJEvzxDYuwYGRK-1" value="" style="shape=image;verticalLabelPosition=bottom;labelBackgroundColor=default;verticalAlign=top;aspect=fixed;imageAspect=0;image=data:image/png,iVBORw0KGgoAAAANSUhEUgAAAxMAAAG9CAYAAABu0yvnAAAAAXNSR0IArs4c6QAAAARnQU1BAACxjwv8YQUAAAAJcEhZcwAADsMAAA7DAcdvqGQAAIOOSURBVHhe7d0PXFR1vj/+V+UudG0vVF4Gtxbxln8qR2j9RxuGhakrJoZtGm4ZWJuwbQK7G0P9doH2kWC7Cbo3BrcNsl1JSxANDE1UEjcI3PhjG0quSFs6XK2Z79XbcNft/D5n5jNwZhgQDmimr+fjcXTOmcOcz/l8zp/P+5zP55wrFAFEREREREQDdKX8n4iIiIiIaEAYTBARERERkS4MJoiIiIiISBcGE0REREREpAuDCSIiIiIi0oXBBBERERER6cJggoiIiIiIdGEwQUREREREujCYICIiIiIiXRhMEBERERGRLkMaTNg+rkThW61yjOgy0VIO85Z6dJyV40RERESXiaEJJs62o/zZeRgXnoZdNjmN6HLh04nmNfGYOH0ZCg92yolEREREl74hCCbaUZI8D8sawrH5b+9jw4/HyOkuNtTnpWDeHYEIDAzE1KgUmPd3yO8GrvPjEmQ+Mh0TxW8FTpyOJc+VoNVLAGOrNSMlaqpjmYF3zENKXrWXK8f9TNuZVpQ8twTTJ6rzTcT0RzJR0tJzoec7bbm72+V3Gt7S9rH3Cm379jTMU5cZuAwlx+XEHmxoXrfEuQ6BuaiXU931M21d2lEUG4iJpkrxlz31N99cOqsyxbzzYD4oJ3TpQMnjzjR5Dsu2aMr1QK7XeZxDb+vch9ExyNu7D/t+6oOc2EQUHZXTiYiIiC51yiBZd5gUozFBKW6XE9zYlaY1UYrBGKvklNcpTc11StlL8coUg1Ex7bDKeQagOU+JEn+78NcblF3NTUpTdZmS87BRMczNUZrsch7BkSbDFCX+pTKlTsxXV7lBMc01KMYnyxSLnEfMpexKFX8bFq/kybTtet3k+P2Ebd1zKUqTkqf+bUyGsqFSLLN5n1K2Jlb8fpSS06BZ6JCmza7syxR/q8m3/qVtl7LhGTW/E5Syz+Qsqn8eU8oc0xcqGc/EKwZDvFKs/d7FKn5PTbPIk4zUhWK+HKVOftWtv2nrduwNuUxv28hnZUqC0aBEPSPzTeRHRoyab3li7bw4XadkRRqUmavqREo8WZTixwyK4flditVqdR+0M9fnONKz4SP3eZoKYxVDZC/L7ReZNw9tUI7JKURERESXskEGE8eUDQ+Jit1LvVS/rLsUk8GgmCq1NTm7UvfiTMXwWLGm8twfakVNVBRXlIkwQOP0PiVDVEa7gxORpge9pOnvG5RYw0wlr7l7fKF2XDr2J/cKpX1vhqh4Jitlp+QEB1lpTBWV1q7xIUybzLf4Em0OyWVo801Uio090iYCArWynd+9DEtJvCPgKFMr87Ii7S2YqHvRoEx5rEBpEslV/8ZrMNHftLm4ggVNerSa8sW28GCBcliOO3xWrMSL4CSnXo53cQWnJmWX2zq7yGDixZ4hkBuveXCObbm/etmuiIiIiC5Fg2vmZGtF824g/LaxcoKH/7WhA1GYcouPnKDyQdDoIOCtdvTVMKYn8VufAFF3GuEnpzgMHwvjNKDwoKvjdwc6qoDISUY5Lo0eiyloRn2rbO7yeQeqEYkpE5yjLkG3TAEO1qNVNgOyfS5SOTccxuuc404+GGsU873aDOdShzhtvj7wFf8FDHfPN191ovjOpfO7kcgrTkC4W9oMMIwGms9omjr9ZwLKNqUj6ntyvBd+EWV45+U4GN1WwkM/0+ZkQ+WaNJQgAaYfe6yz1HmmGZhmhFvjuJFBMIq8am73aHJ2sABpK+sR+XQCIt3WeYAmJeHEiVcQM1KOqw6Wo3B3JOJ+6D2d/SbKMlxblkRERESXsMEFE45gQVRCr/GsRJ4fPqLCWv5RO9x7BFhgOQoYuyq34v8AiMqcR6jyucURvHRVgoeps9XjsEf7dpvFMRf8/s05jmFi/u3NaPfohmA5Luab4KMuzWFI0+YzBTHPTEbhGjMqj6u/2AnbwSIU/DkAcfeFqz/h4DPSiPA7x7gHMJ2HcbhWBCzfdc0lfjdkMoLE+p7LmEmT3X/Lm36mTdVZlYvkV4GY50XAM1xO1K0dRSszUT/JBNOPRDDah4DTdSh8XPZJCZyKZXn1XvtqdOtE9TYzmhfHIkoEYoMThKD7xHZ0xi7HiYiIiC5dQ/po2L501mZj6sQ0VPZdq+tDAIx3RgJ52cjY3opOtcPymXZUrkxD5kEgfLzr7shYTF4cgOoX0mA+YHNU7js/b0ZRehqKEA7jGFldHj8ZsQHVyE43o/7z7kpxmqkIiDDCNVvAhHBEwozs58rRekZMONuJ9t3ZSHuuGbjLKJbmmGto0yaCDmNiATZH1GPJ7aNEhXgUxs00A88UI2NW39X99jfNyEUc4mf1XeHWr79pa0bBC2Z0RERhbH0ypqoV+zuWIG1js2O9e2pHSfxEzHvF+6OFbTtFGewOQGwEYJ49USx3IqYn5KL6EzmD1uZKWO7fgKZD76MsNxKW5+YhRdsB25OtGuVrOxA7K/zcwVQ/VXfwzgQRERFd+i5YMDEUghZnYcMTviiPn45RN4rK6cw0FNTWi7p8EiLDuq/+h6/YgKxprciMGodRohI75eFslHwgKnf3xCDcdeXZJxzJRVmY0pqJebeqleIpWLKyBM1itsj7w9FVFR8di6zXEuD71jJMv0ks88bpSPtjNepFAJEUOaXrzsSQpk1Ut+vXxuOBqjFYXf4+DolK8TvmKHSsXIjkt3qvpNpqc5H4i2bE/c40uGZAfepn2g5UioBJrL6PAZMfy8M7asV+RRCak5b0uQ7edaDyzULxbxB8xkQiY+s+NFXnYOGZAjywPBfNXdGJH8Kf3Iy8N16Bae4YBPgFieAtA6ZEoHx3neMumje2/eUoFOUUEzlUoQQRERHRZUL2ndDH0VHW4KWjrOT4vmdn31479/bXafkEnvqcPp8iZHc8pceuHNuW0PPpS13szt86fUwpe1J9ipD705e6/FPOd6pOyenx9CWNoUibZ4ds6XDhwl6fNmR3Le+NczxHqI8O2Fq9llE/0+b8e5Oy67ScIDW9pHa47n7akdrpu2eHaZHHbp28neMLC926aSvKqTIlWUzP2OutwLo5ltFrh/8h6njdxdkJXNsBnoiIiOhSNbg7E1d19xm4oIb7wc/PhvIXs1F/XwZM92lb6nfz8RPzDatD4bMlMKRkICHEW2p9xG/5wbe+EGlvGpD06wQYvc02zDmfbXsOsg9EIePpKLf+AV2GIm2fd6ASQTBcL8elMWMmAweb4dkvufOgGfFxBfDL3ICcc/QnGLSBpG3uFIzx6CthGCnSV9XR612Cvky+xeMdJtcZHHeQ2j/X3XZOdrw2IuauQXa87uLsJxMUYJDjRERERJeuwQUTAUEwTgCqP/LoUOzyb36iwl2Ouo+0reQ70X5UzH9fUHdToi6iovrcMjywKA3l3trCa3RsyUTK7kisfibGy++4dKJ+XSbMSED6Tyf3Hvh01sP8GzOQmI7kaX2ER8dLkPmLSkT+Lh0xfTwZadBp8/GBEXU4/Hf33gXNjZUiz8eKiqqcoPqkBMmxZnQ+VoCCJ4znP7jrZ9r8AsYgYHs1mj93jjt14nBznVvZ+wwXlfha11OxpOPtaFb7oXStaAAC7gEqDzTLcenoYZESzXxnRTkuegC5te7bm+2U+O96Py95Izte3xOHKI+neun2eTtaD4pg4jo2mSIiIqLLgLxDoZuj2UpkjlLntaXJAF9aJ5tNGcQQ+3ofzXVO7VJMfby7oIt8kdy5XpDXlN/Xuwtc5EvuenuZmsuQpM3ibHLV44V6Hr+rvvNBLCv817uUY45mU9qhu0DsnzUp+6r3OYfCZJG/C5WsbXK8wSJKycnaKqeJoWyV+tK6ZKXA9XetrnT2M23KMaVYzOf1ZX/1mo2lny+tczbj8vayv+KuJlNd25smba7tzWtTKPs+JUssO7m87+1DsYg0qttlP15G53hPiTFL2ed1fyAiIiK6tAw6mHC9mC3q+X3uL2zrYlXqXkpWosKcQcKUuclKXrX31uuuCqj6puY8r/0bVHalbpUIYHrr29BF/NZjffRtcGl3viCtt74NLvaaLGVmr/0uXIYwbacPK2UvduebMSJWySg53FXxd9AEXz0GTR8BZ/8FL/Oog2Y+R98Cb/Oog7ZfQ3/SpnKbz6iEP2xSCmp6biX21mIl4+FwEWiI+YzhSmxmsXLYy8ZkrSlQTK75wqKU5BfLlMMefTK8bm9elqmylquBledL/3pyvrjw3EGHtabvfjJEREREl5or1H/kTQrdOj8uQnJMCqrHxCIhxYSEO733EyD6JqpfPRHzXo3F5joTwr21I/u8HoUrs5Hz58MY+0wBNjzVR5M6IiIiokvIkDwa1ufmWOTt24esO+0oOtBL/wmib6Rm1G3vgHF5lPdAQnW0GgVnwpG1dx82M5AgIiKiy8iQ3JkgumQdL8Gy24sR+d4GxA767dhERERElxYGE0REREREpMs36g3YRERERER08WAwQUREREREujCYICIiIiIiXRhMEBERERGRLgwmiIiIiIhIlyENJmwfV6LwrVY5dvFrfcuMkgMdcoyIiIiIiAZiaIKJs+0of3YexoWnYZdNTvsG8LE3IyduIqY+XojmM3IiERERERH1yxAEE+0oSZ6HZQ3h2Py397Hhx2PkdBcb6vNSMO+OQAQGBmJqVArMtfojjs6PS5D5yHRMFL8VOHE6ljxXgladPxf0ozzs27cPSb45WPKzIrEmRERERETUX4MOJmw7zcioCkdevgnh18mJXWyoNE3HvD/ZEPWrMryzqwzpsy0wRy9BbmOnnGcAjpcjOSYRdd9LQM6ud/BObgLGNmZgeqwZzXKWAfMbg9jsPCysT0HaRoYTRERERET9Ncg3YLejKHYqCsNFxT7RKKdpHC/BstvNmCwq/gkT5DQRYJQnjcMy3w04lB0JPzm1P5rX3Yt7d8di36Y4dN3/cCwjA8byJiRNktN0aP/zA5j6aqQIeBLgZU2IiIiIiMjD4O5M2FrRvBsIv22snODBx4i44tVY6NbyyQ+GIPHfKRsGem+i80wzMM3YHUioRgaJyn8HmtsH15E66JZw4GA9Wo/LCURERERE1KfBBRP/axPVeBEeXOPjHPd03RiE32lEgNvX7ThcDwSMDhjQXYnz7rtBiIINdrscJyIiIiKiPg3N05wGoLOqENm7JyNhfjh6CUH6oR0l8RMx75WhfgxtNTo+lx+JiIiIiKhPFzaY+KQEyT8zIygzS9OHgoiIiIiIvokuXDAhAonEqES0P1qGDU8MtotzEGIKmlC2zPMxtINlhI/+2yVERERERJeVwQUTV/n0r6nSJ5VIWy4Cifs2IC9l8sXVV8LllAXtIkgxXC/HiYiIiIioT4MLJgKCYJwAVH/Ux/sZztQjd/kSVI55BXnPR4rqel86UPncMjywKA3ln8hJGj7DjUBtM9x6ShxvRzMCYAwKkBP0sbW3it8JQkCPd2UQEREREZE3g2zmZER4jBHVr5ag3utzXltR+OA8ZF+fhVd+HQ4/mw22rsHLHxyvRlFeOaqrClG0v2eAYpyfhJiP0pD8bBEqDzajeXcRMp/MQPmkBER6e8dEY67jTdkTn6s+x2No21H+5yIEPBWJKWzmRERERETUL4PuM2Fcmo6EjmxkvFgNm5zWTQQNB8R/O9Nw763jMG6cdjCj3jlTt5GTEfWjACAgHOG3GOREjZFRyCnJw5RPzEieeS/uTTLjcEgG9hV5f9Fce3M1OsQ3CTF9PTnKhvrViUg5GIOsuME8YYqIiIiI6PIyyDdgO3V+XITkmBRUj4lFQooJCXcOrsnR0OhAyeMTkXhmNd4vivXavMp2oBCZK3NQ1DoWpsINSJrEUIKIiIiIqL+G5GlOPjfHIm/fPmTdaUfRgT76T1xItmbUvQXE/jiq134arfsLYL8zC/v2bWYgQUREREQ0QENyZ+KidCAXE+PsyKszIZxxAhERERHRkLt0gwkiIiIiIjqvhqSZExERERERXX4YTBARERERkS4MJoiIiIiISBcGE0REREREpMuQBhO2jytR+FarHCO6TLSUw7ylHh1n5TgRERHRZWJogomz7Sh/dh7GhadhV8/XYBNd2nw60bwmHhOnL0PhwU45kYiIiOjSNwTBRDtKkudhWUM4Nv/tfWz48Rg53cWG+rwUzLsjEIGBgZgalQLz/g753cB1flyCzEemY6L4rcCJ07HkuRK0eglgbLVmpERNdSwz8I55SMmr9nLluJ9pO9OKkueWYPpEdb6JmP5IJkpaei50yNJ2vATL1O+8DstQclzOp+pn2lTt29Mwz9tvaAxp2rq0oyg2EBNNlSLH3dWv9vY7clhdL+dS32bu5Xs5LNvibXvqRPVzExEYZUaznNLDJ+VIi+rrN/ppdAzy9u7Dvp/6ICc2EUVH5XQiIiKiS9yggwnbTjMyqsKRl29C+HVyYpdONK9dgnn5Fsz8VRne2VWG9CgbChfORNpO7xXePh00Y2F4BppHJyBn1zt4x2zClI8zMD02F82aC8K2nWmYHl0IW1Q6ysR8Zc/Hwqf8AcxMLhfVUhcbKk3TMe9PNkTJtGU97INykbbEt7QVy2aYH5yOjMaxSMgVy9yVB9Pkw8iYsQS5jZqFDmnanJKKDuHQIc3wWoKYGgC/f3N+r1ayy00LkVgbJNOWg4TRzY60mQ/KWVTyztFUUyumLIuSE3sa2rR1a38zEym7o5Dx00j4yWlu5q7GPu1vHXoHWbMA43CPtw0+tUEzjxj+tgGOpXrOJ3TW5iAzz4CkX8fDKKdpOQKrKWlonRyH3nNkIPww5sc5yHugDinPFonwiYiIiOgyoL60Tr9jyoaHDMrMl5rkuAfrLsVkMCimSrucoLIrdS/OVAyPFSsWOaV/7Mq+TINiWFGmWOUUh9P7lAyjWMYO11SRpge9pOnvG5RYw0wlr7l7fKF2XDr2p1jFEJmnuP7avjdDMRiSlbJTcoKDmhajYkjdJdMyxGn7rFiJF/mWUy/HHcQynhfL1C6jOU+ZaVioFLTKcQeLUvyYQTG+WCfHxZSSeMUYk6GUtYuR+hyxPvFK8WfO77oNcdpcPitTEkQeROV730bqXhT55rkteC5TrpNBs04qe3WWYuxRNoK9ScmZK/Kgq3w8qOtgXKhklB8TI3VKjlif+JKBbY296mW7IiIiIroUDe7OhK0VzbuB8NvGygke/teGDkRhyi3aK8c+CBodBLzVPsCrt+K3PgGi7jS6X90ePhbGaUDhQVfH7w50VAGRkzyuR48eiyloRn2rvMb+eQeqEYkpE5yjLkG3TAEO1qNVNtexfS5SOTccRre7Lj4YaxTzvdoM51KHOG0jY/DKiRNImuQcdfh8F0rWAkk/mtm9jM5O8VcibTfLcYcAsQ5iSR+1d99N+M8ElG1KR9T35LhXQ5w2Bxsq16ShBAkw/djb/QFgcsoJnHg5RqS6W/Pbhai8Jw5RXWUTgJiXxXwpk+W4yoZdb+YCT8VgpscdseZX05B9IBKmJ3q5E3LVGCSUb0b6XLEdDjWRX+Ha/CIiIiK6hA0umHAEC4DfNT2bmZwPPr5Auagku3dxtcByVNskRvwvaqb1rR6hyucWR/DS1SRmmDpbPQ57tG+3WRxzdTfXGSbm396Mdo9+tZbjYr4JPurSHIY0bV607yxC0YQEEbD0Pk9vAkImI0isb9+GPm2dVblIfhWIeT4B4cPlxHPprEZ5fjNifxyFPqv6R8tRtNGIhPnhXWXgcLQI2en1mPyMCQtHy2meAoyY3GdgNRhBCLpPbEdn7HKciIiI6NI1NE9z6ofO2mxMnZiGSh1dJZwCYLwzEsjLRsb2VnSqnYLPtKNyZRoyDwLh4113R8Zi8uIAVL+QBvMBm6Ny3/l5M4rS01CkXsUfI69Vj5+M2IBqUfE0o/5zx1ywHSxCmqkIiDDCNVvAhHBEwozs58rRekZMONuJ9t3ZSHuuGbjLKJbmmGto09ZDM8r/WAljjJhHTvHU/uYyTIwqlHdK9BjqtDWj4AUzOiKiMLY+GVPVztJ3LEHaxmaPgMudraocuR2xiAzrbXlOzTsLUTkhBuFud5ZsqFyXjcqAWISfNWOm2il94nQkrq6+4H0Yqjt4Z4KIiIgufRcsmBgKQYuzsOEJX5THT8eoG0VFcWYaCmrrRV0+SVQ+XdenfRC+YgOyprUiM2ocRolK7JSHs1Hygajc3SMqn66r1T7hSC7KwpTWTMy7dRQCA6dgycoSNIvZIu8P774qPjoWWa8lwPetZZh+k1jmjdOR9sdq1IsAIilyStdV8SFNm6eD1Sg5GIm4H/YWSgyFIU7bgUoRlIjV9zFg8mN5eOfQ+yhbEYTmpCVIduvgrmVD9fZCBHhpuuSuGdVvNiPysSj3AOZ4JYpeFb/9PR+MnZWBsn1N2Je7ELZXH0Di2r6DGCIiIiLSQfad0MdrZ1wNx/c9O/uqHYINhhzFvTvtAJy2KlarGOpzlCiDUUnY5r3zrF2dx2pXjm1LUIyGKCWnQdsR3MXu/K3Tx5SyJ42KYW6O0uRttn/K+U7VOTv3PlnmvQP5kKZN1UfnZkdn6p756LVTs0uvHbC7DUXanGVsUnadlhOkppdmKoYHNyhq1+ceenS89q7XjteOdfPskK4o1vJkMT1D2ed1NYa4A7bsLD6zlw7nRERERJeSwd2ZuKq7z8AFNdwPfn42lL+Yjfr7MmC6T9t9t5uPn5hvWB0Kny2BISUDCSHeUusjfssPvvWFSHtTfZRoAozeZhvmnM+2PQfZB6KQ8XSU2sWgpyFNm+Do3NyB2Fnh3jsTnwdDlra5UzDGo6+EYWQQUNXR3Tlcw9HxukfTJU/OjtcdiyO9PIpYNdmjQzrgZ1DvM7Wj43Pn+Pnl7CcTFGCQ40RERESXrsEFEwFBMIqKX/VHvbRI/zc/UeEuR91H2gYmnWg/Kua/L8hLB9sOVD63DA8sSkP5J3JSLzq2qO8uiMTqZ2L66Kjbifp1mTAjAek/ndx74NNZD/NvzEBiOpKn9TqX44Vtmb+oROTv0hHTRwfeoUybo3NzQBJiIr1U1318YEQ1mj+W4w4daP9IFM0tQd6DnX4ZfNr8AsYgYLtIm1sFvhOHm+u8l73seN2j6ZInR8frAC9PjhKuC0AkKlGnfceG0P6RWGaAEUEj5YTz6fN2tIrlB113oUI/IiIioq+RvEOhm6PZSmSOUue1CYldaVoTpRiMsUpOeZ3S1FynlL0Ur0wxGDXvXtCQzaYMYoh93WtDGKdTuxRTH+8u6NKc52hq5HVZGk35ahpNyi7PZjNurMquVLUZVPc7KLwa0rSd4z0eikU2zTIpGyqbRP7uUjb8eqGjaZK2qZD9syZlX/U+51CoNvlZqGRtk+MNFlFKHoYkbceUYpE29f0WzrTtU8rWxDqbTdX33Fh6bbrk4djr7u8Bcae+w0SUZVi8kie3t12vm5zNzUo025PdojS58qO6QEkW29vCVWVyvEmxeCbPUqYkqNvlQ700z9JwvKfEmNVLkyoiIiKiS8uggwnXi9mint/n/QVhYmrdS8lKVJgzSJgyN1nJq+6tfbqzAmowLlTy+minX7dKBDC99W3oIn5LfXlbb30bXNrVAKb3vg0u9posZWaf/QdUQ5w2x0vpztGH4PRhpTgzVgkXZWAQ6xH+cIZS/JF7STj7Lzjzv8fQo2/F0Kat7EVX2atpMykFNd62EqtStkLM461fiJsmJS+yrwBGJba3P5qU2AixHYn1U7e3nPLD7gGTJmjtOfTsT+J8caFBSS7vO3XWmr77yRARERFdaq5Q/5E3KXTr/LgIyTEpqB4Ti4QUExLu1N/AhuhiU796Iua9GovNdSaEe2vz9Xk9CldmI+fPhzH2mQJseKqPJnVEREREl5AheTSsz82xyNu3D1l32lF04EI/0Z/ofGpG3fYOGJdHeQ8kVEerUXAmHFl792EzAwkiIiK6jAzJnQmiS9bxEiy7vRiR721AbG/v2iAiIiK6TDGYICIiIiIiXb5Rb8AmIiIiIqKLB4MJIiIiIiLShcEEERERERHpwmCCiIiIiIh0YTBBRERERES6MJggIiIiIiJdGEwQEREREZEuDCaIiIiIiEgXBhNERERERKQLgwkiIiIiItKFwQQREREREenCYIKIiIiIiHRhMEFERERERLowmCAiIiIiIl0YTBARERERkS4MJoiIiIiISBcGE0REREREpAuDCSIiIiIi0oXBBBERERER6cJggoiIiIiIdGEwQUREREREujCYICIiIiIiXRhMEBERERGRLgwmiIiIiIhIFwYTRERERESkC4MJIiIiIiLShcEEERERERHpwmCCiIiIiIh0YTBBRERERES6MJggIiIiIiJdGEwQEREREZEuDCaIiIiIiEgXBhNERERERKQLgwkiIiIiItKFwQQREREREenCYIKIiIiIiHRhMEFERERERLowmCAiIiIiIl0YTBARERERkS4MJoiIiIiISBcGE0REREREpAuDCSIiIiIi0oXBBBERERER6cJggoiIiIiIdGEwQUREREREujCYICIiIiIiXRhMEBERERGRLgwmiIiIiIhIFwYTRERERESkC4MJIiIiIiLS5Yr9+/cr8jMREREREVG/XaEI8jMREREREVG/XdHZ2clggoiIiIiIBox9JoiIiIiISBcGE0REREREpAuDCSIiIiIi0oXBBBERERER6cJggoiIiIiIdGEwQUREREREujCYICIiIiIiXRhMEBERERGRLgwmiIiIiIhIFwYTRERERESkC4MJIiIiIiLShcEEERERERHpwmCCiIiIiIh0YTBBRERERES6MJggIiIiIiJdGEwQEREREZEuDCaIiIiIiEgXBhNERERERKQLgwkiIiIiItKFwQQREREREenCYIKIiIiIiHRhMEFERERERLowmCAiIiIiIl0YTBARERERkS4MJoiIiIiISBcGE0REREREpAuDCSIiIiIi0oXBBBERERER6cJggoiIiIiIdGEwQUREREREujCYICIiIiIiXRhMEBERERGRLgwmtM5a0bIjH6UfynEiIiK6PNktqNlUiL0WOU50oVn2In99Bdqscrw3H5Yid1MNLGfl+AV20QUT9mMHULr1ANpOywkXyrFSJN1jQEjy2/hCTjqvvjqFlveqUPreIVi/ktOIiKgH+z8aUbq3CjX/OCOnXCCf1iI7/7cIysqCT1YRauRkNBSJcTFt1W+xfPMBHsMvQdYDuYgeG4QHV7XA7iMnXnKsaNlaitIPz1VTpa+N2PasxSswbuIcpJa3yYle+NrxwaoHETRxEfIb7XLihXORBRMWlKbtxKIHd2JF8TE5TS8rata/gdzyfvzOsY1YOn0RPojYAcvftiLuNjldqtmonkiysOgd9fJEI7J7O7H0Omjmdfn7fjyx9y9YtLcE+X+T0y4Kx1CxWeTb5r+gj8323Fx5srFRTrh4WN4xX/i0ufIjb6fYyr9eru05u0FOoH65MPkmjltvq/vfdtTY5KTL3hns3bUdi977CyLKai/g/nME+W/sRvoXZ3H1t31x99XXwFd+g29fI8Z9MR5nUdi6E0t3DPZ8NbTOec7SpQ0VadEY5+MDHzks2vQNumRvrUHh6lxUHJHjfbDXZiP6B6vhn96Iw39dhTn+8ovefLoRi0R+ZNfK8a9ZW3kuctfXiKPJOdTmI+TBRVj0/SzsvfD1T69qVoptK3aj+34uysPHJ1tuvzVI1+S1vTJVfDcHhbJcLZsWwSe+VMdx4gq0bf0WIny+LX7v29j4qZzs5gpY938Ly+9yzuNz67exfPUwL3cDrkLN6m8jQnyvzjdOzJ9bdZX8TuP0VdiY9m2EBDnnC4n5FjZ+6FEt958B07ZDaH95GmpiZiO9qpeCumkx1v+1CY0/98XK+5Z25ceFcpEFEwYszonBjp1zsWbhKDlNr0607TiC1MZz7U5WVLz4NPbMXI/1v5mBcx0zvJInFsfgO0yshXDlsO5p2pOQy83zsePJBFieTIZpgpx2UbCioVXkW2sbTsgpRHShiOPWUXX/O4a2/5WTLnvDMSf2KVgSE2CLv8d5fL0Qjh/BHsd5exTWJyejImk+Qh1fCLfOF+PJqI24wTFaYbv0r+xaitMRvcEfye8egsVicQzroi9YaQzeGTUYSkXDSTneqwbk/zIdSH8D65aN73nu/gY40ZiK1B1t4mhyDtOW49C7O7Djr2mY8Y1ZUV9cGwJ89A9nuGA72YYF0X6wyHI9eqRU1K8CB3acOHsVSlO+hXE/uwJhP5XTvLAfGIboe67A8Xlfoer9f6EqS8EXf7wSU1KGaQK3K9HwwlWIyAV+mPUVat//CqsWAOZZVyGpXFvlFst86ios3a8g6eV/OeZLuukKPP39YchtvELO080wOxPr88Yj++G+Aj9/jF+2Dq8teQ/LkwsHd0F4gC66Zk4wjMOMiBAEXyPHz7cjW2BeNxIpKxYjWE7yJOKDvskTi2NYHII71GnfCcF61zTtSUjD9zv+8P/ON/FQRUR0AX17OPz9/OH7bTl+IYw04Hb5sbczpe85Tw5fj/ORrKOHNgLhP8T904Lh7y/OXepwCZ6+7FVbsLo2Dsk/CftGBhID44/gaTMw4zZdl1G/JiMReLMoJ/uXjrGjR9ow8kZfGVzYYf8fYMGoQMd3Wo47Fl13N9xZiq/CUx8q2LTvn1i1SJFTPV2JveuvQM1Pv8Kmp88iLORfCIv+J9YXKhi57kpUuO5kWK/Eq78CEl4+C1P0WYSGnMWClLNYL+JT84Yru++YNF6JrA3AGjFf3Ox/OeaL++2/8MJCYHW5l7sYQvCSZCRZslFa2dfFC1/MeCwTd6v9fy9g4wvdwUTNyiz4xO5EQ2URor8vPvtkIeSRbWjw6OvgmG/lAbSVv4boW53zRaftRIvbfI3IFtPV71yDt9uFlk1m8V0RKhq3YalrmTGvoUJ7h7m2SP5GAZYWi/HM7XLc++9aWxpRgRkIHScneDFSnMRUt/+HGuuKo7Saa1cO03Wg6Wpi0zWYsfG4/FJy3qIuwsa9L2OcmGf5nk/RJj+H/HE32rTtc22HsPFPaxGyyvl7IWsLkP/XU/LL/utO13aIbV44hgjHuHNw3i6XzhxB6caXESGXGfTbnP61Gz6+G0vVv1kl1llzC9F6eCdS18p2yat+i+iCbaj5b/mlg+Y2/adVYl7ncsetfQ2lx/T3NjIMs6Nhq9mZd2K5S7XrcKoKyx3pec39KsCx7YhWp79Yggad7aSPviv2BZl30X+qQtv/yS9c/vsA8gu6y3Tci2uR+s4RcZjs5iqvRTs+xN6Nax3bRo91UH31KSpc24favvvtI+63vm1VSBJ/O23LIceo83dzUHhUHbOi4o/i7/5rZ/cVjqFMG87CUv8Glr/o/C1H+jZWoUVvs3iPfWHciy8je6972lRu25sYIv7whsf2Jpwr31z+z4K9m7v3hd6WeU5dTSXFccvRvMmKpa86f9MxuDXJ65lv0X8Sx1Q9+XZ8Jxapv5EnjuU14lgu1yMkX5snFmzMc07XNvHqKueuY8NQ76eu39MM3pomfmVFw9sFiP5t93xqOeTqOA4OlOW/nW3R7v7OICpjsuyz3xHHHJH/4/4gjvEi/9TPQb99GaXa5hbH/oLsP/zWuU+pQy9lP2TnLNl8R23SFJEpxouXIkiO92zmZEXN6uWIuNX53bi7liN3v+deI7alWPXvWtCQtxQhQWLeoBAsXa1tklMj6gM+yN5UiuXit4JiCtFyTH6endpdaZOs+/ORFBPiTJf4rei0jW71C0ezGfW7/1yKUjGefpccdww9K5ctjRWwRE5D6Ag5wQvr/lxRBwkSfx8k6j35Peo9qt6b6yxyO/855ltZI+pIqaKOpKZpXI91cDjdgtKVfeTvAMrKWbHu/q5HOrv0o0xdTbx2NCD/EWc5BH0/uu/2/YNiQPAEiGOK2nbCghMfByNs2i2wWNXgwoYToj44UgS6Xondwes+cPNXeLf8nyII6S2QUF0B60kRqExT3H7D90bFcSG67R/OcYh9Ua3ShU1wOxFj9E3iv+Ir4Di1qsRJogGKqHtql/kvx7pZDqpr5oXvLbhdBBvmxhY5oRc33SJqtQ14r8V7qZ4Pg7sz8XEj0sv9kWCei6o3bsL4+g8x/5mqnifdg+8jt3IEEgqd82HDAcxym+82EW0lwKIOfw3BAjnVu0+R9ZId96vL3BaCu09+iuiHRcVOfoubpmHHzlli+AFMkWJ82W1y3DksUAtUo/O0WuzXwrePo6yPj/YyzwgEf0f8J04eI50TBkbsaK7mT+P7zH0LtoijSaCYp/D9YqTKzy3/XYuNrj4W9g+RXVCCpWqnREebXrESX1qwYsdr4qQ/wJpFV7qGdd2hCZPpVIfgrjywoPRPb2DR0ZM4eqXzu9Ff2R3thqNLPuyjEiX+bqtIu9i/Fk+NwWJn6wDYD76B6OIDyBXHgVvVZX0b+MDyISL+LCokPVbhDDa+/RfUfCXmE8lpO/MpFm0WlZ4B19yc7rA2YcVhO0aKdQv+6iw2inV4olLufNeL7fA/xP+iUrmnqXsBbX/7WASfovIwfhJCde09R5DzngWdPs7yr/jHX7CopLE739Qy/fNOrLCcgX2YM399z55Brqg8PrGn54HBdqgST3zyL4xWy02uQ/RWZ2Cgatgq8ldsHy2iQnG3WM+2g+Uwd8gvVX6BCBZ53vCl88x13GaF4Uo7Wixqimw4rk6+7nrnNjHEabPseRlTRCBSeFY2CRx2VgQxf8EsUTlyC5j7Q7MvfCG3S9+zJ5H+nnvaura3M2dFusR8Yt1rTh1BRIEIGjXb2znzzUFs0wUFmN16EidkfgS6lvmOR43nXDRNJV3HhfHioOSapu6XLj3y7cqzYjs6gJBXtg8831z+rwXpVZ86tssw9TjzhciTP+sNmIdqPx0Gf9f6i3LqjaXydUxrsOAD+CNpzE1YNXoERotySBXHwdxznHP7JLZZ57XPs7B7Bvyezg7+ESp7D/0NbWp+narFiq3OzxaxHk+9Jx8vaBfB1eYqpJ86i/GGUVgl1jXpO86yn/W6+3l3yM5ZNyzAOtmkaevTYjw6H41y3LOZU8PaaETkHscPs6pQ+34VVi34AuZ7Jnpv4701C1mn78e6N6uw9Td3oy0tAtFr3TsjvXfEF8tf34SH/rEcT6z5AosLNyHuy1ykF2vma8xF9D0rcTQsE2+8X4uqlxMwcutSUb+o6MqP8Qt3iHO/GIpMuFuMx/1ejjuGBRjvnK2L/bT4ff+rcbUc7+FIIZbek4q2GZnY+v42rF/ig9fXbZFf6nQwR9SRxos6UpWoI8WJOpL7OqiV+opnZmFRhS8ezakV+bsDmZFtWH1PNHJd8fX1dyNNrteaZWI80oRNXeu5A2nhfs75BEP0uq4ydJRrLwZSpluez4d14Tq88e5WZM6wIjdmaXfahpjvNaHACavIlS/xxYnbERwWDD+LGlwcRVsxEDhCDSbsaFifi421Fsf51W+EOIuFBzv2AfvJFlTk5WOvbBplmHQWwdpd5qLlDKTwP/Y+6lqq0QgWQYfttPMIdiHoqg51GTEOq1bPxZxpIQiLfhDrskbAsu4wajyjCesNWK6Zb/3vPecbBl/XbVP/c5WoP5JXPiiiQ/Fbs+ci9/fjEFp7DB+4OpuMuAkzIiaJYTxuUbenG0fJcecwvo+rDb3xv+txdKalweRoq2TA4sQ0dCbOGlibPMlwV7xs+hSLNPUA3ytf3B+djKp7R4mT2re6PwsfHHdWjuwNB5Autqi7b30QjY42vclo/PEkEYzZkV4zsI6K3emaBXEoE8TJyjHuHFbddb1jKmwn8IXI41UT56Lpl87vqp6MQIL4qqa1sTuo82DZU4KnvhDLuXYaXrjblXN21Pz1CGrEuq5Z+EvnspJ/iXe/LwrOfgzm9z2vLFrh9/2nUKXO9/NY5A8Xk/7vGPZ+7Px2oEr/bxTW/1xdh1+icfYoR1O0UrEOznzzx4yJNzjKOLvFVdk/hj2tao1zOBZN0Nmn50s/JD/pXNfGB0MwR0xqOHZIVFoliw2+3xP5e+eDOORIm5hv4W2Ok+DGj1xp67Zn2Hjs8FiHmr9/KMvhEPb+XU25Jn9/HoUfulUQRUVDzUfrKfHbp9B20hcPjfRHm03kvf0EWsSxaMH18pbxkKbtGLY3WsXfGLBV5kfFz0XZjhoGyxcHugPmfnLtCxgZgcNyu3Tl78a/7pfLdG1vQMIM13bkXKYaNBZ2bW/9yTfh6AHkq49+E8tslPlR9eQsmETFt3uZ/dTVVNJ1XPBH2mLnbzqGaNdTIVz5pk3bI1iv1hPONA4437p8+S089GPn77nWAfYj2HvY+fXADNV+ehuWu9Y/svf97egp54kk8d4ErHrgQSQtfhylS+Zix713YcZ3nHtuv/13FVJzczBHHV7ciWwxacGtkxDWSzBj+MEPkClqnXv+9oaodMm/e7Wqx77QH37jYsTxT+S9+Ow7pvuzpeNT5+99IQImNajxm4Q/xMciSazrquU/QeO9s/Ba6I3qHF2G7pzl292kSa1dD7sa13adq8XQdRGuARW/q8GCrDUwRYchNCQMC1LWYdVSC7IranpUfEoDH8L6pxcgbFoY5izNxZqsUNT8ea/bPuN70+3idxbg/gWicjhtLmZMW4Afih264XT3r7WJ+uP9eW84fyskVNQJlos6QZKoX1R01S/8x80Q534xhN0CdTcJDpHjjmG82NMGxlJfgQokIXNlHOaIZYbOjsOqRbfjPfm9Lta7RR1J/J7Ij7Bok6gjxbmtA063wRqcgq0v5yJutlimWIfF6fkioKjB61Uy13wNCJXr5dgc/G/BHV3rKabdoLli6qspw16jpoGV6e0/z3bMFzZtDuJWr8GqkBpU1Ou8O+FxV8XnLmd7CZeRBhEYnLSiEycc55BAX1/4fiw+2+34QtSAgtVTlr0FNVsL8fRdQRj7/eV4/fRILL7pS+z55RyMvSEE0f/1NlqODfD44GIfhvRbv42kHX1Xoe37v4VxQd9ChWed2EPbhm8j6K5vddcDzuXYCfTn+Rx7HAHWhTG4YEIcSa6VH1X+gepZ4yysnleUPee70YC7I69S+xrqMFxEnfKjasQ1CBabtavzzSVHW0IepWX7H2dG/+3wNudJTB3elBX6r87Tw4b9QhAXcRsCzzbC5Frmy/vxtvy6h2M7HfPMel9UgK70xwv3aTtQ2nDCcUHcDvNb8rfEsPygc8+z97jadw1uGaluY8KVo3BLgPOj2OT0uU5E+TJPfUeKSrXzYxffyZOQolYiPm3CXnXPPfYhSh2xxM24W+/zAa4egdFyFTD6Bmf/GlFWXYe0UT/A8rAb4fdZFRa58vetQ+itjrjgptt6rsP/ua5aiP8dV1TFSeZmxwSRbzch1K056fUIVvcn20kcxUm0nbkGdwf7ofSUOAidsjmaN43/D3kbaUjTJrYHx0UTC7Jelr+V+wdkfCoLc4Bl6toXFtxwk6j+SKNnYVNiAiyPzZZ9llzbmz/CHBGUajhG/4ezg1b39taffBNsVuxR/7fsxwJXfrz8LkrVn9GW6ZBy5Zs2bTcg+Dr5We++8J2bECaLGcNvxC2OCoZYB10rMcT76TkE+jmXVfiXImx87wBqjlhgHxGCGWL/datA9cfZTrR9accedRDpNQzzx91jgru3KU9X34gZN/o77ibVuP7uf3Wd2JyuHNZ9RVz7WXWtn/Ou1f98iPStVdhbfwht/+OL8WI9Z0y+acCV4qElNhQR8dx+s/Yo6o9AddRbxWeEv1uejhQV/rtHDLCshODZSUhaFua27r7XqLWN4z3rIUNp4e24RZvcG4Odx3K9RKXevY4UKupIPt11pGtCsTglCXPcmmNfjavFimuDq6E1sDINDtSWgrNfg+7KrMcdMMs2NazuZgi+XQQcbTj6aRs+CLwWVxsCccuJL/ClOG+1iWX7q1GjbyiWlzSi/dQhbMtZjKvrt2DjflFdn2fCtsM2dP5tK5ZPGvg2R97JU/0FNmk+KrbHY46eS/vUg+WsPIk5hrPntwe/2u+hYBuW/u1TFPZnmaJSpc7Tol7VHeaHYHmDw1OLqLV0rcO5mhRcKFfehgXj1YPNSZR+cKqridOcMaKS7Jhh6KnNcGb/qQrLj1pQ6soP+1nnlUlvRIWjy0hReU5LQ2daLMLkpP5wtq8WFe2P1QPx9Qi8aQQWqHcq/lustzjlB8uz3PlKW1clTB2GtMI5DL5i3fxlZfO8kdu4a3Bs69804kzQXXGVV7K7rmxf3IJnL0HVGFE5/Z9jWLp3JyLeKIAhR+1ftn3g/Ui6tlMxxIbgjrNWrHirvNe7TNbqEkS0WvHFyAhYUuXf6bxrfU6+05C2cBKSrraj8G9/wex3SjAuby18Vq1Fds357x9yPhmiVok6wXKvDyrp07EKpM4f130F28tV7G+kSctFfqzS1JHs3X1MutY1yNkv9FLkeQfM8/bJCAPuVhshnhTnLMeTmwIRfI0FJ0604T3xWfxJt2uCMd63BuYd92P9khaYt9rhP2qQQYTvWWT+7f+QO7vvg73vnf/EofZ/nvPRwsFL/g/t7/6zR5O7XolgvD+vPgm95sIFS19PMHExGfbNj0wXTI53nsS0w3k6obU1HXT0ewgdNav75Jk2F2p/L69GzxXfP4Ud6lXP/zuGrEpvz2P3x/pHNWmXw6Z7v/5oM3jCOEdTmcKPq1B6VK2Z+OOhUL23Jc6tocnZDGdBaGx3XjyqNl07fwz/oV7GOY221lN4b7g/Rl4vgj7bSexxdC69HqNlQ+vzk7ZRqHL9lmYYmkrsWdhtVlht5/MSpeDYxj3XYWABHQ3Cldcj7IEENKrHo6cSYHl4LvJH+qLlvxuR+u4g3v8w6gbn05zUu0y91Bk6O53R7x0jb4L/BTib+t48C6ueEuuZmgxLYjwaZ9wkjk9nkF5VftG8J+DCaUH+w9F4fUQyqg73fhV7oHyHXXxXOa07TJif3IYFv29Ee9cV+0bkR8sZLje+V8NPlH/bwS8Q7Hhy09XwveYDtLV8CcvCYIx2zuV0bCOe+FEeglMfwuJFyQjbHI2lHv1zvjnE+Uy92RMoAiznhF4cx4mPRf3FoKtnry6DO/xZ1fZp3awn1JP2MPif5wuBQ8lw8+0IxV58dIFf8DEU/L7jzOi2//5Hd5OKT2uRr7507p2+OkP3k7cT6Nl/Of67VlQ6u06en6qdH/syHDPudVY6Kw7uREXXRTQ/BDpamJzGR8e7K3xtNduQK9Zh48HzXAn83NLVYdV+/KT3uyujpiFOvZty6hBWO+rWt2LOeds/7bDLK/Mj/bvb8vWatnPylY/StKDB1V79qyNo8Lzz/B8jRNmcRZvFigb/62HwDcT4q214+4jV0THY2S56qNPmD4PjYpMNbV19lc+g4R31hW0lqHA9GaOfXPtC6adHup8YdXQnFuWZYfjjDnll2bW9WVHT5tq2zuDofzs7n/sOc91J6We++fk7+ototyOc+RAb1f2veJAvfcQ/ve9/XfmmTdunaPtcfj5XlzNdDBgvmyp9YHEV1hmxzzqbI470+TpfD2zB3q3yJX/qcUU9Lt0YgriJzgrhkL3/oZczpauj83si+D7f7Id3O46Lue+Kk9WVvvD3E+Vyx514SN30vzqDE9qT8UB8WoHU2DmY81TpILZZcZAQWf7Bx9pfsOKEOioqe91df4fQyRY01AJxy5YjbJTrCra/2I8Hd+YLvi0GKP4AH/X1M57f/0O9Iu7O0UnY+qXsxO9kdWTIeAS7mhT2U9uHb8MSnYC46PEwdF2tF3nuPHSdJ19DmfbXDcEi0G9DTW0LggPVYMKAwJtt+OBgi0fa7Nibn449M19A5kKxMtfMQJo5AUfzX0XFgHdZBeqpr7T2Cre6lf0fVzj2m2BXtyWxP6pVhJqD2oPGlTiq1jEXKt2BjsjeUFyBhkPad0pcJQIksTYTHFnvRRtaaoC7DZ5tbj2cFPM1ijSNuHClNLhg4uQhpKZsR0VtI2rEAf2JtJMwPDEWYee4pdPD2TOwWkXE5RicNZYvu8atXZWYgREH2jBxoC9txMaqA9jrGD6E4yE1WiEz8FDIHuRv6tmhaOh9iHxX2+rcImT9jzrNiqyNctoAO+75hk5CptggG47tRMiLzt8I+fNurGg9gjafQHVb1eFGjHc0RTqGB+VvqoPrLd3Bo50dadUOhyE56ne/xbg3Pjz3C+5GzkKa2mToq5NIf8fVodkXYd+/CWGiIpu9Y62zA2POb3HXng+ResQGf1e76/NkAY5gtmMdf4uQHcccFc45o8d57MTXY07oDTCIip1aNnFjJ5zjisBg+CI0yFlRN+/tzo+QqoFsFVrjMOM/1a3AjhXFv3WW5YvleNtzrx95veP2qvm4RXa29sPIa6zYowZPfvJJTkOetlGYGyIqxmL7X/pnV9rWYlr9EaR+AgR+V87WT659AcerMNG1L7yhPvYZWPz9O2XzCdf2plkHscwI9bGlV96AuKmuNnj9zLfRk7BcbQJmO4C75DIj/msblor9b8uVrnwbKHHcMqgV1DPd+SKG1HddEbgr37Rpe835ONnhIVh8q3OuoRY6YZwj30r/+lpXvs1W4wrfm/Do1POzR1jeLeha/zmuO5qyD5Y6OI9JfvD/56dIbW3EgwVmpKqV7Y0FiH7HOX/Cd907Jg+IozNn3/z/3XmMsgzB05zOxfc7omJ3ROwf+99AdEGRI7BIzS/C0+p5xFfdbpzzDZSlulAEv3uwZ10h9ui+qBaKOb8IQ2naCmRvrUFDYw1KX1iKp9aHInPBeXpfw4jxCJ0GFD6XisIdDWKZe1GxKRtJL+yVM3i4YTzuCAG2lG4UdYG9zuGA80k/Wv7TZiAOuTBv9X5sM0wWgZf4Pv2ZQlQ0iuXuKETqK+/Bc9cLjVouttt0LM/ciBoxX83WbCz9WSHCfnO/PB71X/BtP4RhazpSV5c6f6uqFPmJqXi1lwrx+JAEEfBswes75HqKoUUzr11Tv3I8UfXsl/iia5orR76GMu23QBgiG1BS2oBr5VMAAkf5oU1sv4Zrtf1xfDEj6xDa/9D9HjH/qFy0N+ViTvc1Mdg/vUrk0TDnIJ9A9VGNHD9wldxGvsKMpQrCXroSi14YJsrhKlGm38LSuCtw/ImvMMcVIPp/hUd/I84xjw8T+TZM5NswlK4ehqWZ4ni05Kvu+kXIV0hbAqwQ8xXuuMoxX+Evr8LTxUBKlPOirSd75etY3TgHi2b0fXZp21qIQoMJP7zzwpXS4IKJm0OQFnkS5rjtiHjwCFom34ZtKyMGXtk6sBUGg9k5fL/R8Szo7PlyXAy5B5yzDVRo/FysGW/B07N2YrZjeBd7ejQtDcXyrCQcz0xFVp8vAhkKZ8WO27NtdVd/gYF23PO9Dab4GKy/cTh8Zb8JXG3Amtk/Qa7r6UsDdj0W3D8Lq64VFRpNXwyrqx/DrfOx6Y4bMEd8rab7+JVieQ/ehR/Kr/sSOusHSBJbXMPRKrwuH7bsO+FBbFXbAQ8fhqPqssRybjfchqr4xzFH7yr015hZ2DTWF8c7z6LtymFYLMbXz+7ZhMn3tpsR4/g0AnOM5zdR/nf9CLW3jnA8nlPtS/Dl8HHYdJ/+Phqh0SJ/xfYxXmx7e8R6Bk+IQoKrQ6zLlSMQLJukOp9L76/eRYVFbJ+hIrhw7c9DnTbD3Y+j7t6bEDdM9jk4Owxxo3+Axp/EDPyxu5p94dqvnNusfdgIZN7xINZ1PT3M+/YWdv1NYnt7BDM0sWu/8k2cFhbEx2PHmBGOxyOryzwhl7nj/j5eXHMOoXOc66E+Tte1/7XJ5jSqHvn21TDMuXESGpfN7erwPuTGx7jnmyirOep++uMHEXq+zlednV3r39WPSpMnzmOSCHJjHkGVKINbRWCaq769/6gFLcOGI2nyg8jWfRwU/udM90USr3eJxMldpOOCGXkP1qll8J1haLEcEwHUEeSKIPJWdfv9sY59RjKE3Y/FYhcxzLgbtw/wirlW6FNbUZU0Em+nRWDa1Aiklo1Eyu4dME07XxvIeCwvqUKKoQLp86dh2n0rYG4IRlLK/fJ7T+Jc//IajN/xtKgLzHYOL+7x0jl8AUx5c1D6y6dReMhL+d4Uh/W7VyF4bzqip87H0g2deOjnD/W8Uq/O95dMjD+Qjoip0xCR9jZGJlVh69OhA66I+8/Oxs7XFsD+x0WO31r6qwrYl6QhwfUQBg/+UUnYmmKHeb5cTzGUdgWKFpQmGkTdyjlEvyAmbV2OEDluSCztuqh54cu0v67GtYFiTSyhzic3qVN8fVG6tRR3jPLSdMB5A7Gbx7it+iqRR1c6h5857xRkx8rxF6/o2kZ8J53F1t0KRpZdKcrhKlGmV+Dax75C3eqzmnrvVwh9+l8i3yDy7UqRb1ciVVRqE3b+C7lR2gPJv7Bg7b+w/s4rkPv4VY75co8oeOGvZ5EU4uV9F2pzrbhcjP5NJh7yeMWBlnW/CFoTP8DinMQL+lbzKzo7O/t6S0ev1JfRRRychPai89TZ7IISFftXnsCsxD24dVkKTM8mYcYgDqp0iWkoQtDbx2D5jx/A8piOYJmIvoHUl/U5XyJoGOaLW791E7KT5juvKv9tG+bsPILjnc6LQgl3DuYCDl18rNj7q2jMfuEEFqRkIi198fkLmi8L6osII+QLcb1YuF7UJRdfAnXJ88DehorVqViRKSKSpZuw4w8LvF/AO1mD/F9nYOUrf8Otv3kDpU9f2LtH5+s61jeML8YvW4+mv67FjNOFqBlge226lNmxt1kEEuJT0oRpDCSILhsGLF4yH2uuH4arHXdpT3c3ifm/0467Iy0YgjsgdBHyx4zfVKF9ZzJGfrgXLd/sh2VdBMKQ1NVx3MuQt4CBRG9O1aC0ZiSSd7bjUG+BhOrIXphPz8Davzah4gIHEiremSDqy5m/IGltFcy4ATuSH7mgtw2JiIiILna6gwkiIiIiIrq8sZkTERERERHpwmCCiIiIiIh0YTBBRERERES6MJggIiIiIiJdGEwQEREREZEuDCaIiIiIiEgXBhNERERERKQLgwkiIiIiItKFwQQREREREenCYIKIiIiIiHRhMEFERERERLowmCAiIiIiIl0YTBARERERkS4MJoiIiIiISBcGE0REREREpAuDCSIiIiIi0oXBBBERERER6cJggoiIiIiIdGEwQUREREREujCYICIiIiIiXRhMEBERERGRLgwmiIiIiIhIFwYTRERERESkC4MJIiIiIiLShcEEERERERHpwmCCiIiIiIh0YTBBRERERES6MJggIiIiIiJdGEwQEREREZEuDCaIiIiIiEgXBhNERERERKTLFfv371fkZyIiIiIion67QhHkZyIiIiIion5jMyciIiIiItKFwQQREREREenCYIKIiIiIiHRhMEFERERERLowmCAiIiIiIl0YTBARERERkS4MJoiIiIiISBcGE0REREREpAuDCSIiIiIi0oXBBBERERER6cJggoiIiIiIdGEwQUREREREujCYICIiIiIiXS5cMPF5K8q3l6P1czlORERedKJ9fznK97eLT0RERBc3fcHEgVwEBgb2PqyulzN2q391OpbFL8P0/6q+uE6QtnoU5ZlReVSO69SxZZlY91z0XPOv39eStuMlWCa2hdwDcvxrVL9abJOPl6BDjlP/XJh8s6F+oxnmne1ynHC8HJkLl2HZwjQUD/K41G+flCMtynn8XrZlaEq8syoTEwPnwXxQTujSgZLH5bnCY+jzeHGmHrkijfPymuUEqdfzUc9jnq3WjJSoqc7v75iHlLxqdJyVX6rkcavnb6nDMpQcl/P1eQ7sXq5jH/I6jxg8zpM90ra6Eu3atA0k3860ouS5JZg+Uf1+IqY/komSj3ueeTs/LkHmI9NFOYn5Jk7HkudK0GqTX0rO84f78hyDl/M8bM0wPzKx9+9V/UnbAMqUiL5++oKJkAQcOnRIDhuQJCZF/W5f97QnJjvn05i87H2UFW/GvifD4SOnXRT+tx2Vz2WimXdMiL4GnWivzETmQYZ6XUbGIGvXZmwuz8LC0XLaedS+PQ3zpqShdXIcouS0QRMV/5zfmGFIyUD8BDmtS4A4X7jOH87h/aIkTA4Ih99wOUsPnahfl4FspCMr0SinaUVh9V733zx0KAHaM5FtZxqmRxfCFpWOsl3voOz5WPiUP4CZyeU9AuakIo/fei1BTA2A3785v3fqucx3siOBCT7u57i5q7FPM8+hQ+8gaxZgHN49lxp4TY82wzJbk7bKJZjnlrb+5puo0D84HRmNY5GQ+w7e2ZWDhO/VITEmGeWuYEglgtbkmETUfS8BOWKZ7+QmYGxjBqbHmsUvdAsQ6dcu89B74pw/KQDh1/nJOZxsjWYsmX4vCn0WIi5CTuyhn2lzOHeZEtHFQV8wMcwHfn5+XYOvOm1497jXE4JfECbfGY4x18lxIiLyKmBCOMInBZ3/Cy/HS5BpasWUgjJszlwIb9X0getE8ysZyO2Ig+mxyV7XwUdz/rDtz0biizYklG9G3Hg5g4fO2hykvQCkr0roNY2+mt90Dtolt6P8lUIYfv0KXkmMwuQJRky+JxZZ/7UaxjdzUexx98T9t3zRXF8MLA7HZPf6s8d8NjTvrIQxJtw9jVf5auYRw+fN2LXTiJg7XXPZUP22GR33ZSDnqe60ZTydgI43S1CtqWT3K98OVMJ8QKzby+mIvccI44RIxD6fhfSAEuRu6w4TmrflouSWLOSIwCVSLNMolpn+XxmIOmBGpfZOh48m7f+vGtlP5sD2U7G9PDpGzqCqR+HsQviuEAHCywmY8u9ysqd+ps2l7zIloovFee4z0fO2rLdb6I5bwatLUJ40FYETl6DoY3Hgd3x+AJm7Peb/pBK5CR63Zc/I7wag6/bz7YkoF+PZ8ha/c/C4lXqmFeWrUzDvDuf3U6NSYK71uBfszSclSJw4EYlb3Jtw2BqLkBarvdVeL04nWvXIFd8te7Melc8twVTXfK80D6qJmE29pe1YrvPWcuUn8gsHscyJgbh3nccB/fNypIjlp2zvx/p6Y2tGoSyviTOWINNLc5bOj8uRmzTPuZ6BUzEvyYx6zztFjtveolxE+TvXQZRDrJfb4/IWujPPvC2vHtli/XMbnWPtf37A+buOsQ6U/ywQaTu713VI0yZKuXljGpYMdDvqjbovnCttQs+mHZ7bm3DOfJPOtqNydeI5m0+cU1czBrF/vCXGX5gnx52De7MNG+rzdOx/3jiasSwTadZul4k9fs9rEy9HmjVNXYZ6P+3RtKO3Jh2isq7Zjvoq+3O6aoyjMpo+N0hOGAIHC5C2sh6RojIc2efFo07Ur30AD2wMQlZRFqK+Jyd7Uu9yPJsLn8wsJPS4y9FfHeioAiIneYQio8diCppR3ypLemQMXjlxAkmTnKMOn+9CyVog6Ucz0RVLTErCiROvIGakHFcdLEfh7kjE/bB7GZNTTuDEyzEIkOOq5rcLUXlPHKK61sUXPuodj+v93AIvH191zAc+VznHu/Wdb53fjURecQLC3fLeAMNosewz3Vtm5xlxrJ9mhDYkwMggEQh1oLm953m6U2yfDzxYhKCVG5DVY3vxQ/jWd/DKMmN3HnnR37QNJUczrceLUJ73gKPZXeb+djQ7Pk/Fslc99tVPqrvrF2JwnLO2tOrbn4kuI+c5mNDelnU2h+pVfTt8H3sFrzzQgZQVZth+lIdXFtthXlncfcv180qkRS3Bruvcb8su/E1lz8rROYyZvxmbi8XwchLCxXhsthx3DFGaA6wNlb9ZiGWVPoh9Xr0tuxmmiHaYo5d4aQus1Y6SFzJQHZEB0/2aA+9BM5bMzkZ7mLyd/aso2P40D0s8K/FC+7oc7Bobj7zyMrzykB92PbsEGZqK7sDsQsEfLZj88zyUFZkQfkqkY7n2dvZkRC43ovnNardb3LaaShQhATGRfZ0ielf+YiFs9+WgoHwDTHfaYH5EVNy0+SbKNCNmGXYNj0WWWqbFIm2fmDHvYfdb7U7NMOfvwpjHxDqUv4LYYcVIjMlAZVclqhPVaxYicbMoz4IyvPNyMia3FKHgI/m1QwDGzu2AxaLmYyfa/27H5EmHYXGcOy1o/8iIoO/KdR3StIk51i3BvSvbMeVXIm27ypAeZUPhObejXsh9oQgLkVUu0laejpmfq2nLRbP2zKdub9rmE3J7m75S23epP/mmEvvC/ye21Uq/7iYKo5tFHrmvZ7+MjpL72itIUptE/DhLs/9tRpSmeY+ab/PyLZjplm/Tkb1f/ym+fE2uZrtsR6bechCGbD/VNB/d97veGxx17s/BkqRmBK3YgHfqmrDPVfZPFomjzgAFGDG5t0q8Lu0oWpmJ+kkmmH50rgClGdViO2zfmSm20Z4BnZOoOL+UhlyfdGQ90ds9Caf27Zl4wBHkikrgQs8gV1TMRY2+vtUjhz4X+7z4L0DT5MhT+84iFE1IQNSdfV0VF/vQNnFcWBzrtu320FmN8vxmxP44Ct2544Mp0SZMfjUH5t0djv2y8/NmFP25CAGPLkS4NhJx6DvffEYaEX7nGPdKfedhHK4VwdR3e/xYvzVXZaP6aCUyH56HxB4XJMZg8rRznyMGmra+y3QAjjbDNi0dBZkGmNPTUBlsQt7zk1FnKkJ114qIbTf1ARScUY+p+9BU9w5ylgehLmEhcgZxrCG6LCiDVqfkGAxKfIlFjvem9/nqXjQohseKFcc39Tnunw054i+dLNsSFIOxe9yhtUBZaIhXij+T4wP1WbESL9KVUy/HPZ1uUopfylN2tcpxh2PKhgcNysz8Jjku0lYS3yOtRmOCUtwuJ0hNa4zd6yfZK00e6+XMq5kvdf++oliVshUinzL3KXY5pb+caTMpu07LCarmPGWmYaaS1yzHVX/foMS6TXMu0/j8wJfpytfkcqucoGpS8iINysI/HZPjYt0bipW8l3Yph+W4g0jHQs+0ObaFhUqBthxOlSnJYhmmHa5lOPNN+/ti7ZXixzTbl1C3yjXPMaU4LkfJy49SchrEqH2fkqHmk/y5oU1bk5Jj9Nz+7cquZ0T+vui2RfeLY18wZCj7tAUjl5lVI8cFx/YWVyzWtJu1PNnjb/uXb4qlTEkwGD32lcNKgdgXzr3/90Yup9c8kPn2htsa6N4XXNulqVL7l87tUrs/ux2TXBzlrD3WDO1+quV5PNFyfPfwBrcyVf5pV6xW66CW6Vof/WUp1n6HSTGKbSR5VY6SECG2PfE5fHmOss/jOOhiF2m2Wg4ru9bEir+Lct+vBHtNljhOaad7SaOjXIzKlBUFSl27VbG07lJyHhbLjhT515UhdmXf82KaMVbJq3fmk/1Uk7LhSTWNC5UNf3fO1ZPcNtzK2AvrLsUk0uV+vOtJzR+DIVkpOyUnaFj2Zolji9h25BD+5AblcC8Feq5883TsT7Fi3cWxTbNcxzbu2O/U46BRifqjeqTrYxs4LZZptSiHK3OUWLFPRmn2F3fn2qfdeUtb/8q0f9z2Jcf+r/3cc3/OqpajkiOvtedOIurhPN+ZGGJnO4FpQZorOoLaVwPlaP9Mjg+14UbEJCYg8mY57uAL339H77dlj5cj49lqhGeaEON5C/psB3BLkNttbx8/A9DRjHaPDmhBI8X0Ln4wqCv+SceA78I4Gdz7slxvEPnYjE7tKowOR9Q9zTDvlI0rPq9G5cYAxEZM8druuT+CDNprUM7b2dUd3bfQfUJikJAY6X6r3ddXrK1H2hxEWWvX4bogGCPCRWm4zxgu8rdbAIJukR+lgNFRqP5MTUMHDl8VhPDRRhxWb+t/1o7mCaJsZJKHNm3if7EIY5BbycPvejH5o3b35jT9oe4L9xkxVlsw10Vh9YkTME2T44JjexPrpM0RP8eGJJbpcTfhXPmGf3WKtZiCoO/KcQex3mJfKD864Gvi/STz7T/d1mCQ+4LYEt3aXhsw9s5w+A2TowM0tPvpufkFjEHAziKYN1ai/mOxHLWZp+zHpnc/HRodqHyzUPwbBJ8xkcjYug9N1TlYeKYADyz3uGMmOfoAiPWJfCoHGffVw7xbc8/vTDWyH+9H8ybHXa4CbH4+DpO/54eAmyORJI694QcLUN0i5xE5E75iA7KmtSIzahxGBQZiysPZKPlAbFz3xIhjgJzN08FqlBx0b7rkjW1/OQoDks5xB9eG6u2FCHgqBjM9mn+pTYjiF1VjTG4Z3j90CO/vykPUZ9lY+IuencNVfeabB1ttLhJ/0Yy435nO0ezsHBz9IgMw5p4k5GRGof6lSnEkHJxe09avMh1qAQi4Byhal4vy/eJ8bLM5jt6OvPbWD5SIunyzggnVW4ld7Rkdg+zzcP6onQldbcRdg2zn3UM25jnStAwl/56ABG3zJi2P9uGBUdnyi69bEKJ+HIuOV3ehWhxFHU2cAuIxs8/b+4N0prvteld+9LtMjYjbtBnpswZ2694QIMqlVVSmP2lHq6hAG78bBNtnFlEXakf15LHdFe/zkDb3vjmBmPeC/OIboxyJt2vXobd94ZskAJGZm7F5Wd8VxouFz50mlBXNROebGYgPn4hxNzn7fRQ2nq/wpb/a0S62hfDsHGTdbxRBuawE5mYh9oCouNd4iSa6OIPXjubW7spzi6gkd0Qhfv45yuW6MQi/czKCtBU+R9Avfkn7aNXhYp98+X0cczQlO4ay5X44/PFkmFIXugXb3frZdEmsd/mfi2BcHoXwvg6VR8tRtNGIhPmeTzRsR/GL2ej8dRayFov1EPkWNCEGplXJGOulc7g7L/mmoQYpS6ILEPT7MmTN6i3QCUJMQRPKlrldNulTQJAok45mtPZ4AlP/9Zm2/pbpkApCrPkdmL7bDPMv7sXUcWrQORVLniv3eEQvEXn65gUTPR6z5xwSQuT3Q8y2OwNLnm1HVPY+NHUtbx9Wz5UzuEnCBvX7XVmI/NgMs0fH6y5PbXBLu3NYjShtZ76viV9kDBI6ilBdLyrWO9UTZOR5fBSfDZUrlyCtPQpZ1U3debFX5IWc43zwCRInqrdExUcEDxgtqhEiuPA72oHmz1phHB0gTliq85O2Ho+cVIffRYkqwTeFt8c1isHL46Dp/Am6Jwmri8Ux6cQJHGvaJypj7Uh72Oy4CPB1m3yLR6X0OvUuqKgyfy6DnaOVMOcVob5fsY9n8DoPg7304rjSPKwOhc+WOB5dmxDSSwTg6HjdgdhZ4fKY0AtHx2sjYu7qO+hxdLwWQUJ4j7ssHejY7XmHSwgeI469zWgWxyaHAeWbqKwfNCM+rgB+mRuQc87+K71pR2WeGUUHhjZQHZq0nQd+RsRmv4Ky907gxLFDeL88AX6blyFt8/m680p0afhmBRPDxEG/3Qa7ejLoGhwPpj1v2lsq0TE3HrFzxziutHU9ns7rE6TkIwAnxCHr91NQkp6NErcnJokT2TBRbfx/4kPXb4lh+PldByeLszmEyym146ERPp7nUZ8piHwKKHrLjMqN5z5BDk47Du/uQNSjsYi6WVTiXfkh0jSYU1f1R9oDfwfaPTsSf1d9YslhVO9vdjY7EsHE2HaLOGmXY7IaXDgMddrEH4pF2c6qRS9/Sx10Nq1x7AtvNeOwtvIoX7iVXSvHBcf2dlAETnJcZbOoY0EI8GjycM58u0p9fn67WAdN+sVwfrdeZ741/91tDeBYhe+5Ar+h5zNcbPf/zw67HFc5822MqPQ5x78enehorEb1x91boU/AGETNnimKrLVH07Uhd7wSmY8/gAdM5W7blJOzmUjlAY/GL0cPo058193Ez4LK5wpR53ZsFPtbvfgFozjOyinu7zNyDT0f5NG+JQUPJJW4p+eMTWwlXo5vDuo7KzJhRgLSf+r90bUqR8frczZdkncv3J7O5IXseB35WJRIlSexX4m/rfvosPg1jZZmVIrcGDvQfFN9UoLkWDM6HytAwRMiH+RkLcc2XtuMVjnucLxdhC/ashJLrcpEYa17abd/VKcuFGP07Av9SNvAy3QIfN7qOCd0uArBxw9Bk6Iwc5rYph3NYomoN+c5mOiEzSYOAHJwnJjVA4Jr2gCvogXcuRBxHWZkpheh8mAzmvdXoujZhRi3sBDN/5IzDdTIMZgsDuTl5SXiQCJO0urQ6HyihipofCQCtmcjM68c9WKZ9Wrb2F9kouiUnKEXQT9KR15ENRKfcz8gGu9JwORX05Ci+b3c+CkY94uBP5FqYJyPVyw/UI/63UVIS81E8yRvV8l8ED4/AYZXC1Hk9SraUBKV+HsCUL5anNi316P5YL2jTXHKyiKdeWHE5KcCUP1CGnLl75WvNaPcM/DzCcKYiA5R1iIFjvb/BgQNL0FJreZJTuchbZGi4lKYnqL5vVwsuWMcUnYP/Bcd+0KAGdnPiX1BVN6aD4jtKDUD5ZNMiAqVMwmO7W17BtLWyu1NLDPRVATj01GY0nVS7me+BYRj4aMWmNPF9r9bLPOg2qcmDQvHPYDClgHuzF0CMGayqNRsL0eJa//TntBlvpX/Rpu2RKSJQNcUpb8vz7kYZ8UhsiobKS+UuOXb5Ge8VQaHiPbY6Mh7e/d418HSB/aPzHggJtGRH60dHWg9UInCVwuACZMHXrnr7BDH0e58V49VttY6L+Xg1FFTBPNb4rtXi1Dd4+3cQVj4cxN8nluGZa7jm3qseTIFzT/KQIzrcaujZyLuRxZkpqbJ7Ug9jici5WAMMu7X5K7H+4x6C16DwsQxencGUlznBbHMzNQcVPdWwT9YgIwXLIj7XRLCe20L3y6ChMpzN13qFHm1scPj6Uw9ddZXo6gjFrGzvM1lxMIVMcDaFCRq881xjE5ApOuue3/zzaY+6S0RzffnYPXSMbB3bUPa7Ugsdb4IlD5KQ/Kzmnx7Uj2GiGV2PRo3CDN/HAPLc2lin6sUyxQBjtjn1X4OMZkxmn3Bhtau7agOh9ULZp81y/FqtLqC3H6mbcBlOhSGW1CdcC/i1WPqwXbYPhHp3yICnreA2PH9bwJGdFmSHbEHoY+nP8gnp7ieTuE5uP6mv09zcmjfpeQsD1eMjt+YokStyFPqvDwZYyDszQXyySMybW5PcbErh0sylNgw53dT5iYreTVNPZ5W4fXpK+3FSkKPJ9EoirVhg2J6aIpzWcZwJTazWDns9rQI73nq9Qkz/eBK266u9TQq4Q9nKLt6ecKKa/nuT/cZIFn27k/+8fKUj9OHleLMWGWKmheu8mzw8rc9nqTTC+3vhcUqGTuOeck3u7IvU11eVld5OebRPMnJYajTpliVptdNXduSMUKkr+Sw/ifwqPvCiij39HnZF6w1eUryXLm9hUUpyS/ViZR46Fe+Cf88pux6MUEJF9t19/7Q9xNszul0k1LQtU+rg2deWpW6l5KVKLd9UOcyvW6X3rntp17zbWj3U+c22NugPba454drfy5u1bEl9XmM9rJNy2OaMSZPaeplcdaaAsX0sCxPNd9eLPM4vglu29FA0u89z+2txUqGa5lej6kuxxzHIOOTZX2Xj7en3XnhfDKa96czdZNP+FpR1nO/6yLOM+U53ftpb+vQn3zrq0w9tkuv+eYlkccqXU/n6u245SyXHsuTQ9f+Nti06XiqUv+f5uSxTHXo7XhJRG6uUP+RcQWR00Ez7p1Zjbj3NiC2z46HRERERHQ5++Z1wKbzrn6n2gY4qvfHJRIRERERCQwmyF1nNXa92oGoH83ssw0wERERERGbORERERERkS68M0FERERERLowmCAiIiIiIl0YTBARERERkS4MJoiIiIiISBcGE0REREREpAuDCSIiIiIi0oXBBBERERER6cJggoiIiIiIdGEwQUREREREujCYICIiIiIiXRhMEBERERGRLgwmiIiIiIhIFwYTRERERESkC4MJIiIiIiLShcEEERERERHpwmCCiIiIiIh0YTBBRERERES6MJggIiIiIiJdGEwQEREREZEuDCaIiIiIiEgXBhNERERERKQLgwkiIiIiItKFwQQREREREenCYIKIiIiIiHRhMEFERERERLowmCAiIiIiIl0YTBARERERkS4MJoiIiIiISBcGE0REREREpAuDCSIiIiIi0oXBBBERERER6cJggoiIiIiIdGEwQUREREREujCYICIiIiIiXRhMEBERERGRLgwmiIiIiIhIFwYTRERERESkC4MJIiIiIiLShcEEERERERHpwmCCiIiIiIh0YTBBRERERES6MJggIiIiIiJdGEwQEREREZEuDCaIiIiIiEgXBhNERERERKQLgwkiIiIiItKFwQQREREREenCYIKIiIiIiHRhMEFERERERLowmCAiIiIiIl0YTBARERERkS5X7N+/X5GfiYiIiIiI+u2Kzs5OBhNERERERDRgbOZERERERES6MJggIiIiIiJdGEwQEREREZEuDCaIiIiIiEgXBhNERERERKQLgwkiIiIiItKFwQQREREREenCYIKIiIiIiHRhMEFERERERLowmCAiIiIiIl0YTBARERERkS4MJoiIiIiISBcGE0REREREpAuDCSIiIiIi0oXBBBERERER6cJggoiIiIiIdGEwQUREREREujCYICIiIiIiXRhMEBERERGRLgwmiIiIiIhIFwYTRERERESkC4MJIiIiIiLShcEEERERERHpwmCCiIiIiIh0YTBBRERERES6MJggIiIiIiJdGEwQEREREZEuDCaIiIiIiEgXBhNERERERKQLgwkiIiIiItKFwQQREREREenCYIKIiIiIiHRhMEFERERERLowmKCLhB1tVaUorWoTny4Xduz9VRB8YjfCIqdcWi7HMiUiIrq8XD7BRG02fHwWYeOncvySZcHGWB/4rKyR41+zIxXIXV2IGqsc782npUidtQiLZq3A60fktIuBZS9yfxKBcT4iT33GIeInuag5Kb8TajI1eW3fi1Qx35xX2pzjn27EIp+lKO0tUrDuRekLFsQtmgODnOQdy3SoWDYtEuWYDbecdJRT97FhUGVKRER0meGdCTq/TjYgNa0CbWfkeG9uWIy17+/AjnfX4KGb5LSv22lRkZwyG1uueRRr3q1F7bur8MOTqxERk40Geand99pQ4OMTzjsLp06gLXoB/CwnHN/hH20oxS0I7CVSsFaVwmwwYfFsfznlG+KbXKb9MJgyJSIiutwwmKCLhiFkBmZMC4avHP+6qZX9XIsJq1bHYc60UIROWwDTH9YirjYdWw445xlpCBZBhx1fqiOiotl240j4yoqo/fQXQHQwAtXvemjDllcKYVh6N8IulhU+Dy62Mu0P/WVKRER0+RlEMGFHw/okRN+qNv/w3gQEqEG2+G7RhgbsXRmNkCAxX1AIluY19GxDfbYNFSuXOufxCUJITCo2HvLS0vpYBbIfCUGQukzxW9FpG9FyWn7XxY6WTakybePEPBVoOyu/6iLTtsm9vULNSvE32jbsjmYNPsje0YLCp2Rzl1ujkVoumz183U7WIFfmR9D3lyK/UVR2PPTetEOsV60cVzmagon5RB6nzh8nPvtg3Hxv5WBFTZ4o++8HOeYJ+r7Ij00tmjKVzXLUvLorXYyXYul/ynF10OavY5ma7zzTqWHdn4vldznT5XNrBJavrhEp0XJtbzWoSIuWZSXm87a99UPn6ePyk8aIBSLAsCB5knPUEHw7sLUN6nVryz8+QvC0MNxy4gtHRdR2Umwjgf7wet/hyB5s2hGKlAdm9Kxos0w1hrZM+0N3mRIREV2GdAcT9qoszP/JBxiduhW1h9vR6GoCEl8Iz2p225p0lN6QgHVvVmFT0njUJM+HqVxbZbCiIuUuRFdci6SXa1H7/h+QdFMjnr7XhAptcHKyAknTo/H2iCT84X0x38tJGP/XpzHrmQq3CoiatlmPvA48uglV729CWlgDCl/5QH6rz5bnc2GJXIX1725FflQnXo9ZitxG+WW/aSpkPQY9/TnaUBgfgdS2u5G5rRbbCh+Cz5/zsaVH4DQQHyBnTQXG/3Q9qt7dhLhhr2OpRzk0rI1GRPZR3JH+hiirKvzhsZEofWSWpkz9cPfPd2DHTjH8Pk6M3w1TkRxXh5/fLeaQJiXBIirn6tCYt0BO9KIxF9H3rMbxeatEmdaiKut+fPHHCEz81d4elcq2NVmoGJ8gykpsb4/6Y3uP7a1/DJPnYA4KYX6lxW378vUXlUlXBODri1BR7bSKGb60WnB7cBiCr7E4KqJHj5T2WvFs2JqPPSEPYUaInNCFZXo+y7RfdJYpERHR5Uh3MGE70QJL1KNIWjoHoaMMGK82AXnjMCyv3d+jCcC1j61CrpgvbFoYFqSsw6qlFph3aK5AWvbi9XVA5m9zETc7FKEhcxAnPj8zwYzCyu47B5aq12FGprPZSYiYb3YcVq19BreuK0SFpiLesD9bVPwzsebpBQgT84VFm5A4W36p0x3P5sIUHSbWQU1bNlJCavB6VYP8tr8MWJDnrGT1HNZhwQ1ytv76tAYVO4Ck9GxNvi3G7b1dBu4XG+5+Qi0HdV1lsx6LGRW1rtJSr9jej/w31zvyIzQkDHMSc7EuRVumvjBMmoEZEWIICRbjfrglTI6rwyRD99X4Yb7wVyvnYrj2GjnNi4Ydq1ET/YKmTJOwLisOlhfeRo1nzXNxZvf29vR6rFW3t2odV7JvisOaormoSQyBQb2jllaI0kb3O1kYEYhgHIf1DHBCfGUYcTV8r/lIfLbD/j/AglFeGsTY92JLbgPm/HSBqLR6YJme3zJ1SEeENpD/z6UQIUI3PWVKRER0mdIdTPgFjoeh/FXkrq9AzSELrGpTI1mJ8Gy24ed3rfyk8kegWhc5aUWncwJwVpykcQeCb5TjDteK3wJKjxyV44KYD+HBGC1HHa7xF9WaUrT9Q467hN8iKgTdHE0XBiGw61K0aiQCbxaVodMDr8o4rmr3MnjmW/8swO3jtX85GsHh8qMufvDXVgBHBCM08m74dJVWMOY8lYS4adprs77w/Y74T1umQ8x+VtTqQoPdytTfsSGJivAp57hL8A0j5SeV3N6OnRBV6oELXpiPQ582Ysdv43DtoVw8NTUIEStruiuxNwTjdsf2Z0HbQYOoPBvEtmHBF6dtOHFMbCmiXD3Za/eg0BKHuCjt2mixTM9nmQImbNUG8n/NFzmuoaNMiYiILle6gwnfiEy8u+2HsBel4sGJQTBcL9t3H+i63zBAHm2wfYKwtFh+pVW81NlforerijTEQrF8ewVWRXU/vqat3NUfpXsQm8Ola8R4zFiUhNySRjTtFiua+SByu/olBMIQCXx59jhOfOx8yk/gKD9YTh5HW7X4PMKz4mlFxYZsWJbOwYwRctIFd7mX6dUegfzVcrrLQMuUiIjo8jWIDthA8GwT8nc0or2zE7b2RqyNasOK+3OwV1fbgwXI/6vmaqFreCpMfi9F56PRcx4xJMkOsRe3oe4z8TX4MB9LY16H/5NVOKTJ/61Py+8vIXar1XnHTcP/zsV4NNKCD9pczZ2uxtWibtnS1oIvgp1P+bna1xcffNyCLy0LPO62CZ9W4PX1BpiWzLl42t1fRmXaPwMsUyIiosuYzmDCDsuBvdh7qPsuhK9hPBbM+6GoL7f0aKJgs2mfRmPFCbWH9gh/+DgnOJpH+aINtrPaq4Vemv2I+dBmg10zj79b8yON6o/EL3aztHl2wBbLDBFpO+14AKQk0zYuuMdLxE5YtRGSesUSCL2ml2X3aoj7TDiU4oMWbdqOOq6eavlcozYR+QJ27WwnT4j8ERWjATb/tn7cgBrEISExDMGaMvAdVAfhc/MdJkqkoc2tTK2OwhKVveud40PLir2/NsDw6wqPdvknYDmopkeOijINniA2y9oatNwU6Kh4Gm68BbaDH6DFS9radr2OUkMifhjR17bDMj0/ZdpfAytTIiKiy5nOYMIXXx7Mwex7lyJ7qzjhispwS20F8tflASF3YLxHpfiLP6YiSe1bIU7OpaufQOp6AxJmh3VfmTXMwENPHMfqp1NRuKMBDY17UbE+CbMNs5H/YXdtyRDxEBJOrIbpl4WoaBTzVVWgMGU2DLPy0aCp+ITeaYKhMh0rXihFjZivZms2Vhe7VwnVph4LnpiDPZnLkb6pRixTpO2FpXhqfRgy5/XoFov3nk9yrGuNWM/CX5qwujEMD0X0nO9chrTPxA1hmDMbyM00yXxT0/Yq3hMVIS3/iAVIMuTiiafynfm2oxBJP0vF8SUP4e5RcqZ+8r85FGEoRIamDDauFHlTKWfwNC4UCaJyvKW4AnurRACqDpogFKetsKp3AMTwheMuwJdd41ZNABc6OwVhW592K9OlPytEaPr95+k9Df6YsTQTYS/9BIt+tREVtWJda0uR/5NUpIs1eiiiO9wMNNyNhtISNFwryzAwGH5HRKXYcG33U58cGlD6UgVCk+aIPOwFy/Q8lmn/9b9MiYiILm+6mzkFL12PqqSReDstAiFBQQi56ycwWx/C+j8t7/GEmuAVaZjTYsbSuyKwKLcFYTnbkB2lbeThjzmr38UfIk4g9/FpmDZ1Nla8Ysf9u3fANE1z5h4xB7n7/oAZllz8ZKqYb9YKvHr6flRtN7lVPnwj0rDztYeAVxchYuoiZNWIys+KO+S33YKXrUftb8ajITNCLDMCqWUjkbJ7K0yTetYW7n92OfyLn8CDd0VjebkPHipZj6Qej/W80IIRV1CFVcF7kD5/GubHvY7OHyfhIc/2M9fMwKp9WxFnNzvz7fFcHL1zPXauXdDjDsw53bYcW3enOIK1aPFb85PN+OCmJCT19gRQ/zlIKkmCPT8as2fNdg7FLfJLoGatAQaDcwhJVHu/ZCNajhtEZbnrIUYhSY7ljixLFWU6DRFpb2NkUhV2PBM28CCsn3wnmcQyn8HoD7Pwk7tEvt2VitdxP3bU5WKOpr/D1f4iF0VAHTpKdhL29YXv1lKUhgdD220YIkh+vXEOlkf3FYSyTM9nmfZXv8uUiIjoMndFZ2enIj+fB+oLpyLwwWvt2LRowFWci4P6IrD/XIrb3+0UgY2cRt9o6osJe+9cvADr/74Ji3U1OeuLHXt/NRazGzNxaFucCBloKH09ZUpEREQMJs6FwcSlR22G00d/ALUp2pBfGT9ZiuU3LALesCA/2vM2Aw3a11GmRERENLinORF9I13jvc+Kazgvlc4RC5Df2clA4nz5OsqUiIiIzvedCSIiIiIiulTxzgQREREREenCYIKIiIiIiHRhMEFERERERLowmCAiIiIiIl0YTGidtaJlRz5KP5Tj5FVLcS421lrkGBERERFdri66YMJ+7ABKtx5A22k54UI5VoqkewwISX4bX8hJ5J2v/QNk/SgI42Lz0XChy4mIiIiILhoXWTBhQWnaTix6cCdWFB+T0/Syomb9G8gt78fvHNuIpdMX4YOIHbD8bSvibpPTv5Es2BjrA5+VNXJ86AUvWY/GpkaYfFdifnwh2uR0IiIiIrq8XGTBhAGLc2KwY+dcrFk4Sk7TqxNtO44gtdEqx3tjRcWLT2PPzPVY/5sZ4CvF+sl/POLWvoaHapZjxXqGE0RERESXo4uvz4RhHGZEhCD4Gjl+vh3ZAvO6kUhZsRjBchL10zUzkJB+NypeKkWDnERERERElw/dwUTNyiz4xO5EQ2URor8vPvtkIeSRbT3a0DvmW3kAbeWvIfpW53zRaTvR4jZfI7LFdPU715BdK7/SsGwyi++KUNG4DUtdy4x5DRXalky1RfI3CrC0WIxnbpfj3n/X2tKICsxA6Dg5wZtje5H9SAiCfHzEb/gg6PvRSN3UArv8WmXZtEh8l42KQ4VIumucY75x81Pd0yZZD4h55jvn8bk1AstX16Dn/RMrGtYniTxzLnPcXcuRu9/LXZaTNciVaQv6/lLkN/bs8eFKm1vDp083YpH4G21+1KwUy4rdKMo0W5RpkPibIFGmffeLCJ4wQxTfe2j5VE4gIiIiosvG4O5MfNyI9HJ/JJjnouqNmzC+/kPMf6aqZ8X44PvIrRyBhELnfNhwALPc5rsNSZYEWNThryFYIKd69ymyXrLjfnWZ20Jw98lPEf1wSfeV8ZumYcfOWWL4AUyRYnzZbXLcOSwQi9fqPH1c/HstfH2d4z21ofBns5F3+iGsfbcR7Ydr8YcVo1HzyCxkVWnDCdUWZL1owYzfrhdpy8eCztdF2nLdr9o35iL6B+k4Gr4KVe/XoirrfnzxxwhEr3W/tt+wNhrTfnUUd2RVofb9Kqxa8AXM90Qjt1HO4CDSFh+B1La7kbmtFtsKH4LPn/Ox5az8Wo+Pc0SZGkSZviHKKkWU6QpRphVegh3pxmBRXjZ86ZkVRERERHTJG1wwMWIcVq2eiznTQhAW/SDWZY2AZd1h1HjWPK03YLlmvvW/95xvGHz9/eHvGIbJab3xR/LKB7FA/a3Zc5H7+3EIrT2GD47Ir0fchBkRk8QwHreoHSBuHCXHncP4Ec7Z+u8ELDuAuBUmsczxMIwKxZyludhhaULyJM8I5A6krVbnCxNpi8OqF1JE2l7HXk0A0LBjNWoWvoA/PL0AYSGhIj+SsD4nATW/q9DcOWhAxe9qsOC3f4ApOgyhIWFYkLIea35ag9XlmvsLn9agQqQtKT0bcbNDxXxzEPfbxbh9MH2vR4h0r44TZSXWQaRtXVacKCuRtl6jCdUeWE7Kj0RERER02RhcMOHvi2vlR5V/4HDx71lYzzjHu3jOd6MBd0depfaR1mE4ArUBwYhrEAz7eazMBsIwGyhck43Sqga0Wa2O5k2O4KdHv45A92kjAkXaGmDXXLW3n7UAE4JhkOMqX/9AwPIB2rqaCok/ELPdHuw2F/zFelsOtqlfaSzA7eO1Qc1oBIfLj3qI9XIvU7UnyfGeZUpEREREl72vpwP2pPmo2B6POdq68kUrGHGv1SLzxg+QkzAN4wwG+PmMQ3RaKdr0NifKjHD2l3ANd6XLL9yl36WZRwwRmfKLi05oH83EiIiIiOhS9fUEExeTYf2oBfuHIm7tJlT9rROdNgsOvZsM/w2LsGKDzkeiPr0VFovFY1iHBTfI7yXTNs95xJC3wO2uxtfu5Am0iYDL7W4REREREV0WBhdMWO1ub4u2nlDbwgyDv9ra6RvCcPPtCMVefOTqc+HpZAv2VjXA4mqq5OuP4Gn344fhQMWnJ+RElxOwap985Khou1+19x0mQgGb+NDVR0RtLuUZ0Ihxdbaz6mya+bx2JynFBy3a3s9H0VYtP0o+14wU/37h1tzKmbYFCA6U4y5Wq0eZqgHTyF7L1NrWggY1mLheTiAiIiKiy8bggomTh5Cash0VtY2o2foGnkg7CcMTYxE20De/nT0j6rBWOTjbDn3ZNW6FXVdzIgPGh4nad2kjNlYdEAGBOnzYHRS4hMzAQyF7kL+pxu1Rr12uOYE9D0/Dg88UoqKxDdZjDdi7KQ/mYiDutvFyJpf3kJWSjdLaGtTsKETq06vRMO0hzAiRXwuhs1MQtm4FnlhdiprGBtRUlSL7wbEwJFY4YgynUMz5RRjMv3wCuVtr0NBYg71bsxF9qwFP7OieCzeEYc5sIDfThMIdDWK+ChT+8lW8N0F+L/lHLECSIRdPPJUv1kHMJ9KW9LNUHF/yEO72fDfgSZHuFLGu6jpsFX+TVijKdE4vZdqGLa+I75/+IcLYzImIiIjosjO4YOLmEKRFnoQ5bjsiHjyClsm3YdvKiIG/RfrAVhgMZufw/UaUiknZ8+W4GHIPOGcbqND4uVgz3oKnZ+3EbMfwLvackl92CcXyrCQcz0xFVqWXRxb5zkDaO+sR1paLn0wdB8PYaZiduRe3ZFUhO9pzTe9H2k/9sSXhQUTMX45Sn4ew9U9JYgkaIUnY+hcTRu5NRcTUaYh4OB3vjXsBjX9Y7NZ8KfSprahNHYk9aRGYNjUCj2S+h/G/bcT6Rdq5ghFXUIVVwXuQPn8a5se9js4fJ+Ehz2RdMwOr9m1FnN0s1mEapj2ei6N3rsfOtV6aTN2cLMq0RZRphCjT1aJM14gyneOlTK2oWbkUyxsWY+3yGeq9FCIiIiK6zFzR2dmpyM8Dor6MLuLgJLQXzbq42vDrYkfLK09gVuIe3LosBaZnkzDDo//Cuagvhgt65HZUdZoQJqd906gvrYs4uF6UqXtg48lamw/Tr1ei8KNbkflmKUzTGEoQERERXY7YAdvBF+OXrUfTX9dixulC1PxDTiavWqrM+DJiLRqbKhhIEBEREV3GGExo+N+2AKbXGkUFWU4gr8KebsT6ZxZg/IDbsxERERHRpUR3MyciIiIiIrq88c4EERERERHpwmCCiIiIiIh0YTBBRERERES6MJggIiIiIiJdGEwQEREREZEuDCaIiIiIiEgXBhNERERERKQLgwkiIiIiItKFwQQREREREenCYIKIiIiIiHRhMEFERERERLowmCAiIiIiIl0YTBARERERkS4MJoiIiIiISBcGE0REREREpAuDCSIiIiIi0oXBBBERERER6cJggoiIiIiIdGEwQUREREREujCYICIiIiIiXRhMEBERERGRLgwmiIiIiIhIFwYTRERERESkC4MJIiIiIiLShcEEERERERHpwmCCiIiIiIh0YTBBRERERES6MJggIiIiIiJdGEwQEREREZEuDCaIiIiIiEgXBhNERERERKQLgwkiIiIiItLliv379yvyMxERERERUb9doQjyMxERERERUb+xmRMREREREenCYIKIiIiIiHRhMEFERERERLowmCAiIiIiIl0YTBARERERkS4MJoiIiIiISBcGE0REREREpAuDCSIiIiIi0oXBBBERERER6cJggoiIiIiIdGEwQUREREREujCYICIiIiIiXRhMEBERERGRLgwmiIiIiIhIlyELJtq3JGLixDSUd8gJA3WmFSXPLcH0iYEIDJyI6Y9kouTjTvmlF0eLsETMl7bTJie4s9WakRI1VfyW+L075iElrxodZ+WXXWyoz0vBvDvUZQZialQKzPs9V6Aeuepv9BiWoeS4nEXq/LgEmY9Mx0T1+4nTseS5ErR6JK9jyzIvvyWG1fVyDhcvaav1XNdBpu2M/FKjZ77Vi5R4Gky+BSL3gJxFdSDX6zyBj5eg+xc7UPK4l3nksGyL3o2OiIiIiAZFGQrtxUqC0aiYdljlhIFqUvLmGhRjTIayobJJaWrepWx4JkoxGBOUss/kLG6OKcWPGRTDY8XiU0/2hhwlymBUYteUKXXNTUpdeZ4SHyZ+P3WX0p1Cq7Ir1agYwuKVvPI6scw6ZdfrJsffJWyzyHmc7FarYu0aLEpTYYISHpah7NKubnOe428X/nqDsksss6m6TMl5WPz+3BylyS7nUdm1vyWGv+9SsuaKvys8LGdQ9Uxb2ZpYxWiIUnIatD+mM22VGxSTmt9PlinaNbXuMIllTFHiX3LlW44SazQoUWualO6l2pWmNWrZxCo5rrS9FK9MEb/vXv51So7BoMT/6bAmfc7B/k85i+qfdvfvLU1KwfJwZcqvtWVlcZb382Kadt5Tu5QMsQz92x0RERERDcYQBBPOir17RX2A6nNEJTZZKTslxx1EgBFpUGbmN8nxbpZtCY6KdV6znOBGrYiLiuczuzQVYFEFFsuYaYhXil3Byd83KAsNM3v8xrE/xSqGyDyxdG+sSlN+rDLlYfG928ralX2ZYpkrytzz4PQ+JUNUxnut7LaXiUp9lGIq9wiJPitW4nukzaqUrRDL6DWfe0ubqNa/KAITz7SJAGOm2zKcFfaZL7mvubU8WTEYTN3BiXWXYlIr8JVuuSuWMdMR3HUHJzKYKHEPzPpkFWX+8BQlVpS5+yrIYOLFOjnuZK/O8rLdEBEREdGFMuhmTu1vZiKxNg45T0fCT04bqM7vRiKvOAHh18kJDgYYRgPNZzyaOn1eiZxnS4BEE+InyGluOmE7BURNNsJHTlH5fDcIQShH+2dywucdqEYkpnj8RtAtU4CD9Wj1aCYk1hTlSfcirT0WmwsSYHRbWRs6PhHLvNPongfDx8I4DSg82CondOs8kIsHHixC0MoNyJobJKdKPkbEFa/GwjFy3MEPBnW2Uzaxhp76SlsngiLzsPnJcPe0XW8Q+dGMzq4f84Hx0c1Yff9YOe7k51hoB2z/6xzH/4p1RRSm3OKWuwgaLeZ7q12kRKdPypEyJw3tizdjwxMe+YgAxLx8AidSJstxlQ273swFnorBTLfthoiIiIgulMEFE5+UIPNndYj7nQmRg6jQ+Yw0IvzOMe4VyM7DOFwLRH43QE5QdaL6v5JRiBhkPR7uFiwM2DC1ilqPw0fluGSzqNXhAPj9m3O8y/F6lGxsR/0ry/CAl/4cPr5A+UftHhV9Cyzi943De6a0uSob1UcrkfnwPCR69ku4bozIDyMC3P6sHYfrRcpGi7TJKV36TJsPAkLCEX6z+191/v0w6kQwFdBVbn4Yc2c4jCPd09reWicWOkYz3wAdLUfmwonO/g0TH0DmllYvwZAIV+pLUHS0HoXxD/Tan8ON+N2ijUYkzB/kdkBEREREug0imGhHyXOJqHs0B6ZZzoqqs3NxrqiiD177m2bkIg7xszRX7Q8WIDuvA+H3jUX9z52dhKfGpqHooLfqqdBZj+w7JiJtt5dO2uMnIzagGtnpZtR/rv59J2wHi5BmKgIijBjjWWMfGYXVhw7hUF0ZkkbXITEmA5Wfy+9E8GG8MxLIy0bGdlFZVjt6n2lH5co0ZB4Ewse7X+1XTX5C/NahJuzLXQhb/jwsWdcsv/Gus6oQ2bsne68895k2b9pR/FIu8Gg8okbLSd6cqUbhykpM/mkUwr3U2DtrszF1YhoqvWSvS92bzQh6pgyHmvZhw2M+KE5IhPlAz/IKmLta5MchvF+ehKDaRCz8TaWXjt/dmncWonJCDMK93p0iIiIiogtBdzDR/ue0QTdv6o2tNheJv2juccejfqeo+IuKu49hMuLM78jKczNSYpNR3qNZ0jn4hCO5KAtTWjMx79ZRIjCZgiUrS9DcAUTeHw6PhkeCD/z8/OD3PRGEPJ8BEwpRrHmCUdDiLGx4whfl8dMx6sZABM5MQ0GteishCZFhXmriw8Vv+QVgzD1JyMmMQv1Lleg1nPikBMk/MyMoMwsJXivPfafNnQ31qxORcvAcZXdWBIsmUfH/XjqynjDKiQMxBlHFm1HwRhbiJgXBL2AMIp/KgimiGQX7D8t5NHzU/PBD0KRYZD1nAl4tRnWvD2lqRrUIUiIfi4KelBERERHR0NAZTHSgvqoSeHThoJo3eaP2JVgSXYCg35chS97xcOpA+0eidrksBwVPicp+V+U5C+kBJSis9NJa32cyTO81Iese71VmnwlxeOW9Y44r4oeOlCHh+sNonWSC6f6eoYS7IARNA0patcsMQmTmZjQdUe84iOG/poigKAAxz8d7vaqvFRAkqsQdzV76aQgikEiMSkT7o2WOvgTn5i1tLp0ikFiCea8GIa88q4+yE4FE8jwk/j0eZUUJvVbYfaaZ8H6T+B2v2etsNjX5e9qV94Xvv4tVPdvLnSSX7wZhCkrQ+okc99C5vxzmg7GI1d61IiIiIqILbnB9Jl6Y52wLL4eJCeXyC306D5oRH1cAv8wNyPmR94piVOgYj2Y+zo7a1R29XsY+B+dVfd/6QqS9aUDSr0XlWbMA24EimPMq+9+x2HHHwYbyF7NRf18GTPdp+3y0ozLPjKIDfTXg0fikEmnLRSBx3wbkpUzucRdhYGnrRPO6eMS/6of0ohzEfE9O7kGk8dlEEUhEYUN+Eib3eutiKNhQv9EM885+567g7HjdsTjSo8M+EREREV1oOoOJAET9Tl6B1wz7fhclv/ckKrKvpuCBRcu8tpd3UJvyxJrR+VgBCp5wfxKTk5+j83H5/mb3tvRnDqO5VgQZ6tOEHERwcD1QXt/s1tG38zP1SUNRCPqunKDVWQ/zb8xAYjqSp7kv2fd0KzKfK0eztg+CXGbMGO8BT8eWTKTsjsTqZ2J6NJeyVGWisNa98tz+kdrJ2YgxI+UE1Zl65C5fgsoxryDv+Ugvza4Glrb2LclY8lIn4gsLkDChZ+46qXcuErFk91i8kp+FSG8Bx7+JckA56j5yy120HxXrdJ/6xCxJlGfKohSUuHVwt8H2/7Qd0n1hP5yJzO3uZdp5uBl1iMEYb8t3dLwOQNKPZg558zoiIiIiGiD5iNghYSmJVwyGHMX9bQAq5zsHDOqQuc/t/Q8O6rsLjAYl/Ne7lGPal5I5Bs3c8uV43l4MV3daziP076V13Zry1ZewmZRd3t5XYG9SctQXvD2co5TVi2XWe19ml1POdYny8n4MlesdGabXdylNIm1dL8or0b5r4rBSIJZpeLhAaTrVR370M23WSvVldOFKxo5jHr8lBs3PHf6jyAdDrFLQ4DGPGLpfNNffl9ZZlLInje4vIvz1QpGOWGXD3+UsQs+yki/Ke7Gu53YiHHu9r/eAEBEREdGFdIGCCfWlZmpFdYqSXO7lJWaOl7TJYMNzcHsRmvilVlFhXhElKq/iO2O4EptaoNR5CQKsNXlK8twpzt8Ii1KSX9qnWLRvXnYRAUq8Wpn3eOu1G2uTsiE11rlMsQ5RK/K8LtOxnqtm9nzrtYdjlTlKQoSo9IvfM0bEKhklhz0qzprgq8fgkb/9SJuzXDx/xzloXypX96L3edQhp17O5GBV6l5KVqJEgKZ+N2VuspJX7SX/Th9WijNjlXARHBhEHoc/nKEUt/bMGGvDBsX0kLas6rwGfV0vMvR4sR4RERERfT2uUP+RNymIiIiIiIj6bXAdsImIiIiI6LLFYIKIiIiIiHRhMEFERERERLowmCAiIiIiIl0YTBARERERkS4MJoiIiIiISBcGE0REREREpAuDCSIiIiIi0oXBBBERERER6cJggoiIiIiIdGEwQUREREREujCYICIiIiIiXRhMEBERERGRLgwmiIiIiIhIFwYTRERERESkC4MJIiIiIiLShcEEERERERHpwmCCiIiIiIh0YTBBREREREQ6AP8/QEdI58FahE4AAAAASUVORK5CYII=;imageBorder=default;" vertex="1" parent="1">
          <mxGeometry x="453.5" y="160" width="787" height="445" as="geometry" />
        </mxCell>
        <mxCell id="dEBICoWJEvzxDYuwYGRK-2" value="" style="shape=image;verticalLabelPosition=bottom;labelBackgroundColor=default;verticalAlign=top;aspect=fixed;imageAspect=0;image=data:image/png,iVBORw0KGgoAAAANSUhEUgAAAv8AAAG1CAYAAABu0Ju1AAAAAXNSR0IArs4c6QAAAARnQU1BAACxjwv8YQUAAAAJcEhZcwAADsMAAA7DAcdvqGQAAIpFSURBVHhe7d0PXFbl/T/+V+UGfWxfaDlurIb4KdT+3GLzHy0MC1MnFiZNDVcG1hK3JbAtbtpvA9o3wVaC7hO3rgVZg6wE0cChiUnigsAF3LYUcgKt9OajBt+PfrrZXOd3nfu+7ptz/wFuEEu9X8/H4yjnnOs+5zrXde5zv69zrnPOZYoAIiIiIiK65F0u/yciIiIiokscg38iIiIiIh/B4J+IiIiIyEcw+CciIiIi8hEM/omIiIiIfASDfyIiIiIiH8Hgn4iIiIjIRzD4JyIiIiLyEUMO/rs/rkLhW61yjMhHHKqAcWsDOs/KcSIiIqKLyOCD/7MdqPjVfIyPTMfubjmNyFf49cC0LhETZyxH4cEeOZGIiIjo4jDI4L8DpSnzsbwxElv+9j6KfhQmp9t1oyE/FfNvD0ZwcDCmxaTCuL9Tzhu8no9LkfXwDEwUywqeOANLny5Fq4cGR3edEakx06zrDL59PlLzazycmfUyb2daUfr0UsyYqKabiBkPZ6H0kPtKz3fe8vZ0yHkanvL2secAtGNHOuar6wxejtJjcqKbbpg2LrVtQ3AeGuRUZ17mzaEDxfHBmGioEp9052252fVUZ4m082E8KCc4dKL0MVueXIflWzX1eiDPYxrb0Nc292PsQuTv3Yd9P/FDbvxKFB+V04mIiIguBsogdO00KHp9klLSISc4sSjN62IUnT5eya2oV5pN9Ur5C4nKVJ1eMezskmkGwZSvxIjPxv2mSNltalaaa8qV3If0im5ertJskWkEa550U5XEF8qVepGuvqpIMczTKfqflitmmUakUnanic9GJCr5Mm+7XzNYl5+0vTeVojQr+epnF2YqRVVinaZ9Svm6eLH8GCW3UbPSYc2bRdmXJT6rKTfv8rZbKXpKLe8kpfwzmUT1r3al3Do9Tsl8KlHR6RKVEu18uy6xPDXPokwy0+JEulylXs7q5W3eerW/IdfpaR/5rFxJ0uuUmKdkuYnyyFyollu+2DoPTtcr2dE6ZdaaepETV2al5FGdontmt9LV1eU8aBM35FrzU/SRc5rmwnhFF93Her0iy+bBIqVdTiEiIiK60A0i+G9Xih4UgdgLfYRLXbsVg06nGKq0kZdFqX9+lqJ7tEQT7HpDDaxEYLeqXITtGqf3KZkieOxtTIg8LfKQp78XKfG6WUq+qXc8Tjsutb/qHABa9maKQDFFKT8pJ1jJIC9NBJmO8WHMmyy3xFJtCcl1aMtNBLF6t7yJAF4Njjf0rsNcmmhtIJSrwbcMfD0F//XP65SpjxYozSK76mc8Bv/e5s3OHtxr8qPVvEHsC4sKlBY5bvVZiZIoGhO5DXLcwd6YNCi7nbbZTgb/z7s3WZx4LIMB9mVv9bFfEREREV2ovO/2090K0x4g8pZxcoKL/+1GJ2Iw9SY/OUHlh5CxIcBbHeivo4g7saxPgJg79AiQU6xGjoN+OlB40H6jcSc6q4HoyXo5Lo0dh6kwoaFVdv841YkaRGPqrbZRu5CbpgIHG9Aqu8V0nxK5nBcJ/bdt4zZ+GKcX6V42wbbWYc6bvx/8xX9BI53LzV+dKObZ9VwbjfySJEQ65U0H3VjAdEbT9ec/k1D+egZivivH+xAQVY63X0yA3mkjXHiZN5tuVK1LRymSYPiRyzZLPWdMwHQ9nDqLjQ6BXpSVqcOlC9bBAqSvbkD0k0mIdtrmQZqcjOPHX8LC0XJcdbAChXuikfADz/n0mqjLSG1dEhEREV3gvA/+rcG9CBqvcg36zg8/EWBWfNQB5x7tZpiPAnpHMCr+D4IIvlyaFqfM1saGI2gdoSZrQItL/+xuszUVAv7DNo4RIv0OEzpcutGbj4l0t/qpa7Ma1rz5TcXCp6agcJ0RVcfUJfag+2AxCv4UhIR7I9VFWPmN1iPyjjDnBkdPC1rqRAPjWnsqsdzwKQgR2zuQsMlTnJfliZd5U/VU5yHlZWDhM6KBMlJOHLIOFK/OQsNkAww/FI3HfgSdrkfhY/KeiuBpWJ7f4PFeg149qNluhGlJPGJEw+nchCDkXrEfnbHIcSIiIqIL25Af9dmfnrocTJuYjqr+o7B+BEF/RzSQn4PMHa3oUW+QPdOBqtXpyDoIRE6wX30YhylLglDzbDqMB7qtwXjPKROKM9JRjEjow2R4O2EK4oNqkJNhRMOp3iA23VAMROlhTxZ0aySiYUTO0xVoPSMmnO1Bx54cpD9tAu7Ui7VZUw1v3kQjQb+yAFuiGrD0tjEigB2D8bOMwFMlyJzdf3je8aYReUhA4uz+A+Sh8zZvJhQ8a0RnVAzGNaRgmhqI374U6ZtN1u1214HSxImY/5LnR8V27xJ1sCcI8VGAcc5Esd6JmJGUh5pPZAKtLVUw31+E5sPvozwvGuan5yNVe8Ovq+4aVKzvRPzsyIEbP16q6eSZfyIiIro4nJfgfziELMlG0eP+qEicgTHXi2ByVjoK6hpE7J2M6Ijes+uRq4qQPb0VWTHjMUYEnVMfykHpByIYu3shIu1ndv0ikVKcjamtWZh/sxrETsXS1aUwiWTR90fCETqPjUf2K0nwf2s5Ztwg1nn9DKT/sQYNIuBPjp7qOPM/rHkT4XHD+kQ8UB2GtRXv47AIYt82xqBzdRxS3uo7qOyuy8PKX5iQ8Jzh3LrF9MvLvB2oEg0csfl+Okx5NB9vq4H4qhCYkpf2uw2edaLqzULxbwj8wqKRuW0fmmtyEXemAA+syIPJ0ZoIQORPtyD/jZdgmBeGoIAQ0djKhGElULGn3nqVypPu/RUoFPW0MHq4Qn8iIiKii4js+z8w642ZOg83ZkrW+e43l/Z5M6m3TssntDTk9vuUGYv1KS4WpX17kvvTeRwstmWdblfKf6o+Zcb56TwO/5LpTtYruW5P59EYjry53gAstRTG9fk0Got9fW8M8JyZfm741eqzjrzMm+3zBmX3aTlBan5BvcG392k46k3G7jfoijJ2uqnYNh5X6HRbsKKcLFdSxPTMvZ4qrJd1HX3eYD5MN/o62G461t5wTURERHQh8/7M/xW9fd6/UiMDEBDQjYrnc9BwbyYM92p7mvfyCxDpRtSj8Fel0KVmIincU279xLIC4N9QiPQ3dUj+TRL0npKNsKXr3pGLnAMxyHwyxql/u8Nw5O1UJ6oQAt01clwKC5sCHDTB9T7YnoNGJCYUICCrCLkD9Ic/Z4PJ27ypCHPp668bLfJX3dnnWfj+TLnJ5R0S39ZZr9B0nBpyXzJ5o68eC+88xxt9HWz3eYQE6eQ4ERER0YXN++A/KAT6W4Gaj1xuYLX7jwARIFeg/iNtL+8edBwV6e8N6e1a4yACy6eX44HF6ajw1Jdbo3NrFlL3RGPtUws9LMeuBw0bs2BEEjJ+MqXvhkpPA4y/NQIrM5AyvZ/mzLFSZP2iCtHPZWBhP0/OOee8+flBj3q0/N25d7ypqUqU+TgRWMoJqk9KkRJvRM+jBSh4XH/+G2Ne5i0gKAxBO2pgOmUbt+lBi6neqe79Roqgu87+1CTpWAdM6n0Ujg0NQtDdQNUBkxyXjraInGjSnRX1uPgB5NU572/dJ8V/1wR4KBt5o+/dCYhxeerTkJ3qQOtBEfx/m12IiIiI6CIhrwB4xdqNIzpXqffY82KQL/mS3Yh0Yoh/rZ/uKyd3K4Z+nh3vIF+8NdALxZo39PfseDv5UrC+Xj5lNyx5M9u6ILm9gMxlueoz98W6In+zW2m3diPSDr0VYvmsWdlXs882FKaI8o1TsrfL8UazqCWbrlY5TQzla9SXfKUoBfbPtdrz6WXelHalRKTz+HK0Bs3O4uVLvmzdmjy9HK3E0YXIsb9p8mbf3zx2DbLsU7LFulMq+t8/FLPIo7pfevHyLut7IvTZyj6P3wciIiKiC8+ggn/7i6xintnn/IIrhy6l/oUUJSbCFtRPnZei5Nd47n1tDxjVN9Hme+yfr7Io9WtEg6OvvvkOYlmP9tM3367D9kKpvvrm21lqs5VZfd43YDeMeTvdopQ/31tu+qh4JbO0xRGoW2kaS26Dpo+7rf+9hzTqoEln7RvvKY06aPvle5M3lVM6vRL5kEEpqHXfSyytJUrmQ5GiYSDS6SOV+KwSpcXDztRVW6AY7OkiYpSU58uVFpd7Cjzubx7WqeqqUBtCri9Jc2d70dvAjYSu2v7v8yAiIiK6EF2m/iMvAnil5+NipCxMRU1YPJJSDUi6w3M/d6KLUcPaiZj/cjy21BsQ6alf1akGFK7OQe6fWjDuqQIUPdFPFzMiIiKiC8ygH/Xpd2M88vftQ/YdFhQf6KP/P9FFyYT6HZ3Qr4jxHPirjtag4EwksvfuwxYG/kRERHSRGfSZf6JL1rFSLL+tBNHvFSH+nN/+S0RERHThYfBPREREROQjLtg3/BIRERER0fBi8E9ERERE5CMY/BMRERER+QgG/0REREREPmLIwX/3x1UofKtVjhFd5DprULi5Ch3dcpyIiIjoEjT44P9sByp+NR/jI9Oxm4ESXSr8RIN2ezqmzXgAWbv4/goiIiK6NA0y+O9Aacp8LG+MxJa/vY+iH4XJ6XbdaMhPxfzbgxEcHIxpMakw1g29hdDzcSmyHp6BiWJZwRNnYOnTpWj1sLjuOiNSY6ZZ1xl8+3yk5teg86yc6eAhb/s75TyNM60ofXopZkxU003EjIezUHrIfaXnPW9u5daAPHUZbsNylB6TSSS3vBmKYRqgGjq2rsTEiemo8FAk6DbB+PBE2/rWNsiJLtzKLR3FTS4rPZCnybd2yBNbZ9eJ0sc8pbENy7dqM+hlnXojIBLJxe+jOW8K6h9+ADn7e+QMIiIiokuI+px/b3XtNCh6fZJS0iEnOOlSdqfpFV1EopJfUa80m+qV8nXxil4Xo+Q2WmSaQfisXEnS65SYp4qU3aZmpbmqSMlcKJY/L19plklUlsZcJUanV+LXlSv1Il19Rb6SGKFT9Gm7RY7sLErzuhhFp49Xcu15eyFRmSo+Z9jZm0pRzEr5T9V1GJSiKrFO026l6Ddx1m3IN8kkqmHNm/flZunqUrocg1lpLkxSIiMyld3aTfh7kRKv0+StplzJfUjNW67S3Fc1dJSI7XEtC5uuxnwlXmzr1EczFcMinaJ7vl7O0WpXih4U8xzlts/zNjTkKjpdolL0kXY71EGbMbNS8qhY1jOijLRpTu5WMsV29ebRvdx2v2awlnfSdrNMMzTtr8aLfSVb2TeE3ZaIiIjoQjaI4N8W4M16QRveanxWoiTqZjkHySJAK18lAjmnYNc7zRtmKbpFBUqLHLeyrkOv5DbIcWsAKJb/1G4R3veyiCBzlggySz6TE7p2KwY1cKxySqXUPy/W8WiJCDclU774XJxS0CrHrWzBqF4T9A5r3oZUbl0iD/HK1IdEY8MlgTVv+lzFKUQXDYI4sf29edNqt22fx3XVK7m6qUriH5vFPBmUewr+reWm3XaV2F9cGwsy+Hdsu0ee12OpyRaNiRSl/KScYN0m13KTgXu0cyNs0Cz7XBoaRERERJcG77v9dLfCtAeIvGWcnODCT4+EkrWIc+oJFABdiPjvZDcG24mi54wJmK6H0+JGh0CPTpg67F07etB9EoiZole7bDv4XRuCEFSg4zM54X+7xadiMPUmp1QIGSsy91YHHD28e3pgQiT0N8pxqyCE3AR0ftQhlmEzrHkbdLl1oCL5HqR3xGNLQRL0AXKyFDBSTAjyc1onRviLJQaJ/+W4RsebWVhZl4DcJ6NFGlcBiNz2Nl5arvcwT0OsU+QYfk4rBfxHiqyMcJk4oCAsfPE4jqdOkeOqbux+Mw94YiFmfVtOOtWJGkRj6q1yXAq5aSpwsAGtLl2hBsVvHPT3AoUHeUM7ERERXVq8D/6tAbQIB6/qI5j7dhgi79CrcadGB1oaRDg3Nqj/4NGXDbbcjjWgdHMHGl5ajgfU+xE+dm4ehEQnYGGnEcY/mdCt3ltwpgNVrxagYnISosNtaRw+KUXWz+qR8JwB0fag2kkYpkz3oubGzkLCD80wbiyG6ZQYP9uDjj3FKNgxBUl3621pNDp2ZOEB670BwZgY574Nbo5WoHizHkn3RfY2akRDJggNaDkqx6Vus9qUE+X2H7bxobE1+HDaMuhGKxEREdGFbMiP+vRGT3UhcvaIAFAbtA1aB0oTJ2L+SwOche1pQM7tE5G+p/87W3vqcjBtYjqqBroB9s3lmBhTiP7XOrx5s+u33EbHYO3hwzhcX47ksfVYuTATVWrAbSfm5xYbgA33YPz1IsC+YRqWHojElleT4ByGi7w/vRL1j+TCMNsW4HduXS4Ccu3Nt94KQkxOEQww4p6bxTqvH4Np8Q2ILClCksuZeaAexaYQGCoOo7mmCIkjS7ByhREN/UTZpl2FqLp1ISK1y5owBfFBNcjJEJ89pX64B90Hi5FuKAai9AgbjtbmJ53wrsaIiIiILg7nL/j/pBQpPzMiJCvbQwBIfRqw3PwQEBCAgO+K4PeZTBFwF6JE+4Qb9fPxOeheVIR9zWqAvQXZ3y3FAw/lwaQJsDv+lN5Pd5/BEg0Jw1LkdMehqKYZh5v3YcszISiNW4q8Js1Kx8ZgS0mBmJeAKd8NQNCN0UjOMiDyYAFqDsk0bkyoedOE6EdjnBsvfpFIKc7G1NYszL95jGi0TMXS1aUwiaKIvj8Saq8pIiIiInJ2foJ/EYCujFmJjkfKUfS4e7ePwQnBwoJmlC93fayoC78pMLzXjOy7+w9l/aYb8H5zNqIHiHhDfvgSmisSnPv1uxnevA2+3EIQMh0obbXftdCDmlczUXp3NvKfiEZYkBpgRyLhmWwkHMhBcbX9PHYnGqqrgEfi+ujuMzg9+4uR+eYsZOclI/rGIAQEhSFyeTaylzcg57Wa3rPn1i5OUxAyUo6r/NX7EUTE7vb4U5ue/RUwHoxH/Gz3cN7v1gS89F47DqtXQo6UI+maFrRONsBw/zCF/tcEnMMVKyIiIqILj/fB/xUuN5H25ZMqpK8QAey9RchPncK+/t4aoNy6DxTDmF+F/l8/1Y3OoyKQDtE5f35kGPSzgYpDLp9+dr613719mJhUIWcMTndnqwjfQ6Bzakj4IUwfDewwDZDn/thu9O1cEo3IPhsptish/g2FSH9Th+TfJEF/zhF7t9gm8Z9oPHH/JSIiokuJ98F/UAj0twI1H/UTyp1pQN6KpagKewn5z0QP0PWiE1VPL8cDi9NR8YmcpOE3Ug/UmZz73B/rgAlB0IcEyQki8LtGBLUNJqcbM3s+U5/gE4OQa+WE/1CfdVOB+o+cUqHjqNiWe9Wn70h+ftCjBqaP5bhVJzo+Ept/U4hYhs2w5k3lRbn5n25F1tMVthtq7c60wFQHLAyzf8K2TjS0OAfcp0xo2AVEjtXJCUGIee6w7Yy5Ztj3XIycPzh+I9Vtrne5+bYbptoqICoM9rV2bE3FA8mlznk7IwJtUequTwqyst7oG4TkH87qPwjvaYDxt0ZgZQZSpg/HuXrbDdeRQfa6JCIiIrpEyEd+eqX5hVmKLjpXqff48qMWpWCeTtE9VKA0n9S8nMk6ePiA9fn2Ir0Y4l9rlxM1fOYlX16Wm6VZyRXp9A/lKuUNYp0NvS/vqj8t0wj2dcb9xuUlX3qDstv+jPw+mEsTRX1o3xHQpbTU7FP2WYdyJVt9bv/PC+T4PqXFvjx73hZmurzky6V8reWmyZu93B4sUjzsAUr7a949s795g1q3A22fWrfq/havFP1dTuqDZW+myPvA6YiIiIguNoMK/pXT+5RMNeh9Zl8fL4SyBfPug8tLp6zalRI10NbHKfl9vAHY0lqiZD4UKQIxsQx9pBKfVaK0uK9Y6arNV1LmTbWtKyJGSXlhn2L+l5zp0KXUv5CixIjgW003dV6Kkl/j4U2wp1uUkqx4JVJsp04Er5EPZSolH7mvdPjyNohy62pWitLiRaNFnTdViVmVr9R7CHi7agsUgz1v/aRz5R7895c3l5eGnaxXCkTebOUmy7fWy3LTNF56NSv50f28VM6uw/ZytQHf6itf3KVbVe5h39Wwvu1Y7OPrmp1ezkZERER0KbhM/UdeBPBKz8fFSFmYipqweCSlGpB0B7tG0EXgQB4mxhQgvqQehjs8dA3q6UDVC1lIf7YCWPIStuTFDNBtjYiIiOjiM+in/fjdGI/8ffuQfYcFxQeGfisn0VfJ1FCBzluTEOMp8FedakBFQxCSSprxPgN/IiIiukQN+sw/0cWnE6WPTURJ9PsoWsKwnoiIiHwXg38iIiIiIh9x/t7wS0REREREFxQG/0REREREPoLBPxERERGRj2DwT0RERETkIxj8ExERERH5iCEH/90fV6HwrVY5RuQjDlXAuLUBnWflOBEREdFFZPDB/9kOVPxqPsZHpmN3t5xG5Cv8emBal4iJM5aj8GCPnEhERER0cRhk8N+B0pT5WN4YiS1/ex9FPwqT0+260ZCfivm3ByM4OBjTYlJh3N8p5w1ez8elyHp4BiaKZQVPnIGlT5ei1UODo7vOiNSYadZ1Bt8+H6n5NR7OzHqZtzOtKH16KWZMVNNNxIyHs1B6yH2l5ztveXs8vD3ZU94+9hyAduxIx3x1ncHLUXpMTnTTDdPGpbZtCM5Dg5zqzMu8OXSgOD4YEw1V4pPuvC03u57qLJF2PowH5QQH9cVdtjy5Dsu3aur1QJ7HNLahr23ux9iFyN+7D/t+4ofc+JUoPiqnExEREV0M1Jd8eatrp0HR65OUkg45wYlFaV4Xo+j08UpuRb3SbKpXyl9IVKbq9IphZ5dMMwimfCVGfDbuN0XKblOz0lxTruQ+pFd083KVZotMI1jzpJuqJL5QrtSLdPVVRYphnk7R/7RcMcs0IpWyO018NiJRyZd52/2awbr8pO29qRSlWclXP7swUymqEus07VPK18WL5ccouY2alQ5r3izKvizxWU25eZe33UrRU2p5Jynln8kkqn+1K+XW6XFK5lOJik6XqJRo59t1ieWpeRZlkpkWJ9LlKvVyVi9v89ar/Q25Tk/7yGflSpJep8Q8JctNlEfmQrXc8sXWeXC6XsmO1imz1tSLnLgyKyWP6hTdM7uVrq4u50GbuCHXmp+ij5zTNBfGK7roPtbrFVk2DxYp7XIKERER0YVuEMF/u1L0oAjEXugjXOrarRh0OsVQpY28LEr987MU3aMlmmDXG2pgJQK7VeUibNc4vU/JFMFjb2NC5GmRhzz9vUiJ181S8k2943Hacan9VecA0LI3UwSKKUr5STnBSgZ5aSLIdIwPY95kuSWWaktIrkNbbiKI1bvlTQTwanC8oXcd5tJEawOhXA2+ZeDrKfivf16nTH20QGkW2VU/4zH49zZvdvbgXpMfreYNYl9YVKC0yHGrz0qURNGYyG2Q4w72xqRB2e20zXYy+H/evcnixGMZDLAve6uP/YqIiIjoQuV9t5/uVpj2AJG3jJMTXPxvNzoRg6k3+ckJKj+EjA0B3upAfx1F3IllfQLE3KFHgJxiNXIc9NOBwoP2G4070VkNRE/Wy3Fp7DhMhQkNrbL7x6lO1CAaU2+1jdqF3DQVONiAVtktpvuUyOW8SOi/bRu38cM4vUj3sgm2tQ5z3vz94C/+CxrpXG7+6kQxz67n2mjklyQh0ilvOujGAqYzmq4//5mE8tczEPNdOd6HgKhyvP1iAvROG+HCy7zZdKNqXTpKkQTDj1y2Weo5YwKm6+HUWWx0CPSirEwdLl2wDhYgfXUDop9MQrTTNg/S5GQcP/4SFo6W46qDFSjcE42EH3jOp9dEXUZq65KIiIjoAud98G8N7kXQeJVr0Hd++IkAs+KjDjj3aDfDfBTQO4JR8X8QRPDl0rQ4ZbY2NhxB6wg1WQNaXPpnd5utqRDwH7ZxjBDpd5jQ4dKN3nxMpLvVT12b1bDmzW8qFj41BYXrjKg6pi6xB90Hi1HwpyAk3BupLsLKb7QekXeEOTc4elrQUicaGNfaU4nlhk9BiNjegYRNnuK8LE+8zJuqpzoPKS8DC58RDZSRcuKQdaB4dRYaJhtg+KFoPPYj6HQ9Ch+T91QET8Py/AaP9xr06kHNdiNMS+IRIxpO5yYEIfeK/eiMRY4TERERXdiG/KjP/vTU5WDaxHRU9R+F9SMI+juigfwcZO5oRY96g+yZDlStTkfWQSBygv3qwzhMWRKEmmfTYTzQbQ3Ge06ZUJyRjmJEQh8mw9sJUxAfVIOcDCMaTvUGsemGYiBKD3uyoFsjEQ0jcp6uQOsZMeFsDzr25CD9aRNwp16szZpqePMmGgn6lQXYEtWApbeNEQHsGIyfZQSeKkHm7P7D8443jchDAhJn9x8gD523eTOh4FkjOqNiMK4hBdPUQPz2pUjfbLJut7sOlCZOxPyXPD8qtnuXqIM9QYiPAoxzJor1TsSMpDzUfCITaG2pgvn+IjQffh/ledEwPz0fqdobfl1116BifSfiZ0cO3PjxUk0nz/wTERHRxeG8BP/DIWRJNooe90dF4gyMuV4Ek7PSUVDXIGLvZERH9J5dj1xVhOzprciKGY8xIuic+lAOSj8QwdjdCxFpP7PrF4mU4mxMbc3C/JvVIHYqlq4uhUkki74/Eo7QeWw8sl9Jgv9byzHjBrHO62cg/Y81aBABf3L0VMeZ/2HNmwiPG9Yn4oHqMKyteB+HRRD7tjEGnavjkPJW30Fld10eVv7ChITnDOfWLaZfXubtQJVo4IjN99NhyqP5eFsNxFeFwJS8tN9t8KwTVW8Win9D4BcWjcxt+9Bck4u4MwV4YEUeTI7WRAAif7oF+W+8BMO8MAQFhIjGViYMK4GKPfXWq1SedO+vQKGop4XRwxX6ExEREV1EZN//gVlvzNR5uDFTss53v7m0z5tJvXVaPqGlIbffp8xYrE9xsSjt25Pcn87jYLEt63S7Uv5T9Skzzk/ncfiXTHeyXsl1ezqPxnDkzfUGYKmlMK7Pp9FY7Ot7Y4DnzPRzw69Wn3XkZd5snzcou0/LCVLzC+oNvr1Pw1FvMna/QVeUsdNNxbbxuEKn24IV5WS5kiKmZ+71VGG9rOvo8wbzYbrR18F207H2hmsiIiKiC5n3Z/6v6O3z/pUaGYCAgG5UPJ+DhnszYbhX29O8l1+ASDeiHoW/KoUuNRNJ4Z5y6yeWFQD/hkKkv6lD8m+SoPeUbIQtXfeOXOQciEHmkzFO/dsdhiNvpzpRhRDorpHjUljYFOCgCa73wfYcNCIxoQABWUXIHaA//DkbTN7mTUWYS19/3WiRv+rOPs/C92fKTS7vkPi2znqFpuPUkPuSyRt99Vh45zne6Otgu88jJEgnx4mIiIgubN4H/0Eh0N8K1HzkcgOr3X8EiAC5AvUfaXt596DjqEh/b0hv1xoHEVg+vRwPLE5Hhae+3BqdW7OQuicaa59a6GE5dj1o2JgFI5KQ8ZMpfTdUehpg/K0RWJmBlOn9NGeOlSLrF1WIfi4DC/t5cs45583PD3rUo+Xvzr3jTU1VoszHicBSTlB9UoqUeCN6Hi1AweP6898Y8zJvAUFhCNpRA9Mp27hND1pM9U517zdSBN119qcmScc6YFLvo3BsaBCC7gaqDpjkuHS0ReREk+6sqMfFDyCvznl/6z4p/rsmwEPZyBt9705AjMtTn4bsVAdaD4rg/9vsQkREREQXCXkFwCvWbhzRuUq9x54Xg3zJl+xGpBND/Gv9dF85uVsx9PPseAf54q2BXijWvKG/Z8fbyZeC9fXyKbthyZvZ1gXJ7QVkLstVn7kv1hX5m91Ku7UbkXborRDLZ83Kvpp9tqEwRZRvnJK9XY43mkUt2XS1ymliKF+jvuQrRSmwf67Vnk8v86a0KyUinceXozVodhYvX/Jl69bk6eVoJY4uRI79TZM3+/7msWuQZZ+SLdadUtH//qGYRR7V/dKLl3dZ3xOhz1b2efw+EBEREV14BhX8219kFfPMPucXXDl0KfUvpCgxEbagfuq8FCW/xnPva3vAqL6JNt9j/3yVRalfIxocffXNdxDLerSfvvl2HbYXSvXVN9/OUputzOrzvgG7Yczb6Ral/PnectNHxSuZpS2OQN1K01hyGzR93G397z2kUQdNOmvfeE9p1EHbL9+bvKmc0umVyIcMSkGt+15iaS1RMh+KFA0DkU4fqcRnlSgtHnamrtoCxWBPFxGjpDxfrrS43FPgcX/zsE5VV4XaEHJ9SZo724veBm4kdNX2f58HERER0YXoMvUfeRHAKz0fFyNlYSpqwuKRlGpA0h2e+7kTXYwa1k7E/JfjsaXegEhP/apONaBwdQ5y/9SCcU8VoOiJfrqYEREREV1gBv2oT78b45G/bx+y77Cg+EAf/f+JLkom1O/ohH5FjOfAX3W0BgVnIpG9dx+2MPAnIiKii8ygz/wTXbKOlWL5bSWIfq8I8ef89l8iIiKiCw+DfyIiIiIiH3HBvuGXiIiIiIiGF4N/IiIiIiIfweCfiIiIiMhHMPgnIiIiIvIRDP6JiIiIiHwEg38iIiIiIh/B4J+IiIiIyEcw+CciIiIi8hEM/omIiIiIfASDfyIiIiIiH8Hgn4iIiIjIRzD4JyIiIiLyEQz+iYiIiIh8BIN/IiIiIiIfweCfiIiIiMhHMPgnIiIiIvIRDP6JiIiIiHwEg38iIiIiIh/B4J+IiIiIyEcw+CciIiIi8hEM/omIiIiIfASDfyIiIiIiH8Hgn4iIiIjIRzD4JyIiIiLyEQz+iYiIiIh8BIN/IiIiIiIfweCfiIiIiMhHMPgnIiIiIvIRDP6JiIiIiHwEg38iIiIiIh/B4J+IiIiIyEcw+CciIiIi8hEM/omIiIiIfASDfyIiIiIiH8Hgn4iIiIjIRzD4JyIiIiLyEQz+iYiIiIh8BIN/IiIiIiIfweCfiIiIiMhHMPgnIiIiIvIRDP6JiIiIiHwEg38iIiIiIh/B4J+IiIiIyEcw+CciIiIi8hEM/omIiIiIfASDfyIiIiIiH8Hgn4iIiIjIRzD4JyIiIiLyEQz+iYiIiIh8BIN/IiIiIiIfcdn+/fsV+TcREREREV3CLuvp6WHwT0RERETkA9jth4iIiIjIRzD4JyIiIiLyEQz+iYiIiIh8BIN/IiIiIiIfweCfiIiIiMhHMPgnIiIiIvIRDP6JiIiIiHwEg38iIiIiIh/B4J+IiIiIyEcw+CciIiIi8hEM/omIiIiIfASDfyIiIiIiH8Hgn4iIiIjIRzD4JyIiIiLyEQz+iYiIiIh8BIN/IiIiIiIfweCfiIiIiMhHMPgnIiIiIvIRDP6JiIiIiHwEg38iIiIiIh/B4J+IiIiIyEcw+CciIiIi8hEM/omIiIiIfASDfyIiIiIiH8Hgn4iIiIjIRzD4JyIiIiLyEQz+iYiIiIh8BIN/IiIiIiIfweCfiIiIiMhHMPgnIiIiIvIRDP6JiIiIiHwEg38iIiIiIh/hu8H/2S4c2rkBZR/KcSIiIvJNFjNqXy/EXrMcJ/qqmfdiw6ZKtHXJ8b58WIa812thPivHh+BrDf4t7QdQtu0A2k7LCV+V9jIk361DeMqf8bmcdF59eRKH3qtG2XuH0fWlnEZERG4s/2hC2d5q1P7jjJzyFfm0DjkbfoeQ7Gz4ZRejVk5GY7EYF9PW/A4rthzgMfwS1HUgD7HjQrBozSFY/OTES04XDm0rQ9mHA0WW9LUR+15XySqMnzgXaRVtcqIH/hZ8sGYRQiYuxoYmi5w4OF9j8G9GWfouLF60C6tK2uW0oepC7aY3kFfhxXLaN2PZjMX4IGonzH/bhoRb5HSpdrN64M/G4rfV5n8Tcvr6Iehz0KS1+/t+PL73L1i8txQb/ianXRDaUblFlNuWv6Cf3Wxg9jLZ3CQnXDjMbxu/+rzZyyN/l9jLv172/TmnUU4gr3w15SaOW39Wv387UNstJ/m8M9i7ewcWv/cXRJXXfYXfnyPY8MYeZHx+Fld+0x93XXkV/OUcfPMqMe6PCTiLwtZdWLbzXH+vhteAv1lD0obK9FiM9/ODnxwWv34RnRLvqkXh2jxUHpHj/bDU5SD2+2sRmNGElr+uwdxAOaMvn27GYlEeOXVy/GvWVpGHvE214mgygLoNCF+0GIu/l429Q4sXh13tarFvxW92/p6L+vDzy5H7by0yNGVtqUoT8+aiUNar+fXF8EssG8Jx4jK0bfsGovy+KZb3TWz+VE52chm69n8DK+60pfG7+ZtYsXaEh7PtV6B27TcRJear6caL9HnVV8h5GqevwOb0byI8xJYufOE3sPlDlxA8cCYM2w+j48XpqF04BxnVfVTUDUuw6a/NaPq5P1bfu8xRHoPxNQb/OizJXYidu+ZhXdwYOW2oetC28wjSmgba/btQ+fyTeGfWJmz67UwM9B33SP4QWAf/EWIrhMtH9E7T/mjY3Xgfdv40CeafpsBwq5x2QehCY6sot9Y2HJdTiOirIo5bR9XvXzva/ldO8nkjMTf+CZhXJqE78W7b8fWrcOwI3rH+zo7BppQUVCbfh0nWGcLN94nxFNRFXWcdrey+9M+cmksyEFsUiJR3D8NsNluHjbFfWW2cuzNq4yUNjSfkeJ8aseGXGUDGG9i4fIL7b/dF4HhTGtJ2tomjyQCmr8Dhd3di51/TMfOi2VB/XB0OfPQPW3jffaINC2IDYJb1evRImYivggd3nDh7BcpSv4HxP7sMET+R0zywHBiB2Lsvw7H5X6L6/X+jOlvB53+8HFNTR2gaWpej8dkrEJUH/CD7S9S9/yXWLACMs69AcoU2vBbrfOIKLNuvIPnFf1vTJd9wGZ783gjkNV0m0/TSzcnCpvwJyHmov4ZaICYs34hXlr6HFSmFgz6B+7V2+4FuPGZGhSP0Kjl+vh3ZCuPG0UhdtQShcpIrEc/3T/4QWIcl4bhdnfatcGyyT9P+aGj4fysQgd+6GA8tRERfoW+ORGBAIPy/Kce/CqN1uE3+2devov+APw5fj/ORraOHNwORP8D900MRGCh+u9ThEvz5slRvxdq6BKT8OOKiDPwHJxCh02di5i1DOu35NRmN4BtFPVm+sI4dPdKG0df7y8aABZb/ARaMCbbO07JeEXBcPXBmLrkCT3yo4PV9/8KaxYqc6upy7N10GWp/8iVef/IsIsL/jYjYf2FToYLRGy9Hpf1KQdflePnXQNKLZ2GIPYtJ4WexIPUsNon2pLHo8t4rEk2XI7sIWCfSJcz5tzVdwu/+jWfjgLUVHq4SCKFLU5BszkFZVX8nG/wx89Es3KXevzrIzg1eBf+1q7PhF78LjVXFiP2e+NsvG+EPb0ejS199a7rVB9BW8Qpib7ali03fhUNO6ZqQI6ar8+yDp8tn5teNYl4xKpu2Y5l9nQtfQaX2imtdsVxGAZaViPGsHXLc83K7DjWhEjMxabyc4MFo8aOjuu07altSHFXVErp8xJAODI4uJ47BiM3H5EzJdsm2GJv3vojxIs2Kdz5Fm/w7/I970KbtX9p9GJtfXY/wNbblha8vwIa/npQzvdebrx0Q+6jQjijruG2wXT6WzhxB2eYXESXXGfK7XO/6vR7bg2XqZ9aIbdZcUutq2YW09bJf7ZrfIbZgO2r/W8600ly2/rRapLWtd/z6V1DWPvS7W3QjLGjcZrSVnVjvMu02nKzGCmt+XnFuZbfvQKw6/flSNA6xn+/Rd8V3QZZd7KvVaPunnGH33wewoaC3Tsc/vx5pbx8Rh7Ve9vpavPND7N283rpvuG2D6stPUWnfP9T+yX8+4nwpuLsayeKz07ceto7alpuLwqPqWBcq/yg+91+7es8gDGfecBbmhjew4nnbsqz521yNQ0Pt1u3yXRj//IvI2eucN5XT/iaGqD+84bK/CQOVm90/zdi7pfe70Nc6B+ToOiiOW9buPl1Y9rJtmdbBqYuae7nFviqOqUMpt2O7sFhdRr44lteKY7ncjvAN2jIxY3O+bbq2y5Ojnh3HhuH+ntqXpxk8ddX7sguNfy5A7O9606n1kDeE4+Bgmf/b1jfrrm+dQ/Ak6z7nbXHMEeU//g/iGC/KT/075Hcvokzb/aD9L8j5w+9s3yl16KPuh+03S3ZnUbv4RGWJ8ZJlCJHj7t1+ulC7dgWibrbNG3/nCuTtd/3WiH0pXv3cITTmL0N4iEgbEo5la7VdVGpFPOCHnNfLsEIsK2RhIQ61y7/npPUGWVLX/g1IXhhuy5dYVmz6Zqf4wtqNRJ33n8tQJsYz7pTj1sE9GDzUVAlz9HRMGiUneNC1P0/EICHi8yEi7tngFveo+u6+stjp98+abnWtiJHSRIyk5mm82zZYnT6EstX9lO8g6soWCPfOc8ungxd1au/ytLMRGx621UPI92L7759+TnQIvRXimKL2TTDj+MehiJh+E8xdamOgG8dFPDhaNEw9El8Hj9+BG7/EuxX/Eo2GvgJ/1WXoOiEaFtMVp2X4X69YTxy3/cM2DvFdVEO6iFudfogx9gbxX8llsP60qsSPRCMUEXtq1/lv67aZD6pb5oH/TbhNNA6MTYfkhD7ccJOIahvx3iHPtdoX78/8f9yEjIpAJBnnofqNGzCh4UPc91S1+4/kwfeRVzUKSYW2dCg6gNlO6W4RrZkkmNXhr+FYIKd69imyX7DgfnWd28Nx14lPEfuQCMTkXNwwHTt3zRbD92GIFuPLb5HjtmGBWgEaPafVaroa/v0cFf38tKdRRiH0W+I/cbAfbZswOOKLYe8ONKHfkjZjq/j2B4s0he+XIE3+fei/67DZfo+A5UPkFJRimXoTnLVPqtiIL8xYtfMV8SM9yEjAka8RjisgETKf6hDqKAMzyl59A4uPnsDRy23zxn5psfZ7jS39sJ+gR3xum8i7+D4smbYQS2xXy2E5+AZiSw4gT3xvb1bX9U3gA/OHiPqTCCDcNuEMNv/5L6j9UqQT2Wk78ykWbxFByqAjLZvbu5qxqsWC0WLbQr88i81iGx6vkl+Wa8R++B3xvwgC32nuXUHb3z4WjUXxYz9hMiZ5/03ROILc98zo8bPVf+U//oLFpU295abW6Z92YZX5DCwjbOXrf/YM8kSw9/g77l/k7sNVePyTf2OsWm9yG2K32QJ5VeM2Ub5i/zgkAoC7xHa2HayAsVPOVAUEI1SUeeMXtl+aY91d0F1uwSGzmqNuHFMnf/sa2z4xzHkzv/MipoqGQ+FZ2UVuxFnR6PgLZotgxqmB6w3Nd+FzuV/6nz2BjPec8+bY386cFfkS6cS21548gqgC0cjT7G8DlpuV2KcLCjCn9QSOy/IItq/zbZcIZSCaroP248IEcVCyT1O/l3Zu5Xb5WbEfHUD4SzsGX252/zyEjOpPrftlhHqc+VyUyZ+G2sAdru/pCATat1/UU1/MVa9heqMZHyAQyWE3YM3YURgr6iFNHAfzBviN7JfYZ23nFs/C4tpAd3X2HB6xIe09/De0qeV1sg6rttn+NovteOI9+fg5i2gMbalGxsmzmKAbgzViW5O/Zav72a85/+4O22/WdQuwUXbx2fakGI/dgCY57trtp3F9LKLyjuEH2dWoe78aaxZ8DuPdEz33Ud6WjezT92Pjm9XY9tu70JYehdj1zjfTvHfEHyteex0P/mMFHl/3OZYUvo6EL/KQUaJJ15SH2LtX42hEFt54vw7VLyZh9LZlIr6odJTHhLid4rdfDMUG3CXGE34vx63DAkywJXOwnBbLD7wSV8pxN0cKsezuNLTNzMK297dj01I/vLZxq5w5RAdzRYw0QcRI1SJGShAxkvM2qEF45VOzsbjSH4/k1ony3Yms6DasvTsWefb28DV3IV1u17rlYjzagNcd27kT6ZEBtnSCLnajow6t9dqHwdTp1mc2oCtuI954dxuyZnYhb+Gy3rwNM/+rJgHHu0SpfIHPj9+G0IhQBJjVxsBRtJUAwaPU4N+Cxk152Fxntv6+BowSv2KRodbvgOXEIVTmb8Be2VVIN/ksQrVfmQuWreGD/7H0E2upxiJUNBK6T9uOYN7yPqQZNR5r1s7D3OnhiIhdhI3Zo2De2IJa1+i/6zqs0KTb9HvXdCPgb7+MGDhQDQQiZfUi0foSy5ozD3m/H49Jde34wH5zw6gbMDNqshgm4Ca1/q8fI8dtw4R+WvN9CbzzMfSkp8Ng7bujw5KV6ehZOXtwfcok3Z2JsitQPNLVA3Kf/HF/bAqq7xkjfoS+0fu38MExWzBjaTyADLEH3HXzIjRZ+6SmoOlHk0XjyYKM2sHdGNebr9kQhx5B/LhYx23DmjuvsU5F93F8Lsp4zcR5aP6lbV71T6OQJGbVtjb1NsJcmN8pxROfi/VcPR3P3mUvOQtq/3oEtWJb18X90raulF/i3e+JirO0w/i+65m7LgR87wlUq+l+Ho8NI8Wkf7Zj78e2uYNV9s8x2PRzdRt+iaY5Y6xds8rENtjKLRAzJ15nreOcQ/bgvB3vtKoR4kgsvnWI96R8EYCUn9q2tWlROOaKSY3th0WQKZm74f9dUb53LMJha95EurhbrD9amz+y563XOyMmYKfLNtT+/UNZD4ex9+9qzjXl+/MY/MApoBOBgVqOXSfFsk+i7YQ/HhwdiLZuUfaW4zgkjh0LrpGXUIc1b+3Y0dQlPqPDNlkelT8XdTtmBMyfH+ht4HrJ/l3A6Ci0yP3SXr6b/7pfrtO+vwFJM+37kW2daiOv0LG/eVNuwtED2KA+Gkyss0mWR/VPZ8MgAtXedXrJ0XXQflwIRPoS2zKtQ6z9KQT2ctPm7WFsUn/XzzQNutwcvvgGHvyRbXn2bYDlCPa22GYPznB9T2/BCvv2R/f9fTt60vZDsvKeJKx5YBGSlzyGsqXzsPOeOzHzW7Zvrtf+uxppebmYqw7P70KOmLTg5smI6KPxofv+95ElosR3/vaGCJLk516udvsueCNg/EJx/BNlL/72D+v929z5qW15n4sGjtoICZiMPyTGI1ls65oVP0bTPbPxyqTr1RQOw/eb5d/bxUeNhkdciasdv9VicJw0a0Tlc7VYkL0OhtgITAqPwILUjVizzIycylq3QKUs+EFsenIBIqZHYO6yPKzLnoTaP+11+s7433CbWM4C3L9ABHPT52Hm9AX4gfhCN57uXVqbiPfuz3/DtqzwSSImWCFigmQRX1Q64ovA8TPFb78YIm6C+jUJDZfj1mGC+KYNjrmhEpVIRtbqBMwV65w0JwFrFt+G9+T8Iem6S8RIYnmiPCJiDSJGSnDaBpxuQ1doKra9mIeEOWKdYhuWZGwQDYBavFYtS81fh0lyu6y7Q+BNuN2xnWLadZoznP6aOuyzlTO4Or3t5znWdBHT5yJh7TqsCa9FZcMQz/67XLXwu9PWH8FutE4E8ie60IPj1t+QYH9/+H8s/rZY8LmIgELVnyzLIdRuK8STd4Zg3PdW4LXTo7Hkhi/wzi/nYtx14Yj9rz/jUPsgjw92lhHIuPmbSN7Zf7hs2f8NjA/5BipdY2IXbUXfRMid3+iNAwbSfhzePA/iHWuDyHveB//im3+1/FMVGKwe5c+iy/WMrWu663W4K/oK9d62IRgpWnXyT9WoqxAqdkP7zR6XHG1tuNRM9//YCvpvLdttPzrq8KYMwL889zNRHgWEIyHqFgSfbYLBvs4X9+PPcrab9l3WNLPfFwHL5YF49l7tDXvdOG494WyB8S25LDGsOGj7pljczqZdhZtGq/uYcPkY3BRk+1PsckPzbdGKlmXqP1oEwbY/HfynTEaq+qP/aTP2qt+09g9RZo39b8RdQ70f/cpRGCs3AWOvs90fIurKcQga832siLgeAZ9VY7G9fN86jL5iugU33OK+Df+0nxUQ/1vPWIofhRutE0S53YBJTt0hr0Go+n3qPoGjOIG2M1fhrtAAlJ0UB42T3dbuPhO+Iy/TDGvexP5gPSlhRvaLcll5f0Dmp7IyB1mn9u/CgutuEOGKNHY2Xl+ZBPOjc+Q9N/b9LRAR1haPaiTGfsd2g1Hv/uZNuQndXXhH/d+8Hwvs5fHiuyhTF6Ot02FlLzdt3q5D6Lfl30P9LnzrBkTIasbI63GTNSAQ2zCkjRjm7+kAggNs6yr8SzE2v3cAtUfMsIwKx0zx/XUKeLxxtgdtX1jwjjqI/OpGBOKusNDefcrVlddj5vWB1qs1tfbP/e+QfthsLh/Re8ZZ+7fq6gDbVaH/+RAZ26qxt+Ew2v7HHxPEds6ccsOgg9jhJXYU0UK57UbtUTQQweqop0BlVKBTmY4WAfpdowZZV0LonGQkL49w2nb/q9Ro45h7HDKc4m7DTdrsXh9qO5YPlQjCnWOkSSJG8uuNka6ahCWpyZjr1D35SlwpNlzbGBpeg6vT0GBtLdj65Q82+HRwucJk3q42g3vpQm8TDYQ2HP20DR8EX40rdcG46fjn+EL8brWJdQeqrTz/SVhR2oSOk4exPXcJrmzYis37RXg934DtLd3o+ds2rJg8+H3uUiZ/rs+jyfehckci5g7l1Dm5MZ+VPzrW4eyg7/AeFLXffsF2LPvbpyj0Zp0iCFLTHFLPmo4IQKi8gODqkIgyHNsw0CX2r8rlt2DBBPXgcAJlH5x0dPmZGyaCWmuC4ad2S5nzajVWHDWjzF4elrO2M3+eiADBYbQIdtPT0ZMejwg5yRu2/sEiMP5YPXBeg+AbRmGBeiXgv8V2i5/oUPmrdL7y5gia1GFYA8QR8BfbFiiDw/NG7uP2wbqvX2zEUb830JRnih1nji9soXOWojpMBJP/045le3ch6o0C6HLV+6N2DP4+CMd+Kob4cNx+tgur3qro8ypOV00polq78PnoKJjT5OeGeFV4QP7TkR43GclXWlD4t79gztulGJ+/Hn5r1iOn9vzf33A+6WLWiJhghccHY/SrvRJp943vPUPs4SzxRWnyClEeazQxkqX3HgnHtobY7mu8FLleYXK9PDFKh7vUTnknxG+W9ck+wQi9yozjx9vwnvhbfKTXVaGY4F8L4877sWnpIRi3WRA45hyDfv+zyPrbP5E3p/+Dvf8d/8Lhjn8N+KjY0KX/RMe7/3LrgtYn0Xj25tUTk64a3Hae/+D/QjLi4m/5LZiSaPvR0Q7n6Qeorfmgtd/+pDGze3/s0udBvb/Io7HzxPwnsFM9q/jPdmRXeXoediA2PaLJuxxev+frbx2G3jre2nWk8ONqlB1VI4lAPDhpqKf9B9bYbOuWsmBSfG9ZPKJ25Tp/dN9RT5OcRlvrSbw3MhCjrxGNtO4TeMd6M+M1GCs7Cp+fvI1BtX1ZmmF4gs6zsHR3oav7fJ4CFKz7uOs2DK4BRufg8msQ8UASmtTj0RNJMD80DxtG++PQfzch7d1zeP7+mOtsT/tRr+L08Rvf02Nrrd4++gYEfgW/nP43zsaaJ8R2pqXAvDIRTTNvEMenM8iorrhgntP+1TmEDQ/F4rVRKahu6fss8WD5j7jwzkp27TTgvpQ2LPh9EzocZ8SbsCFWJvA1/lciQNR/28HPEWp9ss+V8L/qA7Qd+gLmuFCMtaWyad+Mx3+Yj9C0B7FkcQoitsRimcv9JRcP8XumXkwJFg0i24Q+HMPxj0X8ohvcXT7eH8K61P5VvbqOqz+yIxB4nk+0DSfdjbdhEvbioyG8EOHrFvAtW0G3/fc/ersYfFqHDepLut7u7+ZbL3n6wTv7b+t/V4sg0fFj96l6s11/RmLmPbYgsfLgLlQ6TlIFINja4+I0PjrWG6C11W5HntiGzQfPc9B2yuy4QdJy7ITnqxdjpiNBvVpx8jDWWmPhmzF30HfNecsCizzzPTqwt29bn3kbkL98NKIZjfb+1l8eQaPrldjvjBJ1cxZt5i40Bl4DnX8wJlzZjT8f6bLeiGrr1zvceQuEznoypxttjntjz6DxbfUFV6WotD85wUv270LZp0d6nyh0dBcW5xuh++NOeebWvr91obbNvm+dwdH/tt3s7D/CfqXCy3ILCLTe76Ddj3DmQ2xWv38l5/iSPPzL8/fPUW7avH2KtlPy74FumRoSHSbIrjsfmO2VdUZ8Z23d80b7fZ2vPzVj7zb5UjT1uKIel64PR8JEWwA3bM/f7+NX0X5j7XuisXy+WVr2WI+Lee+KH6vL/REYIOrl9jvwoLrrf3kGx4f6avpPK5EWPxdznyg7h31WHCREkX/wsXYJXTiujorgrPdW02F04hAa64CE5SsQMcZ+hjhQfI/P7Zcv9JaFQMkH+Ki/xbjO/4d6xtmZ9abUri/kTeM2XdYCmYBQexc7L7V9+GeYY5OQEDsBOsfZcFHmtkPXefI11Km3rgsVDfM21NYdQmiwGvzrEHxjNz44eMglbxbs3ZCBd2Y9i6w4sTFXzUS6MQlHN7yMykF/ZRWoP31ldZc5xVaWf1xm/d6E2m+7Ed9HNUSoPag9aFyOo2qMGaf0NkxE8U7CZWg8rH2m/xWiQSO25lZr0XvQhkO1wF061z6oLk6IdE0iT6MGV0veB/8nDiMtdQcq65pQKw7Aj6efgO7xcYgY4BKHm7Nn0NUlWjTWwRZhfOEY73IEHYMjDowR4sBc1oTN1Qew1zp8COtDTLTCZ+LB8Hew4XX3G1iG34fYYO8bnFeM7P9Rp3Uhe7OcNsgbxfwnTUaW2IEa23ch/HnbMsL/tAerWo+gzS9Y3beG4HpMsHbNacciuUx1sL+FOHSs7cZN9Qa38Fx13u8w/o0PB34h2OjZSFe70Hx5Ahlv22+g9UfE925AhAg8c3aut90wl/s73PnOh0g70o1Ae7/h82QBjmCOdRt/h/Cd7dYAce7Y8S5fumswd9J10IlATK2bhHG3DtDiPhf+mBRiC6yNe3vLI7x6MHuF1njM/E91L7BgVcnvbHX5fAX+7PoNH32N9XKj8ZhZ3twbgNFXdeEdtbETIJ/0M+x5G4N54SKQFfv/sj/Z87Ye0xuOIO0TIPhamcxL9u8CjlVjov278Ib6GF9gyffukN0J7PubZhvEOqPUx1Befh0Sptn7pHlZbmMnY4XaJar7AO6U64z6r+1YJr5/Wy+3l9tgieOWTg0oz/SWixjS3rW3mO3lps3bK7bHg44Mx5KbbamG26Rbx1vLreyvrzjKbY7aDvC/AY9MOz/fCPO7BY7tn2u/YijvIVIH2zEpAIH/+hRprU1YVGBEmhocby5A7Nu29EnXOt8IOyjWmwf7F/h/bMco8zA87Wcg/t8SgdgR8f3Y/wZiC4qtDYG0DcV4Uv0d8Vf3G1u6wTLXFIrG6jt4Z2Mh3hnySbBJmPuLCJSlr0LOtlo0NtWi7NlleGLTJGQtOE/Pyx81AZOmA4VPp6FwZ6NY515Uvp6D5Gf3ygQurpuA28OBrWWbRSyw1zYcsD0JRitw+kwkIA/GbZ6PbbopoqEk5mc8VYjKJrHenYVIe+k9uH71JsWsEPttBlZkbUatSFe7LQfLflaIiN/eL49H3gu95QfQbctA2toy27Kqy7BhZRpe7iOAnRCeJBooW/HaTrmdYjikSWvRxFfWJ2Se/QKfO6bZS+RrqFOvBUMX3YjSskZcLe86Dx4TgDax/+qu1t5P4o+Z2YfR8Yfe9zgFxuShozkPc3vPYcHy6RWijEbYBvmEoo9q5fiBK+Q+8iVmLlMQ8cLlWPzsCFEPV4g6/QaWJVyGY49/ibn2Bl3gl3jkt+I35rERotxGiHIbgbK1I7AsSxyPln7ZG1+Ef4n0pcAqka5w5xXWdIW/vAJPlgCpMbaTrK4sVa9hbdNcLJ7Z/69L27ZCFOoM+MEdg6sl74P/G8ORHn0CxoQdiFp0BIem3ILtq6MGHxwd2AadzmgbvtdkfRZvzn1yXAx5B2zJBmtS4jysm2DGk7N3YY51eBfvuHWNnIQV2ck4lpWG7H5fnDAczoovmnvfYEd/98HeKOZ/CwyJC7Hp+pHwl/3+caUO6+b8GHn2p/MM2jVYcP9srLlaBCCaewm67P3wb74Pr99+HeaK2Wq+j10u1rfoTvxAzu7PpNnfR7LYuxqPVuM1+bBb/1sXYZvaj3XkCBxV1yXWc5vuFlQnPoa5Q90Eb4XNxuvj/HGs5yzaLh+BJWJ80xz3Lj3+t9yIhda/RmGu/vxmKvDOH6Lu5lHWxy2qfeG/GDker9879HsMJsWK8hX7xwSx770jtjP01hgk2W/AtLt8FEJll0rbc8ED1auKMIv9c5JoDNi/z8OdN91dj6H+nhuQMEL2mT87Agljv4+mHy8c/GNUNd+Fq7+07bOWEaOQdfsibHQ8Xcrz/hZxzQ1if3sYMzVtTa/KTRzGFyQmYmfYKOvjbtV1Hpfr3Hl/Py8OGcCkubbtUB+Pav/+tcnuJSq3cvtyBOZePxlNy+c5brAedhMWOpebqKu56vf0R4sw6XxFAT09ju133AekKRPbMUk0Shc+jGpRBzeLhmSe+nbyo2YcGjESyVMWIWfIx0Hhf870ntTweBVG/BiLfHxlRt+NjWodfGsEDpnbRYPnCPJEo+9mdf/90RC+M5Iu4n4sEV8R3cy7cNsgz0hrTXpiG6qTR+PP6VGYPi0KaeWjkbpnJwzTz9cOMgErSquRqqtExn3TMf3eVTA2hiI59X4535X4rX9xHSbsfFLEAnNsw/PveLgZeQEM+XNR9ssnUXjYQ/3ekIBNe9YgdG8GYqfdh2VFPXjw5w+6nwlX0/0lCxMOZCBq2nREpf8Zo5Orse3JSYMOnAPn5GDXKwtg+eNi67KW/boSlqXpSLLf9O8iMCYZ21ItMN4nt1MMZY6GnRllK3UitrINsc+KSdtWIFyO61aWOU5CfvV16q0rcXWw2BLzJNuTfdQp/v4o21aG28d4uDRvu0DXy2W8u+YKUUaX24af2c7E58TL8ecvc+wj/pPPYtseBaPLLxf1cIWo08tw9aNfon7tWU3c+yUmPflvUW4Q5Xa5KLfLkSaC2qRd/0ZejPZA8m8sWP9vbLrjMuQ9doU1Xd4RBc/+9SySwz28b0DtvpSQh7G/zcKDLo+s1+raLxqZKz/AktyVg35r82U9PT39venASn15V9TByegoPk83N32lRCD+0uOYvfId3Lw8FYZfJWPmORwE6RLTWIyQP7fD/J3vw/zoEBq3RHQRUl9uZnvpmm6EP27+xg3Isb+t/W/bMXfXERzrsZ3ESbrjXE640IWnC3t/HYs5zx7HgtQspGcsOX+NXJ+gvrgtSr5A1IO4TSKWXHIJxJLngaUNlWvTsCpLtCCWvY6df1jg+YTbiVps+E0mVr/0N9z82zdQ9uTgr86cr3NHFzB/TFi+Cc1/XY+ZpwtRO8j+xnQps2CvSQT+4q/kW6cz8CfyGTosWXof1l0zAldar4Ke7u0i8s/T1qsPhzAMVxjoAhSImb+tRseuFIz+cC8OXdwPU7oARCDZcaOyhyF/AQP/vpysRVntaKTs6sDhvgJ/1ZG9MJ6eifV/bUblEAJ/lQ+e+Sfqw5m/IHl9NYy4DjtTHh70ZTQiIiKiC51XwT8REREREV38fLDbDxERERGRb2LwT0RERETkIxj8ExERERH5CAb/REREREQ+gsE/EREREZGPYPBPREREROQjGPwTEREREfkIBv9ERERERD6CwT8RERERkY9g8E9ERERE5CMY/BMRERER+QgG/0REREREPoLBPxERERGRj2DwT0RERETkIxj8ExERERH5CAb/REREREQ+gsE/EREREZGPYPBPREREROQjGPwTEREREfkIBv9ERERERD6CwT8RERERkY9g8E9ERERE5CMY/BMRERER+QgG/0REREREPoLBPxERERGRj2DwT0RERETkIxj8ExERERH5CAb/REREREQ+gsE/EREREZGPYPBPREREROQjGPwTEREREfkIBv9ERERERD7isv379yvybyIiIiIiuoRdpgjybyIiIiIiuoSx2w8RERERkY9g8E9ERERE5CMY/BMRERER+QgG/0REREREPoLBPxERERGRj2DwT0RERETkIxj8ExERERH5CAb/REREREQ+gsE/EREREZGPYPBPREREROQjGPwTEREREfkIBv9ERERERD6CwT8RERERkY84P8H/qVZU7KhA6yk5TkREHvSgY38FKvZ3iL+IiIjOv4GD/wN5CA4O7ntY2yAT9mp4eQaWJy7HjP+qubB+0LobUJxvRNVROT5EnVuXi23Pg/uWf/2+lrwdK8VysS/kHZDjX6OGtWKffKwUnXKcvPPVlFs3GjYbYdzVIccJxyqQFbccy+PSUXKOxyWvnGlF6dNLMWOievyeiBkPZ6H0ULecOXjddUakxkyz/RbcPh+pa6vQcVbO9KgDpT+biImGCpd9rQF52t8VzdDfcaVH/D7ND54P40E5QbIdBz0sz+33SuyT+amYf7tt/rSYVBjrPJSHp3L72P3XrefjUmQ9PAMT1XVNnIGlhmKYPBZvN0wbl9rSeXW87qvchCHUaV/lZvM15u1oMZaKdOm7hr5PEpEXlIH8y6J0dXXJYbeSrdMpia+29E47LdNpdbUr9TX7lJaTcvxC8VmJkijyn9sgx4fIXJqo6HS5Sr0cv5B8LXkbpnIdDvXP6xTdoyWKWY6Td76acjMrJY+K9Tx/IX5zvj5m0z5lX0O7YpHj549ZKf+pXtHNMyhFVc1Ks2m3UvSbOEWvi1HyTTLJIFj2ZorP6pX4deVKvalZqa8qUgzzdIr+p+V97kftpUmKXm9Qdrv9NtQrua6/LXKw/EsmcXVafEasL2ZDs5ygYXFeRtffxW/XPL0SV9giE6i6lN1pojwiEpX8inpRHvVK+bp4a3nkNmpro1nJV7drYWZvuT0Vo+j0SUr5ZzKJ6u9FSrzYhpinipTdojyaa8qV3IfU8s5VmrWL6xLLU6eL9WamxXl1vO673Fzztq+PbdDor9yGNW+D3d/abccHcRxql1OI6PwYOPh3Ig/QpRdpaMXg//xg8H/RY/DvA0z5yixdnFLQKsetbHWiH3SdqIGz+z6jNgh0ukSlRBsU23Woxwm9YtjZJSdoDfa3xaLUr5klAst8Ef4OoKNcNEpiFEOFS0hpPW7NcglEu5TyVWK70naLv6SGXBGwpijlTsGtCJKjdcosTQDdvEHkR+9y7BUNgjiXY6P6XZv6aIHSLFbg1fG6n3Kzlbdr3izKviwRdGu3waH/chvOvA12fzNvF42IITZEiWhwhrHPfydKH1Mv7fUOy7e6dyKwdi9YW4qK5GkInrgUxR93yL8fQNYel/SfVCEvSXMJ9elStJ6R8wbBuk51GbetRIUYz4mR49bB5bLmmVZUrPXiMrCrT0qxcuJErNzq3KWhu6kY6fGay+L5DXBemu1y9/I3G1D19FJMs6d7yXROXaa61cvP1vXaLrVWfSJnWIl1TgzGPRtNclw6VYFUsf7UHUO85NptQqGsr4kzlyLLQ/eOno8rkJc837adwdMwP9mIBtd7Q6xdzUS9iPq3bYOoh3gPl9nlJWVbmXlaXwNyxPbnNdnGOv70gG251rFOVPws2Ony8rDmTb10vjkdSwe7H/VF/S4MlDfBrRuG2/4mDFhu0tkOVK1dOWBXhwE5ug6K78dbYvzZ+XLcNjh36/CyG4Y3rN3Rlos8a/fLlW7L89jlyZpn8dljcny4v6eOMrEPfXWv6HHaj/qr+wH1iGUhEvob5bhVEEJuEt+Gjzrcu2z0yx9+/yH+uyYAfrYJVn7+6pgf/K6wjffqEPvcStQ/kgvD7AA5beh66nKRvtYPGWuSoJfTPFG7tzywqBghq4uQPS9ETpX89EgoWYu4MDluFQCdmuxkt6Nee66NRn5JEiK/LSdY6aAbC5jO9NZ+wEixXUFi2+W41Qh/scQg8b8cFwKiyvH2iwnQe1UM/Zdb9ynx3Z0n6tQpb34Yp58KvGxCq5xiN1C5DWfeBrW/napC7q9KgZUGJN4qpw2BtbvXY8WoyH9AfN/nI2t/B0zWv6dhuSgPp+/qJzW98YUYrL9ZW1vP6XeX6GIxjMF/EGKeO4zDh9WhCMlyqkcNHfB/9CW89EAnUlcZ0f3DfLy0xALj6hJxsJDEwSA9Zil2fzsJubvfxtt5SRjXlIm431a5BzMDCLtvC7aUiOHFZHEoAuJz5Lh1iEHvsb8bVb+Nw/IqP8Q/I9a5ewsMUR0wxi7to2+knTgIPpuJmqhMGO7X/MAcNGLpnBx0RGSgXGxD+a9j0P3qfCx1DbqFjo252D0uEfkV5XjpwQDs/tVSZA653+NuFPzRjCk/z0d5sQGRJ0U+Vhh7yxZTEL1CD9ObNZppYutrq1CMJCyM9urI76bi+UJ035uLgooiGO7ohvFhEWhpy03UaebC5dg9Mh7Zap2WiLx9YsT8h7R5szPBuGE3wh4V21DxEuJHlGDlwkxUOYKeHtSsi8PKLaI+C9QfrBRMOVSMgo/kbKsgjJvXCbNZLccedPzdgimTW2C2/uqY0fGRHiHXym0d1ryJFBuX4p7VHZj6a5G33eXIiOlG4YD7UR/kd6EYcciuEHmryMCsU2re8mDS/lKp+1usEeY5zvvbjNXae2+8KTeV+C78f2JfrQpAUp76XchF0liTKCPn7fTK2Bj5XXsJyVFi/EfZmu/fFsSIIMpOLbf5G8yY5VRuM5Czf+g/yRXr8jT7ZQeyhloPwrB9T8OT5LHyMPY9FyMnuuvZn4ulySaErCrC2/XN2Gev+58Wi6PO18kPU2MNmPJyLox7Oq37V88pE4r/VIygR+IQKeJdrY43s7CyLgG5T0aLYLgfR9V7ICbaGjrqCSFPwdiZBhEo5sEvKxtJAwSKpuoc1BwVDfWH5mOla0P422GIvEOvxusaHWgRrbCgsUGOfPqN1ot0Yc757mlBSx0QfW3vhoZEJ2BhpxHGP5nQrd73cEY0nl8tQMXkJESH29KowiZP6b8MNAYstxEi8ztM6HApJPMxsXfc6tIQ8aLchjVvXhPHpP9KQSEWIvuxSOc8D8VRUf7TM1CQpYMxIx1VoQbkPzMF9YZi1Dh2gA4Upz2AgjPqMXUfmuvfRu6KENQnxSH3HI41RBcNeQXAS95emu07nVP3goZc5781lxjVS4Bul1BbC5S4vi4pe2Og7imnm5WSF/KV3U6XKduVokXOl3ddL4daL1fqk5SSDjlBal6nd78sXmVw2S5bWc16QXsRVl56zto36H7AtrwZlN3aezGsl19dLm9b+6dqp9nWqX9m8Ou0l2tKhfbSr+2yeNyrvZfaLY0lSv4LuxVtr1vbZXGXvFn3BZfLxSfLlRSxjt7Ly7Zy0y5fbL2jz6i9zOvX2NO0KyUJuUr+BrUvrBi17FMy1XKSixvevDUruXrX/d+i7H5qKN0r5HdBl6ns01aMXGd2rRwXrPtbgnN/2a6KFJfPelduirlcSdLpXb4rLUqB+C4MvdvfQN1+ZLm94bQFQ/4u2PdLQ5X2k+7dNTx2ebLWs/ZYM7zfU63+uldY5z1U5NwHWt6HNeh1ao6x7W8kKvp5Bdb9/Vy6fJn3Zlu7tejkEPnTIqXFNWNuXUM87Qe28tVHpCgFDe1Kl7lF2W3tuz5L7IPaBXrotuJWVxqn1T7/ZqWlKleJF/uWx37uGrb7GAbuetL+arw4jrv3c7eYipSkO3rLQ7cwW9nn1he+V79da7wpN8d9BuVKi3rMF/tGe1W2EqOu22m/HGS5CeecN2/3N/H7pOY37qlcJfPBqdZym/qgQSkyDf5b5ZRn6/df+7f79zm7Ro5KFvX+EE/3MRJdYi7c5/yfFa3v6SFwulA7MgABqEDHZ3J8uI3UY+HKJEQ7Xab0h///gdPlXSfHKpD5qxpEZhmw8LtymtRzthO4KUS96OvgF6ADOk3ocHQnsAkZLaY7yEvPn3QO+iqHjQ4BI+Wfqmt0ohxN6lXYXmMjEXO3CcZdsrPBqRpUbQ5CfNTUIZ95CdFpz//YLovXdPZe3PULX4ikldGaKy2Cv3pZ3CVvVqKutdvw7RDooyJFbTgnjBTl28t2SVkraGwMaj5T89CJlitCEDlWj5YOMf5ZB0y3irqRWR7evIn/xSr0IU41j4BrPFzu9ob6XbhXj3Haivl2DNYePw7DdDkuWPc3sU3aEgmw7khinS5n6wcqN/y7R2zFVIRcK8etxHaL70LF0fN1zlmW2386bcE5fhfEnhigLTgdxt0RiQBNN4zBGN7v6cACgsIQtKsYxs1VaPhYrEft9jhC7EsBzt1tvg5ql5rExTUIyyvH+4cP4/3d+Yj5LAdxv9A+9UU9w+pNd58wxJRsQcEb2UiYHGLd7ugnsmGIMqFgf4tMI9ZZnYNEL7r7OKi/GQFBCLs7GblZMWh4ocrDlTzpk1Kk/MyIkAGuKHTX5WHlL0xIeM6AaG13G/Xz8TnoXlSEfc2H0VyzBdnfLcUDrlfovOJluY2NR/YrSfB/azlm3BCM4OtnIP2PNWgQ3+nk6N5j+aDLrV/e1ql3GnYZrfn1001BgvFtHK4vR/JYE1LjU1Dh8js5fIIQdDdQvDEPFfvF73G3rZuXn/heOR3biS5RF27wr3prpaM/nnWQffbPnx6YXrL3cbYPsp+ymxzMt+ZpOUr/TxKStN19tFz6NwfH5MgZX7cQxPwoHp0v70aNOOpZu/wEJWLWHecxpDjT2/faUR5e16keCa9vQcZsl/4EA9AFiXppFcHvJx1oFQGv/toQdH9mFkFmB2qmjOsNlM9D3pzvLQnG/GfljItGBVbept2Gvr4LF5MgRGdtwZbl5x4CfRX87jCgvHgWet7MRGLkRIwXAZ5630Jh07k1N0J++BKaKxKcG7uD0oGS53PQ85tsZC+ZghARNIXcuhCGNSkY92YeSuzdqo41oGoPkPjDgbqGBCBMNMqmfFd7/LGdeOlUG7+S6YARnfcmIm4I/cKDQkSdd5rQ6imgVO/ZilmJjkfKUfR43/uG2uBZGluAkN+XI9sp8O1BzauZKL07G/lPRCMsKABBN0Yi4RnRmDmQg+LqQdaX1+Um6nJ2Brb8td3Wjexv+ZjaLULpH2YjUXMsP5dyczOIvNn1vb91ouMj0VRcnouCJyKt+1HAd6cgXpRbRlApCqvO14mGEMSLhobhWhOMv7gH08aPx5jgaVj6dMUAj6olujRc2MH/vLXYJ/vFaockTf/J4dS9JxNLf9WBmJx9aHasbx/WzpMJnCSjSJ2/OxvRHxthdLnR1+GJIqe824a1iBkt53+NAqIXIqmzGDUNIhDeVQz9imhMkfOGXzeqVi9FekcMsmuae8tirygLmeJ88AsJQ+RbHegQwT7GilBfNAYCjnbC9Fkr9I5+vecnb8nFcjna4bkYEX5eLGKwdq+HbXj8/O0l5C7k7mSsLRHHpOPH0d68TwSdHUh/yGhttH99OtEpAkDnKyFCaJg4hphgEt8xLeeG8Dk2Il1PCrmdUOlAVb4RxQe8DLg/qUL6ChH431uE/NS++7z3HDQiMaEAAVlFyP2h68mebnSq2xyic/78yDDoZ4tm9KGhBbFel5u8GtS9Ixc5B2KQ+aSH48yA5TY4w1mnMZPCXK5kuV85HnYBesTnvITy947jePthvF+RhIAty5G+5Xw1OIguHBdu8K/eyNTRDYt6JsAx+MuZ50fHoSp0zktE/LwwBDnWKfLh8QlD/rb5tyYg+/dTUZqRg1KnJ+qIwHOEOPz+P/GHY1liGHl+t8HGbOseYHfSLH4O9fBzPrqKDE5F9BNA8VtGVG3WY+Gd5/NsaAda9nQi5pF4xNwogm57eYg8ncs5zJqPtAdq9SyS/NPu2hCx5S2o2W+ydcMRwf+4DrMITiowRW0MWA133sQHxarUm/4cy1KHIXY1sX4X3jKhRRvsyRer5dTJccG6vx0UDR05ruo2q2MhCHJ6GogX5XaFerNgh9gGTf7FcH73Xlu5mf7utAWwbsJ3e2/AHG5+I8V+//8ssMhxla3cwkRwaxv/evSgs6kGNR/37oV+QWGImTNLVFmrW1euAYkDgB41MH0sx61sdR/k0j3R6lgVsh57AA8YKpz2KRuxf9wK1H/UYu0u4XDIhCqxpHH2Lm+jRQPStfHo6YTKJ6VIXZyKUqcXnXWjWxw/9SPFfiFNedx1WWIodn+8hLk6C4V1zrnu+KhebKgeYdo6PdOAvBVLURX2EvKfiXbqMufE2qXHiJ5HC1DwuDiWysm9bN360NDiXFanTGjYBUSOdWkkDcTbctMSx4SsX1Qh+rkMty6o3pabV7zNm1f7W4D15mq1643TsfZMC0zi2BbjOEYPs1Ot1t+ETvvO6xeAkMkxmDUdqLJ2EyW6tA1j8N+D7m5xsJaD9Yf0TO949yDPUgXdEYeETiOyMopRddAE0/4qFP8qDuPjCmH6t0w0WKPDMEX8YFVUlIovvvhRVYcm25MqVCETohG0IwdZ+RVoEOts2F+Bwl9kofikTNCHkB9mID+qBiufLnU68OvvTsKUl9ORqlleXuJUjBcH6HMJeAdme6pDxYEGNOwpRnpaFkyTFyLS7ZKvHyLvS4Lu5UIU3+pp/nASQffd4iC/NgvGHQ0wHWxAzY5CpK4uHmJZ6DHliSDUPJuOPLm8ivVGVLg21PxCEBbVKepa5MDaf12HkJGlKK3TPOnnPOQt+idTUJiRqlleHpbePh6pewa/ROt3IciInKfFd+GA+C4cEPtRWiYqJhsQM0kmEqz7245MpK+X+5tY50pDMfRPxmCqI1rxstyCIhH3iBnGDLH/7xHrPKjeE5KOuPEPoPDQIL/MDkEImyIC7R0VKLV//7Q/wLLcKn6rzdtKpIuGqSFm6PeiDEQ/OwHR1TlIfbbUqdymPBUjcnSeaI+N1rK39I47DpZ+sHxkxAMLV1rLo7WzE60HqlD4cgFw6xTnINYbt8Yh+YctSF+VLutUHFMzViLzrSlImu1+NaezthjGt0QdvVyMGre3D+sRt2ohsD4VK+3HN8exRvt0G9sZadfB3/VRoN+NRHTQbmSqx1tH3tKRWx2NhNmaWrD24XcdXJukIZj1o4UwP50u9p0qsSzRIBH7rtpPf2HWQk2dtqJw0XzkXJONl34TiQBH+WvrQOhWn7a1Eqb7c7F2WRgsHtMFIPJBA6bsEfuR4zdLfXSwKOugBMTd0du06v7Yvu/XoL5VPR50iLRymqOh52W5OXSjap16TMiA4UceAmavym2Y8+bV/iZ+gx7KxMI96ViuLbeklTB+1yDSuTVJh8dIM2qS7kGiekw92IHuT0yo2Soadm8B8ROG3hmO6KIhb/z1ku0OeY9P+5BP1nA85cBlsH/G26f9WHXsVnJXRCp66zKmKjGr8pX6fp6c4A2LqUBJitL35s3pKRcWpaU0U4mPsM2bOi9Fya9tdnuKgcenIHSUKEluTypRlK7GIsUgn2Cg00cq8VkltqcyOHgu06E+gcOet92O7dQr4uCq7HZ5ElEv2/qdn/4ySLLunZ8M4+HpD6dblJKseGWqWhb2+mz08NkBnkLhoF1eRLySubPdQ7mpL7xR15ftqC9rGs2TfqyGO29Kl9L8msGxL+mjRP5KWzRP3xgk9buwKsY5fx6+C121+UrKPLm/RcQoKS/Ui5y48KrchH+1K7ufT1IixX7d+31wW9rgnG5WChzfaXVwLcsupf6FFCXG6Ts4xHV63C89c/qeeiy34f2e2vbBvgbtscW5POzf55LWIe5Jsu5tdSqX9VEf5SuPafqF+c5vqHUQx8uK3N79zePxzZM+nvrkKW/ebGcf38n2qlzHsd7z989Wp73lrh00ddDfb5tL3XfVFiiGh/r/zeq37l3LxEkf5SZYarOVWf291dcTD+U27Hnzcn+ztJb3Ht/U/SitYEi/9d4/7UddZ4mS6agrMfR1vCS6BF2m/iPbAeSLDhpxz6waJLxXhHjN89aJiIiI6NJzYd/wS+ed+pg1090xiGTgT0RERHTJY/Dvy3pqsPvlTsT8cFbfN7oRERER0SWD3X6IiIiIiHwEz/wTEREREfkIBv9ERERERD6CwT8RERERkY9g8E9ERERE5CMY/BMRERER+QgG/0REREREPoLBPxERERGRj2DwT0RERETkIxj8ExERERH5CAb/REREREQ+gsE/EREREZGPYPBPREREROQjGPwTEREREfkIBv9ERERERD6CwT8RERERkY9g8E9ERERE5CMY/BMRERER+QgG/0REREREPoLBPxERERGRj2DwT0RERETkIxj8ExERERH5CAb/REREREQ+gsE/EREREZGPYPBPREREROQjGPwTEREREfkIBv9ERERERD6CwT8RERERkY9g8E9ERERE5CMY/BMRERER+QgG/0REREREPoLBPxERERGRj2DwT0RERETkIxj8ExERERH5CAb/REREREQ+gsE/EREREZGPYPBPREREROQjGPwTEREREfkIBv9ERERERD6CwT8RERERkY9g8E9ERERE5CMY/BMRERER+QgG/0REREREPoLBPxERERGRj2DwT0RERETkIxj8ExERERH5CAb/REREREQ+gsE/EREREZGPYPBPREREROQjGPwTEREREfkIBv9ERERERD7isv379yvybyIiIiIiuoRdpgjybyIiIiIiuoRd1tPTw+CfiIiIiMgHsM8/EREREZGPYPBPREREROQjGPwTEREREfkIBv9ERERERD6CwT8RERERkY9g8E9ERERE5CMY/BMRERER+QgG/0REREREPoLBPxERERGRj2DwT0RERETkIxj8ExERERH5CAb/REREREQ+gsE/EREREZGPYPBPREREROQjGPwTEREREfkIBv9ERERERD6CwT8RERERkY9g8E9ERERE5CMY/BMRERER+QgG/0REREREPoLBPxERERGRj2DwT0RERETkIxj8ExERERH5CAb/REREREQ+gsE/EREREZGPYPBPREREROQjGPwTEREREfkIBv9ERERERD6CwT8RERERkY9g8E9ERERE5CMY/BMRERER+QgG/0REREREPoLBPxERERGRj2DwT18DC9qqy1BW3Sb+8hUW7P11CPziN8Msp1xafLFOiYiILj6XZvBflwM/v8XY/Kkcv2SZsTneD36ra+X41+xIJfLWFqK2S4735dMypM1ejMWzV+G1I3LahcC8F3k/jsJ4P1GmfuMR9eM81J6Q84TaLE1ZW/YiTaSb+1KbbfzTzVjstwxlfUX2XXtR9qwZCYvnQicnecY6HS7m1xeLesyBU0la66n32HBOdUpERHQR4pl/Gj4nGpGWXom2M3K8L9ctwfr3d2Lnu+vw4A1y2tfttAj8ps7B1qsewbp361D37hr84MRaRC3MQaM8le1/9STg4+O2M/cnj6MtdgECzMet8/CPNpThJgT3Edl3VZfBqDNgyZxAOeUicTHXqRfOpU6JiIguRgz+6WuhC5+JmdND4S/Hv25qcJ5nNmDN2gTMnT4Jk6YvgOEP65FQl4GtB2xpRutCRSPBgi/UEREYtl0/Gv4ycLSc/hyIDUWwOs9NG7a+VAjdsrsQcaFs8HlwodWpN4Zep0RERBcnL4N/Cxo3JSP2ZrU7hOcuEUAtcsS8xUWN2Ls6FuEhIl1IOJblN7r3AT7bhsrVy2xp/EIQvjANmw976CncXomch8MRoq5TLCs2fTMOnZbzHCw49HqazNt4kaYSbWflLAeZt9edr9/Xrhaf0fbBtl7m90POzkMofEJ2/7g5FmkVshvA1+1ELfJkeYR8bxk2NIngxEXfXR3EdtXJcZW1a5RIJ8o47b7x4m8/jL/PUz10oTZf1P33QqxpQr4nyuP1Q5o6ld1U1LK6M0OMl2HZf8pxddCWr3Wdmnmu+dTo2p+HFXfa8uV3cxRWrK0VOdGy72+1qEyPlXUl0nna37zQc/qY/Etj1ALRIDAjZbJtVBd6G7CtDep5YfM/PkLo9AjcdPxza+DYfULsI8GB8Hhe/8g7eH3nJKQ+MNM9MGadagxvnXpjyHVKRER0kfIq+LdUZ+O+H3+AsWnbUNfSgSZ7l4jEQriGxW3rMlB2XRI2vlmN15MnoDblPhgqtD/xXahMvROxlVcj+cU61L3/ByTf0IQn7zGgUtuYOFGJ5Bmx+POoZPzhfZHuxWRM+OuTmP1UpVPAoOZt9sOvAY+8jur3X0d6RCMKX/pAzh2arc/kwRy9Bpve3YYNMT14beEy5DXJmV7TBFBuw1DuR2hDYWIU0truQtb2OmwvfBB+f9qArW4NncH4ALnrKjHhJ5tQ/e7rSBjxGpa51EPj+lhE5RzF7RlviLqqxh8eHY2yh2dr6jQAd/18J3buEsPvE8T4XTAUy3F1+PldIoU0ORlmEUyrQ1P+AjnRg6Y8xN69FsfmrxF1Wofq7Pvx+R+jMPHXe92CwLZ12aickCTqSuxvjwRih9v+5h3dlLmYi0IYXzrktH/5B4rgzx6x+/tjkggTu0SCL7rMuC00AqFXma2B49EjZX0Gio3bNuCd8AcxM1xOcGCdns869coQ65SIiOhi5VXw3338EMwxjyB52VxMGqPDBLVLxBstML9yv9sl8asfXYM8kS5iegQWpG7EmmVmGHdqzvCZ9+K1jUDW7/KQMGcSJoXPRYL4+6lbjSis6j0zb65+DUZk2bphhIt0cxKwZv1TuHljISo1gXPj/hwRqGdh3ZMLECHSRcQasHKOnDlEt/8qD4bYCLENat5ykBpei9eqG+Vcb+mwIN8WFLkPG7HgOpnMW5/WonInkJyRoym3Jbitr9OsXunGXY+r9aBuq+zmYjaiss5eW+oZ0fux4c1N1vKYFB6BuSvzsDFVW6f+0E2eiZlRYggPFeMBuClCjqvDZF3v2e4R/ghUg2kxXH2VnOZB4861qI19VlOnydiYnQDzs39GrWukuCSrd397chPWq/tbzRDOFN+QgHXF81C7Mhw69YpVeiHKmpyvFGFUMEJxDF1ngONilm7UlfC/6iPxtwWW/wEWjPHQQcSyF1vzGjH3JwtEkOmCdXp+69QqA1Hahvd/LoMI6XsNpU6JiIguYl4F/wHBE6CreBl5mypRe9iMLrXrjfzRd+3GEBBwtfxLFYhgNXY40YUe2wTgrPhRxe0IvV6OW10tlgWUHTkqxwWRDpGhGCtHra4KFGFIGdr+IcftIm8SP+C9rJfyz0Gw41SvajSCbxTBy+nBhx7Ws8Z9DK7l5p0FuG2C9pNjERop/xySAARqA7ZRoZgUfRf8HLUVirlPJCNhuvbcpz/8vyX+09bpMLOcFVHYpFCnOg207kgicD1pG7cLvW60/Esl97f24yIEHrzQuA04/GkTdv4uAVcfzsMT00IQtbq2N+i8LhS3Wfc/M9oO6kSwqxP7hhmfn+7G8Xaxp4h6dWWpeweF5gQkxGi3Rot1ej7rFDBgm7bh/dcNosQ1hlCnREREFzOvgn//qCy8u/0HsBSnYdHEEOiukf2TDzjO5w+SSx9ivxAsK5GztEqW2fr793XWjobZJKzYUYk1Mb2PN2mrsN9P0TuI3eHSNWoCZi5ORl5pE5r3iA3NWoQ8R7/6YOiigS/OHsPxj21PgQkeEwDziWNoqxF/j3INFLtQWZQD87K5mDlKTvrK+XqdXunS8L5STrcbbJ0SERFd3Ly84RcInWPAhp1N6OjpQXdHE9bHtGHV/bnYO6Rr8Quw4a+as3H24YkIOV+K3YAm1zRiSJY3YF7YhrvP/9fgww1YtvA1BP60Goc15b/tSTn/EmLp6rJd0dIIvGMJHok244M2e/efK3GliAUPtR3C56G2p8Bc6e+PDz4+hC/MC1yuZgmfVuK1TToYls69cPqN+1CdemeQdUpERHSR8yL4t8B8YC/2Hu49y++vm4AF838g4ttDbpfsu7u1TyvpwnH1juBRgfCzTbB2F/JHG7rPas/GeegGI9KhrRsWTZpAp+44GjUfiSX2Mre53vAr1hku8nba+kA/SeZtfKjbS5eOd2lbNOoZQWDSVX2su0/D3OffqgwfHNLm7aj17KSW31Vql4nPYdEmO3FclI8IZAbZfbnr40bUIgFJKyMQqqkD/3O6IXVg/iNEjTS2OdVpl7WyRHB2jW18eHVh72900P2m0qVf+XGYD6r5kaOiTkNvFbtlXS0O3RBsDRR119+E7oMf4JCHvLXtfg1lupX4QVR/+w7r9PzUqbcGV6dEREQXOy+Cf398cTAXc+5Zhpxt4gdSBK+H6iqxYWM+EH47JrgEsZ//MQ3J6r0B4se0bO3jSNukQ9KciN4zn7qZePDxY1j7ZBoKdzaisWkvKjclY45uDjZ82Bvd6KIeRNLxtTD8shCVTSJddSUKU+dAN3sDGjWByqQ7DNBVZWDVs2WoFelqt+VgbYlzCKd2fVjw+Fy8k7UCGa/XinWKvD27DE9sikDWfLfbMPHeM8nWba0V21n4SwPWNkXgwSj3dAMZ1j7/10Vg7hwgL8sgy03N28t4TwQuWoFRC5Csy8PjT2ywldvOQiT/LA3Hlj6Iu8bIRF4KvHESIlCITE0dbF4tyqZKJnA1fhKSRDC7taQSe6tFg1EdNI1GnO5Cl3qGXQyfW8+yf+EY79I0uCbNSUXEtied6nTZzwoxKeP+8/Sc/EDMXJaFiBd+jMW/3ozKOrGtdWXY8OM0ZIgtejCqt3kYrLsLjWWlaLxa1mFwKAKOiCBWd3XvU4GsGlH2QiUmJc8VZdgH1ul5rFPveV+nREREFz+vuv2ELtuE6uTR+HN6FMJDQhB+549h7HoQm15d4fYEk9BV6Zh7yIhld0Zhcd4hRORuR06MttNDIOaufRd/iDqOvMemY/q0OVj1kgX379kJw3TNL+2oucjb9wfMNOfhx9NEutmr8PLp+1G9w+AULPhHpWPXKw8CLy9G1LTFyK4Vwcqq2+XcXqHLN6HutxPQmBUl1hmFtPLRSN2zDYbJ7r/u9/9qBQJLHseiO2OxosIPD5ZuQrLbYxq/aqFIKKjGmtB3kHHfdNyX8Bp6fpSMB137k1w1E2v2bUOCxWgrt8fycPSOTdi1foHbFY4B3bIC2/akWhtXsWJZ96UY8cENyUju64mOgXORXJoMy4ZYzJk9xzaUHJIzgdr1Ouh0tiF8pXr3Rg5i5bhOBLeOh9yEJ1vXO7o8TdTpdESl/xmjk6ux86mIwTeavOQ/2SDW+RTGfpiNH98pyu3ONLyG+7GzPg9zNf31rwwUpSgawJPGyJtS/f3hv60MZZGh0N6mCtGofa1pLlbE9tdoZJ2ezzr1ltd1SkREdAm4rKenR5F/nyP1BT1R+OCVDry+eNAhyYVBfXHSfy7Dbe/2iIaInEYXNfVFbn3fzLoAm/7+OpYMqQtWfyzY++txmNOUhcPbE0SIT8Pp66lTIiKiSwODfy0G/5cetVtKP/3Z1a5Zw37m+UQZVly3GHjDjA2xrqfx6Zx9HXVKRER0ifD6aT9EF6WrPN9zYR/OS5A4agE29PQw8D9fvo46JSIiukQM45l/IiIiIiK6kPHMPxERERGRj2DwT0RERETkIxj8ExERERH5CAb/REREREQ+wneD/7NdOLRzA8o+lOPk0aGSPGyuM8sxIiIiIrqYfa3Bv6X9AMq2HUDbaTnhq9JehuS7dQhP+TM+l5PIM3/LB8j+YQjGx29A41ddT0REREQ0rL7G4N+MsvRdWLxoF1aVtMtpQ9WF2k1vIK/Ci+W0b8ayGYvxQdROmP+2DQm3yOkXJTM2x/vBb3WtHB9+oUs3oam5CQb/1bgvsRBtcjoRERERXXy+xuBfhyW5C7Fz1zysixsjpw1VD9p2HkFaU5cc70sXKp9/Eu/M2oRNv50JvoLJS4ETkLD+FTxYuwKrNjH8JyIiIrpYfb19/nXjMTMqHKFXyfHz7chWGDeORuqqJQiVk8hLV81EUsZdqHyhDI1yEhERERFdXLwK/mtXZ8Mvfhcaq4oR+z3xt182wh/e7tYH3Jpu9QG0VbyC2Jtt6WLTd+GQU7om5Ijp6jz7kFMnZ2mYXzeKecWobNqOZfZ1LnwFldqePXXFchkFWFYixrN2yHHPy+061IRKzMSk8XKCJ+17kfNwOEL8/MQy/BDyvVikvX4IFjlbZX59sZiXg8rDhUi+c7w13fj70pzzJnUdEGnus6XxuzkKK9bWwv36RBcaNyWLMrOtc/ydK5C338NVjBO1yJN5C/neMmxocr9jwZ43p45An27GYvEZbXnUrhbrit8s6jRH1GmI+EyIqNP++/WH3jpTVN97OPSpnEBEREREFxXvz/x/3ISMikAkGeeh+o0bMKHhQ9z3VLV7IHvwfeRVjUJSoS0dig5gtlO6W5BsToJZHf4ajgVyqmefIvsFC+5X17k9HHed+BSxD5X2nnm+YTp27pothu/DEC3Gl98ix23DArF6rZ7Tx8S/V8Pf3zburg2FP5uD/NMPYv27TehoqcMfVo1F7cOzkV2tDf9VW5H9vBkzf7dJ5G0DFvS8JvKW53xWvCkPsd/PwNHINah+vw7V2ffj8z9GIXa987nzxvWxmP7ro7g9uxp171djzYLPYbw7FnlNMoGVyFtiFNLa7kLW9jpsL3wQfn/agK1n5eyh+DhX1KlO1Okboq5SRZ2uEnVa6aFxIl0fKuqrG1+4FgURERERXRS8D/5HjceatfMwd3o4ImIXYWP2KJg3tqDWNVLsug4rNOk2/d413Qj4BwYi0DqMkNP6EoiU1YuwQF3WnHnI+/14TKprxwdH5OxRN2Bm1GQxTMBNagf+68fIcdswYZQtmfeOw7wTSFhlEOucAN2YSZi7LA87zc1ImezaYrgd6WvVdBEibwlY82yqyNtr2KsJ2Bt3rkVt3LP4w5MLEBE+SZRHMjblJqH2uUrNmflGVD5XiwW/+wMMsRGYFB6BBambsO4ntVhboTl//2ktKkXekjNykDBnkkg3Fwm/W4LbzuVe31Ei32sTRF2JbRB525idIOpK5K3P6F/1Dswn5J9EREREdFHxPvgP9MfV8k9VYPBI8e9ZdJ2xjTu4prteh7uir1DvyR2CkQjWBvCjrkIoLOcx+AyGbg5QuC4HZdWNaOvqsnb3sTZW3O5LCHaeNipY5K0RFs1ZcctZM3BrKHRyXOUfGAyYP0Cbo+uM+IBIdluoUyoEiu02H2xTZ2kswG0TtI2QsQiNlH8Ohdgu5zpV74Q45l6nRERERHRJOP83/E6+D5U7EjFXG9tesEKR8Eodsq7/ALlJ0zFep0OA33jEppehbajda7KibP397cOdGXKGs4w7NWnEEJUlZ1xwJvXTbYqIiIiILmTnP/i/kIzwImoNnISE9a+j+m896Ok24/C7KQgsWoxVRUN8xOWT22A2m12GjVhwnZwvGba7phFD/gKnqwZfuxPH0SYaSE5XY4iIiIjoouF98N9lcXobbtdxtW/ICASqvX8uErobb8Mk7MVH9nsGXJ04hL3VjTDbu+74ByJ0+v34QSRQ+elxOdHuOLq0T8axBsbOZ8X9R4jQvVv84bjHQe0+5NoAEeNqsrNqMk06j7dDlOGDQ9q7bY+irUb+KfldNVr8+7lT9yNb3hYgNFiO23V1udSp2sAZ3WeddrUdQqMa/F8jJxARERHRRcX74P/EYaSl7kBlXRNqt72Bx9NPQPf4OEQM9k1ZZ8+ImLNLDra+NF84xrtgGVL3Gh0mRIhouawJm6sPiABeHT7sDeLtwmfiwfB3sOH1WqdHdzpcdRzvPDQdi54qRGVTG7raG7H39XwYS4CEWybIRHbvITs1B2V1tajdWYi0J9eicfqDmBkuZwuT5qQiYuMqPL62DLVNjaitLkPOonHQray0tglsJmHuLyJg/OXjyNtWi8amWuzdloPYm3V4fGdvKlwXgblzgLwsAwp3Nop0lSj85ct471Y5XwqMWoBkXR4ef2KD2AaRTuQt+WdpOLb0Qdzl+i61EyLfqWJb1W3YJj6TXijqdG4fddqGrS+J+U/+ABHs9kNERER0UfI++L8xHOnRJ2BM2IGoRUdwaMot2L46avBvyT2wDTqd0TZ8rwllYlLOfXJcDHkHbMkGa1LiPKybYMaTs3dhjnV4F++clDMdJmFFdjKOZaUhu8rDI238ZyL97U2IaMvDj6eNh27cdMzJ2oubsquRE+u6pfcj/SeB2Jq0CFH3rUCZ34PY9mqyWINGeDK2/cWA0XvTEDVtOqIeysB7459F0x+WOHXnmfTENtSljcY76VGYPi0KD2e9hwm/a8KmxdpUoUgoqMaa0HeQcd903JfwGnp+lIwHXbN11Uys2bcNCRaj2IbpmP5YHo7esQm71nvoQnRjiqjTQ6JOo0SdrhV1uk7U6VwPddqF2tXLsKJxCdavmKleqyAiIiKii9BlPT09ivy7T+rLu6IOTkZH8ewLqw/6kFhw6KXHMXvlO7h5eSoMv0rGTJf+9wNRX6QV8vBtqO4xIEJOu9ioL/mKOrhJ1KlzQ8RVV90GGH6zGoUf3YysN8tgmM7Qn4iIiOhi5Vs3/Fr5Y8LyTWj+63rMPF2I2n/IyeTRoWojvohaj6bmSgb+RERERBc5Hwz+bQJvWQDDK00ioJUTyKOIJ5uw6akFmDDo/l1EREREdKHxqtsPERERERFd/Hz2zD8RERERka9h8E9ERERE5CMY/BMRERER+QgG/0REREREPoLBPxERERGRj2DwT0RERETkIxj8ExERERH5CAb/REREREQ+gsE/EREREZGPYPBPREREROQjGPwTEREREfkIBv9ERERERD6CwT8RERERkY9g8E9ERERE5CMY/BMRERER+QgG/0REREREPoLBPxERERGRj2DwT0RERETkIxj8ExERERH5CAb/REREREQ+gsE/EREREZGPYPBPREREROQjGPwTEREREfkIBv9ERERERD6CwT8RERERkY9g8E9ERERE5CMY/BMRERER+QgG/0REREREPoLBPxERERGRj2DwT0RERETkIxj8ExERERH5CAb/REREREQ+4rL9+/cr8m8iIiIiIrqEXaYI8m8iIiIiIrqEsdsPEREREZGPYPBPREREROQjGPwTEREREfkIBv9ERERERD6CwT8RERERkY9g8E9ERERE5CMY/BMRERER+QgG/0REREREPoLBPxERERGRj2DwT0RERETkIxj8ExERERH5CAb/REREREQ+gsE/EREREZGPYPBPREREROQjBhH8d8O0cSkmBgcjODgPDXJqr06UPqbOcx/yDsgkg9TzcSmyHp5hW+fEGVj6dClaz8iZGt11RqTGTLOt7/b5SM2vQedZOdOhGw35qZh/uy1P02JSYazrlvNcfFKB9BhbuuVbO+XEPhwtxtLgiUjf5XlZ3uVN6DbB+PBEW7q17qVrdaYVpU8vxYyJat4mYsbD6Shucl+vx3LrY1PtOrauxMSJ6ahw21z3csvb0yHn2TUgT12Xh8G17r3JW+fW5R6XFfxYqdjL+tKB0p9NxERDRT9piIiIiHybd8G/NTCdgXte9kfcI5FyoqsgxDx3GIcP9w7vFydjSlAkAkbKJINx0Ii4yEyYxiYhd/fbeDsvCSF1KxHnEtx170rHjNhCdMdkoFykK38mHn4VD2BWijZdN6oMMzD/1W7E/Locb+8uR8YcM4yxS5HX1CPT2HTsSMf8qelonZKAGDmtbyLgXJ2KqnszkTQ7QE7r1dOUh6WxRpjnyLz9Ogbdr4q8/X9VIke9upuMWDrjHhT6xSEhSk5004Hix2ZgZV0IkvJEeezOh2FKB3LmuGzDsQqkLFyJ+u/2ltu4pkzMiDfCJJO4+aQUORk1ov4MiAmS06x6UPO0KLcNZsyS5Zb9kB92x8/HyrfcQ+yY5/Y51b86JIXLmapB5S0ZRS7LOvxcjNjLPOvYmoPM6hjkPtl3GiIiIiKfp3ih/nmdMvXRAqW5S1HMpYmKTper1Mt5fWmvMCgx8wxKeYecMEj1z+sV3apyRayylylfmaWbpeSb5LjSrhQt0imzXmiW49Lfi5R4bbrPSpREp8+pupTyVTpFl7a7dx1qOn2cklnRLkbqlVydTkksNdvmeWDenqTodTEuy7XrUnanieU/tVuxyCkqS0Ou2IZEpeQzOcG6nqlK4h+bxSfMSsmj4jPPeyhd67brldwGOW5l235t+uYNsxTdogKlRY5bWbff9bN27dZ16rXlYNe1WzG4lYFF2Zcl1vloicit3cBlpfI2b97uYw4dtmUYdrptARERERFpeHXmPyCqHG+/mAC9+8ltD3rQsP4BPLA5BNnF2Yj5rpw8KD0Iic7Hlp9GwmmV1+gQAhN6HCe6O9FZDURP1stxaew4TBXpGlrl2Wk/PRJK1iIuzDZqEwBdiPjvZLdYm3RFGJIqtiBjnjpjAKeqkPurUmClAYm3ymlOetB9EoiZooefnKLyuzZEbEMFOj6TE0Q+Ire9jZeW65231dXIADXH8NMuTPAfCQSN6J3Yc8YETNfDaVNHh0AvysrU4X62vuPNLKysS0Duk9Hu6/f3g7/4L2ik0xbAX50o5g3WYPPmnQ6UPr0S9Y/kwuDh6gsRERER9fIq+A+bPKX/wNSJCTWra9CxKwtLY1f23a++X34ICo9E5I3Oa+35ewvqEY2gb8sJalgdBBHku/RBP2UWIaEmaP12GCLv0CPIKV7tQEuDSDM2qHfbgvSY4lVjpQc1/5WCQixE9mORTsH94IVhynQvSnfsLCT80AzjxmKYTonxsz3o2FOMgh1TkHS3S+PHW5+UIutn9Uh4zoBoR5lq+E3FwqemoHCdEVXH1CaSaNAcFOv8UxAS7o10715ztAJZcfK+hYkPIGtra2/DarCCulH/0nJMk/39pz1mRIO63S76bbwQERERkZPz8LQfEYyq/bOb9yF3Ybe1X73xoJx1TjpQ8kIe8EgiYsbKSRiHKUuCUPNsOowHbGfwe06ZUJyRjmJEQh/WdzjYU12InD0ir/cNIXg/WICc/E5E3jsODT+33cw7LV6s82AfoW5PA3Jun4j0PUNpCNkFISanCAYYcc/NIiC+foxYZwMiS4qQ5PHKQwdKEydi/kutctyV+xlz24222pu5/aBfWYAtUQ1YetsYMW8Mxs8yAk+VINPDWfb6N00IearcWvdFj/qhJEk0/g54KpOB8qYqQZV5IYqaD+P9irWI/iwL89Ncbvh1a7zIm877umGaiIiIyMedh+BfhIwBAQgICkP0E7nIvLcBxj193mrqpW40rF2J1IOuZ3j9ELmqCNnTW5EVMx5jRBA+9aEclH4gQsS7FyLS0UhwIYLGlJ8ZEZKV3Ufg3L+GXUYRIAfBTzcFCca3cbi+HMljTUiNT0HFMZlo2ImA2bAUOd1xKKpptgbYW54JQWmc+03L3uj4U7oXZ8zVLlyJeKA6DGsr3sfhw+/jbWMMOlfHIcXpht8wxJRsQcEb2UiYHCLrPhuGKBMK9rfINN4LiEjGFmMJXnoqBmFBAQiZHI/MJ5OAt3aj3rHaDhSnsbsPERER0WCcl+C/VxBCbgI6Ta3OZ2wHRQSga5di/sshyK/Idu+eMlKPhBffR7v1iTDtKF8RgJaPp8CQFgePPfdF4L8yZiU6HilH0eND6S7TiY6PxNYsz0XBE5EIURs6352C+GeykRFUisIq18dgCn4iP+81I/vuoQepPfuLkfnmLGTnJSP6xiBrgB25PBvZyxuQ81qN09ODbEKwsKAZ5cudethLnWiorgIeifPc3cfuaAlyn+1BxppsxKtBfUAI9PcbkJ06DqXrSjRP6AlA2B2RmPJd7TUUf/j/H7Gms54aJv3lTRTXaD0i7whzapT4XaWO9aDn37ZxHGtA1R4g8Yfs7kNERETkreEL/o9WwZhfjIZz6dnipgemjYlIfDkAGcW5WNhPf3zr1YYR9Sj8VSl0qZlICvfQmeeTKqSvEIH/vUXITx3MfQzuYiaFuXQX0kE3FqjpHHozpz/dnWoDKgQ6p2DdD2H6aGCHCR6aHAN7dr6tf74cJiZVyBnSqU5Uqeu8Ro5LYWFTgINinednUwclR76PwTZMxMq35AwiIiIicjOMZ/7NqHq6EPWfyFEreVOtPsz95lARylY9vRwPLE5HhdNnenVsTcHSF3qQWFiApFsH6pnfg4aNWTAiCRk/meLej/9MA/JWLEVV2EvIfyba81UBrwRYbxKu2G9yPtt+pgWmOtEoGGtfsh8CRNBc0WASOevV81mHKJUYhFwrJ3jJb6RagvVoOWobt+mGqbYKiAoTTQ8bv5F6oM4Ep970xzpgEjWgD7HXgvs7GdRh33Mubzbw84NeXeffnc/em5rEOoPGwbG4T0qRujgVpS556/5/gF7zpCDv8gY05D+AB9Y3OJdbt1n8G4SA/7CNY3QM1rrk//DhfVg7T84nIiIiIjdXZAry7z51f1yDho9E0PpJB/7eWI3t74mg7vaROCPGO/4ZgJBv+wNX6zCy3YjUNztw7WgRip45iKp1v0ZqTQR+99tE3OR6mv3YTjzzaB6q2htx5pZFiLvVOUH3nnTck9iAOOMfkDRxBHp6enqHy/zhP0ImtDv4In78+F7MEekTb1KfRanVisL770HWNdnYkj0Hun9qltVzGfztC+vpFAH8B2hVt+uTj1D7RhU6x0/BtWpXn0+64a8T2zhiBEJCdfj7M7/Ga8cDcM131BfvNuC1rFTkfeNnyDVE49pvqgvzx3XfGYGa1Bzs/GYIxozswWcNpcgyPIOWBZn47f3/aX2Mphokt+5vwEfWdf4dH7y7HbWX6xEx8oy1vHuuCsE1V4qlXa/DiH1Z+P2eMwj4jmhVnGlFw+YspBvPYJEhE7E32Jamu+4a/D33Cbzxj2shsiuqoQobsv4vioNEo+gXUx2NhBH+ogxdhn8f2Q5jhQ7xv4gQ2ywEjcE17a/gqZcbMfLa6+Df8xkO7vk9/m/6Tlz7ZAZSpsiliVbO2Xcz8euSTpk3Ufcv5OC5kjD8LDsJ+qttybzN2zXf/AzFj+eg+j+uxXVXynLLyEN3/P+H/zsnBLbaGuGWf3//f6O13IiK78TjF7cPsnVFRERE5Avk8/77pb7kS6frY9C+kOpf7cru55OUSL06T69EPpSplLRqX3Gl1a6U/FSv6PRxSn6jexrbi55c1iUH95dJyRdV/bRc8+IpLdtLqDwty+llUtYXTnlKow7aF3MpiqW1XMldFaNMVefpI5X4tAKl/qScqdFVm6+kzJtqW0ZEjJLywj7F/C8506q/vOmcX8x1sl4pSIuX5atTps5LUfJr3V9sZWktUTIfilT06jLUvGWVKC1evP/K48u1Trco5c+nKDERtnXqo+KVzNIWpxeXWYl0JVn2vPVd997mzb3c6t1fQuamn5ekEREREZFymfqPbAcQEREREdEl7Dw/7YeIiIiIiC4UDP6JiIiIiHwEg38iIiIiIh/B4J+IiIiIyEcw+CciIiIi8hEM/omIiIiIfASDfyIiIiIiH8Hgn4iIiIjIRzD4JyIiIiLyEQz+iYiIiIh8BIN/IiIiIiIfweCfiIiIiMhHMPgnIiIiIvIJwP8PT0fJm9nVMuUAAAAASUVORK5CYII=;imageBorder=default;" vertex="1" parent="1">
          <mxGeometry x="1241" y="160" width="781.05" height="445" as="geometry" />
        </mxCell>
        <mxCell id="dEBICoWJEvzxDYuwYGRK-3" value="" style="shape=image;verticalLabelPosition=bottom;labelBackgroundColor=default;verticalAlign=top;aspect=fixed;imageAspect=0;image=data:image/png,iVBORw0KGgoAAAANSUhEUgAAAwEAAAG0CAYAAABqhyv6AAAAAXNSR0IArs4c6QAAAARnQU1BAACxjwv8YQUAAAAJcEhZcwAADsMAAA7DAcdvqGQAAHZwSURBVHhe7d0LXFR1/j/+V+Xu0Ff3C21+Gdxawq95qUQob7RhaJiauEJYXnDL0NqE3U1gdwPqv4u0jwRrg9H9BlirZCVpCaFJ4QWVxA0Ui4sViq5IazqsFvNb3YZdtvl/zsxn4MwwwICQl/N6Ph5H51w453M+n3P5vM/5nHOusQggIiIiIiLNuFb+T0REREREGsEggIiIiIhIYxgEEBERERFpDIMAIiIiIiKN6XUQYDpWgtz36mXf5a/+vWwUHGqSfURERERE2tXzIKC1EUXPzsLI4GTsMslhVwCduRaZ0WMw4Ylc1F6QA4mIiIiINKiHQUAjCuJnYUlVMDZ/dgAbfjZcDlcx1SL70THw8fGBT0alHNg7LccKkProJIxR5jVmEhY+V4D6XgYevg9nYd++fYjzyMTCX+WJNSEiIiIi0qYeBQGmHdlYXhqMrJwkBP9QDlQxVWdj4aT7kaubg+gQObC3ThchPjIWB38cg8xdO7HTEIMR1csxKSobtXKSHvMcjqj0LMypTEDyRoYBRERERKRNPQgCGlH0Wi70S2MQ+WM5yEElcqfnwmOZqLC/GoPx/y0H91LtVgMKbktD5vNRCB3tD//7opDyf8sRdigbJYfkRL0xMBjRTwej5M9FvQ8miIiIiIiuYO4HAaZ61O4Ggu8YIQc480Twlp1Yu8Rf/Lp4LRdEFX2iPxwaHA3xhT+aUNt4cQ/4+t4WDByuRP1pOYCIiIiISEPcDwL+aRLVb1HVH6Sz9XcwHOMm9kX1/zvwI1+EwQSzWfYTEREREWlIDx8MvhQaUbB4DGat7evXkZah6Sv5k4iIiIhIQ66AIICIiIiIiPrSFRAE+CJyXQ22LXHxOtKL4g9dZy2biIiIiIiuYu4HAdfpcNXUmc8Z0SiCC/2Nsp+IiIiISEPcDwK8feE/Gij7vK/er9+EkueW4KF5ySj6Qg5S0Q30Bypq4fAkwOlG1MIb/r7eckDvmBrrxXx84e3iWwdERERERFe7HjQH8kdwpD/KXitAZYsc5MCE+v1lKLN2B3H0/4lBX9bK/jLUOz+Ee7oMeVlFKCvNRd7+joGF/+w4RH6ejPhn81ByuBa1u/OQ+svlKBobg9CxciK1aoP1y8JjniuDy+S1aUTRm3nwfioU49kciIiIiIg06BqLIH9370IZUu9+CAfnb8aGZ4KdvgdQCYPPLKTLPmdJRWcQ51B5b0TBr2YhtnQEUt7YgJiAjjXylmMFSH8uE/k76tHkPRyhD8Vj+bJIDHfxJtLGNx/ChN+YkLJrJ2JGy4EdmFCZsRCzXvPF2u1ZCBsiBxMRERERaUjPggCh5Vge4iMTUDY8CjEJSYi55+Ka5vSNJhQ8MQaxFzJwIC8KvnKomulQLlJXZCKvfgSScjeIgIS3AYiIiIhIm3r8diDdrVHI2rcPafeYkXeor54PuEimWhx8D4j6WZjLAEBRv38dzPekYd++zQwAiIiIiEjTenwn4LJ0yIAx0WZkHUxCMOv3RERERERdujqCACIiIiIictsV8LEwIiIiIiLqSwwCiIiIiIg0hkEAEREREZHGMAggIiIiItIYBgFERERERBrT6yDAdKwEue/Vyz6iK1xTGXI3lqDRJPuJiIiIrmI9DwJaG1H07CyMDE7GLlaY6GqhE4Ht1mRMmPQQUndcJh/BIyIiIuonPQwCGlEQPwtLqoKx+bMD2PCz4XK4nQmVWQmYdbcPfHx8MCEsAdkVvY8UWo4VIPXRSRgj5uUzZhIWPleAehezM1VkIyFsgnWZPnfPQkJWGZpa5cg2LtK2v0mOU7lQj4LnFmLSGGW6MZj0aCoK6joutN/T1iHfKmFQ5tGhW4KC03ISqUPakvJQ200xNL4bizFjklHkIkuULzJnPzrGtryMSjnQSYd8S0ZetdNCDxlU6VZ3BrF2dk0oeMLVNLZuybvqBLpZpu7wDEZc3gHUGMbh4KMPIX1/ixxBREREdBVSPhbmrubtSRZ//xhLfqMc4KDZsivR36IPWmzJKjpoqak9aNm2Ksrirw+zZFaZ5TQ98OU2S4y/3hL2zAbLrtoaS03JBsvySDH/mVmWGjmJwlyVaQnT+1uiVm2zHBTTHSzKsiwO0lv8E3eJFNmZLTWrwix6/yhLpj1tLy+2jBd/l7S9fSqLxWjZ9ktlGUmWDSVimbW7LBt+P8e6Dlm1chJFn6bN/XwzNzdbmts6o6UmN8YSHLTcsku9Cn/dYInSq9JWts2S+YiStkxLTWfF0Jgv1sc5L2yaq7IsUWJdxz++3JI0V2/Rv3RQjlE7admwQIxry7d9rtehMtOi1y+2bPhcvR5Kp06Y0ZL/uJjX8yKP1NOc22VZLtarPY0d823XW0nW/I7ZapTT9M7JN6LEtpJm2deLzZaIiIjoStCDIMBW0Zv6srqaq/JlvmWxfqpjZVlU1LYtExU6h0qve2pyplr0c9dZjsp+K+sy/C2ZlbLfWhEU839ml6jmtzOLyuZUUdnM/1IOaN5lSVIqkCUOU1kOviSW8Xi+qHZKtVni7+ZY1tXLfitbpdRfVfnt07T1Kt+aRRqiLOMfEUGH0wTWtPlnWhyq6iIwmCPWvz1taidt6+dyWQctmfrxlsV/rhHjZOXcVRBgzTf1uivE9uIcNMggoG3dXXK9HHNZmggq4i3bzskB1nVyzjdZgQ91DMZ6zLzPKeAgIiIiurq43xzIVI/a3UDwHSPkACc6f0TnZ2COQwshT+h9xX/nTOhp44qWC7XARH84zG6IL/zRhNpGe5OPFpjOAWHj/JUm3W10P/KFL4rQ+KUc8E+T+KswjL/NYSr4DhWJe68RbS3AW1pQi2D43yr7rbzhexvQ9HmjmIdNn6atx/nWiKK4+5HcGIXN62Lg7ykHS54DxQBvncMyMcBDzNFb/C/7VRrfSUVsRTQynw4V0zjzRPCWnVi7xN/FOBWxTJFi6BwWCngMFEkZ4DSwW96IfPUMziSMk/0KE3a9YwCeisTUH8pBXzWhDKEYP1r2S763jQcOV6LeqYlUj+hGwP+nQO5hPvhOREREVyf3gwBrRVpUCwd1Uqn74XAE3+Ov1D9VGnG0UlTrhnp3XYnUsp7m2+lKFGxsROXaJXhIeV7hmGOY4BsajcimbGS/WQuT8uzBhUaUvLEORWNjEBpgm6bNFwVI/dVBRP8xCaH2yrWD4Rg30Y2SGzoV0Q8bkb0mD7Vfif7WFjTuzsO698ch5j5/2zQqje+n4iHrswM+GDOn4zp0cKIIeRv9ETM7uD24EQGNNypx9ITsl0xGJaQT+fZftv7esQV+OG/ucfBKREREdCXo9StC3dFSmov03aIiqK689VgjChaPway13VyVbalE+t1jkLy76ydgWyrSMWFMMkq6e1D2nSUYE5aLrpfat2mz6zLfhoQh48gRHDm4DXFDDyI2cjlKlIq3nRifmZcE5NyPkTeLivawCVh4KBib34iBY3VcpP25WBx8LBNJ02wV/aZ3l4iKufohXXd5Iyx9A5KQjftvF8u8+RZMiKpEcP4GxDhdqQcOIq/WF0lFR1BTtgGLB+Yjdmk2KruobdfuyEXJ6EgEq+c1ahyivMuQniL+9ivlj1tgOpyH5KQ8IMQfw/si6vyiCe6VGBEREdGVpf+CgC8KEP+rbPimprmoCFKnus03HTw9PeH5Y1EJfn65qHjnIl/9Rhzl76PSYZq7AftqlIr2ZqT9uAAPPWJAraqi3fhmchfNgHpKBBRJC5FumoMNZTU4UrMPm5/3RcGchTBUqxY6NAyb89eJcdEY92NPeN8airjUJAQfXoeyOjlNB7Uoe6cWoY+HOQYxumDE56VhfH0qZt1+iwhexmPhigLUiqwIfTAYSmsqIiIiInKtf4IAURGNDYtF42PbsOHJjs1BesYXketqsG2J8+tInejGIemjGqTd13WVVjcxCQdq0hDaTc3X9+G1qCmKdmz330Hfpq3n+eYL34lAQb39qYYWlL2xHAX3pSHrqVAM91Yq2sGIfj4N0YfSkVdqv67dhMrSEuCxOZ00A+qZlv15WP7OVKQZ4hB6qzc8vYcjeEka0pZUIv2tsvar6damT+PgO1D2KzyU5xVEzb3Da1NtWvYXIftwFKKmdazW60ZHY+1HJ3FEuTNyfBtibjyK+rFJSHqwj0KAGz0v4g4WERER0eXL/SDgOqeHTTvzRQmSl4qK7E83ICthHJ8FcFc3+WY6lIfsrBJ0/RkrE5pOiAq1r97x7wcOh/80oKjO6a9fmGVtl2/vxsQUyRE9Y2qqF9V4X+gdAgodhvuHAu/XdpPmrtgeCG6aH4rgToMV250Rj8pcJL+jR9zvY+B/0TV3k1gn8Z8Iorj9EhER0dXI/SDA2xf+o4Gyz7uo0l2ohGHpQpQMX4us50O7aZLRhJLnluChecko+kIOUtEN9Acqah3b5J9uRC284e/rLQeICuCNonJbWevwAGfLl8obf8Lg+yM54L+Ud+MU4eDnDlOh8YRYl58qb+uRdDr4owy1x2S/VRMaPxerf5uvmIdNn6ZN4Ua+eZyvR+pzRbYHb+0uHEVtBRA53P4XtmWi8qhjxfurWlTuAIKH6uUAb4T98YjtCrqq2/fHMDm+Z3QDlXU+6PSQrgm15SVAyHDYl9r4bgIeiitwTNsFUeEWue78ZiEr6wPB3oh7eGrXlfGWSmT/IRuITUH8xL64dm97MDvY216WRERERFcZ+apQt9S8PNWiD820HHT5EaWjlnUz9Rb9I+ssNedUH3mydi7+wPp+fDG96KLeOikHqmjmY2Fu5pu5xpIppvN/JNOyrVIss7L9I2AHz8tpBPsy5/ze6WNh/kmWXfZ37HfCWLBYlIf6GwPNlqNl+yz7rN02S5ry3v9fr5P9+yxH7fOzpy1yudPHwpzy15pvqrTZ823BBouLLcBy8i333vlfk6OUbXfrp5Stsr1FWTb8VQ7qhHnvcpH27qcjIiIiulL1KAiwnN9nWa5Ufp/f18mHpWyV+o6d08errE5a8pUKt/8cS1YnXxQ21+dblj8SLCpkYh7+wZao1HzL0Y4LtjSXZ1niZ463LSsozBL/8j6L8d9yZJtmy8GX4y1hohKuTDd+Zrwlq8zFl2XPH7Xkp0ZZgsV66kUlNviR5Zb8zzsutO/S1oN8a66xbEiMEsGLMm68JWxZluWgi4pvc/k6S5I9bV1M56xjENBV2pw+PnbuoGWdSJst32T+lruZb6ogpl2NJSu0i4/T2TXaPtLW7VeC5QfA9Mu2udh2VaxfTxbb+Koah4+8EREREV1NrlH+kTcF3NJyLA/xkQkoGx6FmIQkxNzDJhN0BThkwJiwdYjKP4ike1w0GWppRMnLqUh+oQiYvxabDWHdNGcjIiIiunL1+O1AulujkLVvH9LuMSPvUO8f+ST6LtVWFqFpdAzCXAUAiq8qUVTpjZj8GhxgAEBERERXuR7fCSC68jSh4IkxyA89gA3zWb0nIiIiYhBARERERKQx/ffFYCIiIiIiuiwxCCAiIiIi0hgGAUREREREGsMggIiIiIhIY3odBJiOlSD3vXrZd/mrfy8bBYeaZB8RERERkXb1PAhobUTRs7MwMjgZu0xy2BVAZ65FZvQYTHgiF7UX5EAiIiIiIg3qYRDQiIL4WVhSFYzNnx3Ahp8Nl8NVTLXIfnQMfHx84JNRKQf2TsuxAqQ+OgljlHmNmYSFzxWgvpeBh+/DWdi3bx/iPDKx8Fd5Yk2IiIiIiLSpR0GAaUc2lpcGIysnCcE/lANVTNXZWDjpfuTq5iA6RA7srdNFiI+MxcEfxyBz107sNMRgRPVyTIrKRq2cpMc8hyMqPQtzKhOQvJFhABERERFpUw+CgEYUvZYL/dIYRP5YDnJQidzpufBYJirsr8Zg/H/Lwb1Uu9WAgtvSkPl8FEJH+8P/viik/N9yhB3KRskhOVFvDAxG9NPBKPlzUe+DCSIiIiKiK5j7QYCpHrW7geA7RsgBzjwRvGUn1i7xF78uXssFUUWf6A+HBkdDfOGPJtQ2XtwDvr63BQOHK1F/Wg4gIiIiItIQ94OAf5pE9VtU9QfpbP0dDMe4iX1R/f8O/MgXYTDBbJb9REREREQa0sMHgy+FRhQsHoNZa/v6daRlaPpK/iQiIiIi0pArIAggIiIiIqK+dAUEAb6IXFeDbUtcvI70ovhD11nLJiIiIiKiq5j7QcB1Olw1deZzRjSK4EJ/o+wnIiIiItIQ94MAb1/4jwbKPu+r9+s3oeS5JXhoXjKKvpCDVHQD/YGKWjg8CXC6EbXwhr+vtxzQO6bGejEfX3i7+NYBEREREdHVrgfNgfwRHOmPstcKUNkiBzkwoX5/Gcqs3UEc/X9i0Je1sr8M9c4P4Z4uQ15WEcpKc5G3v2Ng4T87DpGfJyP+2TyUHK5F7e48pP5yOYrGxiB0rJxIrdpg/bLwmOfK4DJ5bRpR9GYevJ8KxXg2ByIiIiIiDbrGIsjf3btQhtS7H8LB+Zux4Zlgp+8BVMLgMwvpss9ZUtEZxDlU3htR8KtZiC0dgZQ3NiAmoGONvOVYAdKfy0T+jno0eQ9H6EPxWL4sEsNdvIm08c2HMOE3JqTs2omY0XJgByZUZizErNd8sXZ7FsKGyMFERERERBrSsyBAaDmWh/jIBJQNj0JMQhJi7rm4pjl9owkFT4xB7IUMHMiLgq8cqmY6lIvUFZnIqx+BpNwNIiDhbQAiIiIi0qYevx1Id2sUsvbtQ9o9ZuQd6qvnAy6SqRYH3wOifhbmMgBQ1O9fB/M9adi3bzMDACIiIiLStB7fCbgsHTJgTLQZWQeTEMz6PRERERFRl66OIICIiIiIiNx2BXwsjIiIiIiI+hKDACIiIiIijWEQQERERESkMQwCiIiIiIg0hkEAEREREZHGMAggIiIiItIYBgFERERERBrDIICIiIiISGMYBBARERERaQyDACIiIiIijWEQQERERESkMQwCiIiIiIg0hkEAEREREZHGMAggIiIiItIYBgFERERERBrDIICIiIiISGMYBBARERERaQyDACIiIiIijWEQQERERESkMQwCiIiIiIg0hkEAEREREZHGMAggIiIiItIYBgFERERERBrDIICIiIiISGMYBBARERERaQyDACIiIiIijWEQQERERESkMQwCiIiIiIg0hkEAEREREZHGMAggIiIiItIYBgFERERERBrDIICIiIiISGMYBBARERERaQyDACIiIiIijWEQQERERESkMQwCiIiIiIg0hkEAEREREZHGMAggIiIiItIYBgFERERERBrDIICIiIiISGMYBBARERERaQyDACIiIiIijWEQQERERESkMQwCiIiIiIg0hkEAEREREZHGMAggIiIiItIYBgFERERERBrDIICIiIiISGMYBBARERERaQyDACIiIiIijWEQQERERESkMdfs37/fIn8TEREREZEGXNPS0sIggIiIiIhIQ9gciIiIiIhIYxgEEBERERFpDIMAIiIiIiKNYRBARERERKQxDAKIiIiIiDSGQQARERERkcYwCCAiIiIi0hgGAUREREREGsMggIiIiIhIYxgEEBERERFpDIMAIiIiIiKNYRBARERERKQxDAKIiIiIiDSGQQARERERkcYwCCAiIiIi0hgGAUREREREGsMggIiIiIhIYxgEEBERERFpDIMAIiIiIiKNYRBARERERKQxDAKIiIiIiDSGQQARERERkcYwCCAiIiIi0hgGAUREREREGsMggIiIiIhIYxgEEBERERFpDIMAIiIiIiKNYRBARERERKQxDAKIiIiIiDSGQQARERERkcYwCCAiIiIi0hgGAUREREREGqPdIKC1GXXbc1D4qewnIiIibTIbUb4pF3uNsp/ou2bci5z1xWholv2d+bQQhk3lMLbK/otwSYMA88lDKNxyCA3n5YDvyslCxN2nR0D8B/haDupX355D3UelKPzoCJq/lcOIiKgD89+qUbi3FOV/uyCHfEdOVSA950X4pqVBl5aHcjkYVXmiXwxb+SKWbj7EY/hVqPmQAeEjfDF3ZR3MOjnwqtOMui2FKPy0uxomXTJi22vOX4aRY2YgsahBDnTBw4xPVs6F75h5yKk2y4G9cwmDACMKk3dg3twdWJZ/Ug7rrWaUr38bhiI35nNyIxZNmodPQrbD+NkWRN8hh0vlG5UTQBrm7VQuB1QjvbMTQqedalq7v+7Hk3v/gnl7C5DzmRx2WTiJ4s0i3zb/BV1sbt2z58nGajng8mHcmf3dp82eH1k7xFZ+adm35/QqOYDc8t3kmzhufaDsf++j3CQHad4F7N31PuZ99BeEbKv4Dvef48h5ezdSvm7F9d/3wJTrB8FDjsH3B4l+D4xCK3Lrd2DR9os9X/Wtbs9ZvdKA4uRwjNTpoJPdvE1X0CXy5nLkZhhQfFz2d8FckY7wn2TAK6UaRz9eiRleckRnTm3EPJEf6RWy/xJrKDLAsL5cHE26UZGDgLnzMO+uNOy9uHpjnylfIbatqI2O+7koD50uXW6/5UhR5bW5JFGMm4FcWa7GTfOgW1zYi+PENWjY8j2E6L4v5vd9bDwlBzu4Bs37v4el99qm0d3+fSzNGODi6vt1KM/4PkLEeGW6kWJ6Q+l1cpzK+euwMfn7CPC1TRcQ+T1s/NSpCu41GUlbj6Dx1Ykoj5yOlNJOCmrYfKz/uAbVv/bAip8uasuP3riEQYAe8zMjsX3HTKyac4sc1lstaNh+HInV3e0GzSh+6Wnsmboe6/8wGd3t6y7JE4K18xgg1kK4dkD7MPXJw+7W2dj+yxgYfxmPpNFy2GWhGVX1It/qG3BGDiGi74o4bp1Q9r+TaPinHKR5AzEj6ikYY2NgWnyf7fj6XTh9HHus59tbsD4+HsVxsxFoHSHcPlv0x6Mi5CZrb7Hp6r+SasxPQfgGL8R/eARGo9HarQn/zkrj4l1QgphEVJ2V/Z2qQs5vU4CUt7FmyaiO5+4rwJnqRCRubxBHk25MXIojH27H9o+TMfmKWVEP3BAAfP43WzXfdLYBEeGeMMpyPXG8UNSvfHp2nGi9DoUJ38PIX12DoF/IYS6YDw1A+H3X4PSsb1F64D8oTbPg6z9fi/EJA1QB17WoeuE6hBiAB9K+RcWBb7EyAsiedh3iitTVa7HMp67Dov0WxL36H+t0ccOuwdN3DYCh+ho5TTv99FSszxqF9Ee6Cti8MGrJGry+8CMsjc/t9YXcS9ocCPqRmBwSAL9Bsr+/HX8X2WuGIGHZfPjJQc5Evb5r8oRg7eYH4G5l2A8CsN4+TH3yUPH4gRe8fnAlHmKIiL5D3x8IL08veHxf9n8Xhuhxp/zZ2VnRo9uTw6XRH8k6cWQjEPwAHpzoBy8vce5Suqvw9GUufRcZFdGI/3nQFRkA9IwX/CZOxuQ7enX58xIZAp9bRTmZv7H2nTjegCE3e8igwAzzP4CIW3ys49Ssdwja7iY4MuZfh6c+tWDTvn9j5TyLHOrsWuxdfw3Kf/EtNj3diqCA/yAo/N9Yn2vBkDXXoth+56D5Wrz2OyDm1VYkhbciMKAVEQmtWC/iyuwN17bfoai+FmkbgFViuujp/7FOF/3if/DCHCCjyMVdA8FvYTzijOkoLOnqooMHJj+eiinK8629bOzgVhBQviINuqgdqCrJQ/hd4rcuDQGPbkWVU1t+63QrDqGh6HWE326bLjx5B+ocpqtGuhiujLN3rm6rGTdli3F5KK7eikX2ZUa+jmL1ndiKPDmPdViUL/pT35f9rufbXFeNYkxG4Eg5wIUh4uSjuPN/lNhSHF2VHLp2QK8OEG1NUdq6bGw8LUdKtlu5edi491WMFNMs3XMKDfJ3wJ93o0Hd/tR0BBvfWI2Albb5Baxeh5yPz8mR7mtP1/sQ26pwEiHWfltnu60sXTiOwo2vIkQu0/fFTPfaxZ7ejUXK36wU66y61dZ8dAcSV8t2tytfRPi6rSj/uxxppbqdfapUTGtb7sjVr6PwZO+fgtEPMKNqS7Yt78RyF6nX4VwpllrT87pj1H3yfYQrw18qQFUv2wGf+FDsCzLvwt8oRcO/5Ai7vx9Czrr2Mh350mok7jwuDm/t7OU1b/un2LtxtXXb6LAOim9Podi+fSjtlz847niL2FSKOPG3E989Yu21zTcTuSeUvmYU/1n83f/taL+i0JdpQyuMlW9j6Uu2eVnTt7EUdb1t9u20L4x86VWk73VMm8JhexNdyCtvO21vQnf5ZvcvI/Zubt8XOltmt9qaFIrjlrUZUDMWvWabp7VzaLrWMd/C3xDH1N7k2+kdmKfMI0scy8vFsVyuR0COOk+M2JhlG65uCtVWzm3Hhr7eT+3zU3WumvB924yqD9Yh/MX26ZRyMPTiONhTxr/b2mxN+cFFVKJk2afvFMcckf8jXxHHeJF/ym/fF19FobpZwsm/IP2VF237lNJ1UvZ9ds6SzVyUpj8hqaI/fxF8ZX/H5kDNKM9YipDbbeNG3rsUhv3Oe43YlqKUv6tDVdYiBPiKaX0DsChD3XSlXNQHdEjfVIilYl6+kbmoOyl/T09sr2xJzftzEBcZYEuXmFd48kaH+oW1eYky7n8XoVD0p9wr+61dx0phXXUxjKETEThYDnCheb9B1EF8xd/7inpPTod6j6LzZi3zHM5/1ulWlIs6UqKoIylpGtlhHazO16FwRRf524OyslWI28d1SGcbN8rU3hRqexVyHrWVg+9d4V23X78oeviNhjimKG0VjDhzzA9BE2+DsVkJCkw4I+qDQ0SA6pLYHVzuA7d+iw+L/i2Ch84CAMU1aD4rAoyJFod5eNxssV5AbvibrR9iX1SqdEGjHU7EGDpM/Jd/DaynVoU4SVTBIuqe6mX+x7puxsPKmrngcRvuFEFCdnWdHNCJYbeJWm0VPqpzXardcf9OwLFqpBR5ISZ7JkrfHoZRlZ9i9jOlHU+Whw/AUDIYMbm26bDhEKY5THeHiG5iYFS6jwMQIYe6dgppL5vxoLLMrQGYcvYUwh8RFTI5FsMmYvuOaaL7CZJCRf+SO2S/rYtQCkKl5bxSXDfAo4ujo06nvqwyGH4/EP+Jg/4Q24CeETuIvZnQqC5z2oh3xVHAR0yTeyAfifJ33d8rsNH+DIH5U6SvK8Ai5WE5a5tVsRLfGLFs++viZN3DGkFbuga03REJkulUOr+2PDCi8I23Me/EWZy41jZu6Ldma7vY8IJPu6j8iL/bItIu9ov5EyIx33YXHebDbyM8/xAMYv+9XVnW94FPjJ8i5E1RkeiwChew8YO/oPxbMZ1ITsOFU5i3WVRWelzjsrm7uQbLjpoxRKyb37et2CjW4ckSudPcKLbD/xH/i8rgnpr2BTR8dkwEjeKkP2osAt3fU1SOI/MjI1p0tvIv/ttfMK+guj3flDJ9cweWGS/APMCWvx6tF2AQlb4n93TcoU1HSvDkF//BUKXc5DqEb7FV6BVVW0T+iu2jTlQEpoj1bDhchOwmOVLh6QM/kedV39jOOKdNzdBfa0adUUmRCaeVwT+80bZN9HHajHtexXgRQOS2yqZzA1pF8PEXTBOVGodA1x2qfeFruV16tJ5FykeOaWvb3i60inSJ6cS6l587jpB1IthTbW/d5puV2KbXrcP0+rM4I/PDx77MnU41le6omhTajwujxEHJPkzZL+065Nu1rWI7OoSAte/3PN/s/lWHlNJT1u0ySDnOfC3y5M3eBrp9tZ8OgJd9/UU5dcZY8hYmVhnxCbwQN3wYVg4djKGiHBLFcdDQzbmyS2KbtV1rbIXZOVB31nrxr+TYe+QzNCj5da4Cy7bYfhvFejz1kXxdnVkERZtLkXKuFaP0t2ClWNe4H9jKftpbjufdPjtn3RSBNbLpz5anRX94Dqplv3NzoKrV4QgxnMYDaaWoOFCKlRFfI/u+Ma7bMG9JQ9r5B7HmnVJs+cMUNCSHIHy148M2Hx33wNK3NmHB35biyVVfY37uJkR/Y0BKvmq6agPC71uBE0GpePtABUpfjcGQLYtE/aK4LT9Gzdkuzv2iy0vCFNEf/SfZb+0iMMo2WRvzeTF/r+txvezv4HguFt2XiIbJqdhyYCvWL9ThrTXvypG9dDhT1JFGiTpSqagjRYs6kuM6KJXx4memYV6xBx7LrBD5ux2poQ3IuC8cBntcfOMUJMv1WrVE9IcmYVPbem5HcrCnbTpBH76mrQyt5dqJnpTpu8/noHnOGrz94RakTm6GIXJRe9r6mMegQOBMs8iVb/D1mTvhF+QHT6MSFJxAQz7gM1gJAsyoWm/Axgqj9fzqOVicxYL9rPuA+WwdirNysFc2IdKPbYWfepe5bNkCIPzD3EVdSzEUfiJYMJ23HcF6yv2qzeCRWJkxEzMmBiAofC7WpA2Gcc1RlDtHAc03YalquvV/cp5uADzstxe9uisJL8SvmCuiMTGv6TNh+NNIBFacxCf2hyAGD8PkkLGiG4XblO3g5ltkv60b1UV03xmve59AS3IykqxtevSYH5uMlthpPWtzJunvXSybCEUhWTkwd8oDD4bHo/T+W8TJ6Hvtv4VPTtsqNeaqQ0gRW8KU2+ei2tpmNR7VPxsrgigzUsp79gBde7qmQRyCBHGSsfbbupX33mgdCtMZfC3yeOWYmaj5rW1c6S9DECNGlddXtwdjTox7CvDU12I5N0zEC1PsOWdG+cfHUS7WddWc39qWFf9bfHiXKDjzSWQfcL6S1wzPu55CqTLdr6OQM1AM+tdJ7D1mG9tThf+6Bet/razDb1E9/RZrk61CsQ62fPPC5DE3Wcs4vc5eST+JPfVKTXEg5o3u5TMr33gi/pe2da2eG4AZYlDVySOisikZTfD4scjfe+biiDVtYro5d1hPXhs/t6et3Z4Bo7DdaR3K//qpLIcj2PtXJeWq/P11GB5wqNiJCoKSj83nxLzPoeGsBxYM8UKDSeS9+QzqxDEk4kZ5a7VP03YS71c3i7/RY4vMj+Jfi7K9ZQCMXx9qD3TdZN8XMCQER+V2ac/fjR/vl8u0b29AzGT7dmRbphLs5bZtb+7km3DiEHKUV4mJZVbL/Cj95TQkiQpr+zLd1Nak0H5c8ELyfNs8rV24/W0F9nxTp+1RrFfO7xeqe5xvbb75Hhb8zDY/+zrAfBx7j9pG90xf7ad3YKl9/UM7399OnLOdSGLvj8HKh+Yibv4TKFw4E9vvvxeTf2Dbc93291IkGjIxQ+le2oF0MSji9rEI6iQI0f/kJ0gVtcU9n70tKkvy714r7bAvuMNzZKQ4/om8F789hrf/Njadss3vaxHoKMGI51i8sjgKcWJdVy79Oarvn4bXA29WpmjTd+csj/amP0qteMD1uKHtXC26totnVSj+Yzki0lYhKTwIgQFBiEhYg5WLjEgvLu9QYSn0WYD1T0cgaGIQZiwyYFVaIMrf3Ouwz3gMu1PMJwIPRohK3cSZmDwxAg+IHbrqfPvcGkS978Gst23zCggUdYKlok4QJ+oXxW31C6+Rk8W5X3RBt0HZTfwCZL+1GyX2tJ4xVhajGHFIXRGNGWKZgdOjsXLenfhIju+V5imijiTmJ/IjKDxJ1JGiHdYB5xvQ7JeALa8aED1dLFOsw/yUHBEIlOOtUplrHnoEyvWybg5et+HutvUUw25SXen0UJVhp9FOz8r0zl+nW6cLmjgD0RmrsDKgHMWVvbwb4HQXQ3evrX2C3RC9qNCfbUYLzljPIT4eHvA4Jn6bzfha1ID8lFOWuQ7lW3Lx9L2+GHHXUrx1fgjmD/sGe347AyNuCkD4/32AupM9PD7YmQcg5fbvI25719Vl8/7vYaTv91DsXCd20rDh+/C993vt9YDunDwDd94bsccaGPWc+0GAOALcIH8qvHyUo30rmp2v4DpPd7MeU0KvU56B64WBIsqTPxWDB8FPbI72h0KuOurScCoZ0z9sGf3Z0a22k4/SvSMr4t/2wctiXfEMQHTIHfBprUaSfZmv7scHcnQHJ3dYp5l2QFRcrvXCCz9VP9hnwhnrBWgzst+T8xLd0sO2Pcbc4eraINw2RNnGhGtvwW3etp9ik+udH4qoWuapxxBRGbb9bOMxbiwSlJP/qRrsVfa4k5+i0BoD3IopvX1u/frBGCpXAUNvsj0/Isqq7VB0y0+wNOhmeH5Zinn2/H3vCDqr20UMu6PjOvzLfpVA/G+9gilODrdaB4h8G4ZAh+aSN8JP2Z9MZ3ECZ9FwYRCm+Hmi8Jw4eJwzWZsBjfofedumT9MmtgfrRQoj0l6V8zK8guWnZGH2sEzt+0LETcNEtUUaOg2bYmNgfHy6fCbHvr15Icga+SgGYuj/2B5Aat/e3Mk3wdSMPcr/xv2IsOfHqx+iUJmNukz7lD3f1Gm7CX4/lL97uy/8YBiCZDFj4M24zVoxEOvQq5Xo4/20Gz6etmXl/iUPGz86hPLjRpgHB2Cy2H8dKj7uaG1Bwzdm7FE6kV79AC9MGe7Xvk05u/5mTL7Zy3r3ptz+d//s1YnN5toB7Veg1b8VN3ja7hL941OkbCnF3sojaPiHB0aJ9Zw8bliPK7N9S2woIlK581b1UdQLPkqvqwrLYC+HPB0iKupTBvewrAS/6XGIWxLksO4eg5TaxumO9ZC+NOdO3KZO7s1+tmN5b4nKuGMdKVDUkXTtdaRBgZifEIcZDs2Wr8f1YsXVQVHf6lmZ+vmoS8HWbr+3lVDnO07GrUo43E7vd6cIFBpw4lQDPvG5AdfrfXDbma/xjThvNYhleynRnkcglhZUo/HcEWzNnI/rK9/Fxv2imj0rCVuPmtDy2RYsHdvzbU4L5Gm7H42djeL3F2NGby6lUwfGVnnysXatvX4i3C1Ku/51W7Hos1PIdWeZojKkTFOnXEUd4Ak/eUPBWZ2obbStQ3e33r8r196BiFHKQeIsCj8519YUaMZwUbm1TtD3lOYq098oxdITRhTa88PcarsS6IqoKLQZIiq9ycloSY5CkBzkDlv7YVFBPqYcQG+Ez7DBiFDuDPxdrLc4VfvJs1N/pa2t8qR0fVpRHAAPsW5espLYb+Q2bu+s2/qVRhz12yuc8spx25Xky5vf9IUoHS4qlf84iUV7dyDk7XXQZyrPT73f8+ck2rZT0UUF4O7WZix7r6jTuzrNZQUIqW/G10NCYEyUf9fLu8Td8piI5DljEXe9Gbmf/QXTdxZgZNZq6FauRnp5/z//0J/0YStFnWCpyxdodOlkMRJnj2y/YuziqvEVaexSkR8rVXUkc/szFG3r6mt77vFq5HzHyfl2xWA9piiN9c6Kc5b1TUA+8BtkxJkzDfhI/BZ/0m6QH0Z5lCN7+4NYv7AO2VvM8LrlIiv/Hq1I/exfMEzv+mDvcc+/caTx392+YtZv4b/Q+OG/OzRN65QIot35dEXgoN6tZ/8HAZeTAVd+JBgxbrHt5KPu+ulE1FBz2NquP/CWae0nveSZUJ5DcmnoTDH+KWxXrjL+6yTSSly9T9sL6x9TpV12m+6/9FGi3+iR1iYlucdKUXhCqVF4YUFgb28DdK+qxtZcJSIwqj0vHlOaePUf/f8ol03Oo6H+HD4a6IUhN4pgzXQWe6wPPd6IobIhcf+k7RaU2uel6vqm8tkKs6kZzab+vCQoWLdx53XoWSBGF+HaGxH0UAyqlePRUzEwPjITOUM8UPf3aiR+eBHv77/lJtvbgZS7Op2c61tabFHr3UOGwes7OHN63DoNK58S65kYD2PsYlRPHiaOTxeQUlp02bzn/btTh5xHwvHW4HiUHu38qnFPeQy4/K5ONm9Pwuz4BkT8qRqNbVfIq5ETLifQGo/r4SnKv+Hw1/CzvgnoengM+gQNdd/AOMcPQ21T2ZzciCcfzoJf4gLMnxePoM3hWOT0/MmVQ5zPlJsrPiIwsg3oxGmcOSbqL/pePbnagyCgWWl/1a75jHKyHQCvfr7w1pf0t96JQOzF5xfxYYVLxfMHtoxu+Pvf2psenKpAjvKxr51dPaTrJlcnvtb/WP+7QVQW2056p5SH8royEJPvt1UWiw/vQHHbRStP+FhbYpzH56fbK2oN5VthEOuw8XA/V96+MrY9SGk+fdb13YxbJiJauXtx7ggyrHXi2zGjd/uVG8wwyyvhQ7za27x1mrZuechXKhpRZW+P/e1xVDnfof2fwaJsWtFgbEaV143Qe/hg1PUmfHC82frAqq3db1+nzQt668UdExranqG9gKqdyoeyClBsf9OCm+z7QuGp4+1vIDqxA/OysqH/83Z5Jde+vTWjvMG+bV3Aib/bHor2GGC/c+Fmvnl6WZ+HUG9HuPApNir7X/5FfmwP/3a9/7Xlmzptp9Dwlfzd3SNVvaLHKNmk5xOjvbAuiH3W1mxviO5Sfk7ViL1b5MfVlOOKcly6OQDRY2wVuT57f38nZ0X7A7gfiaC5v5mP7rYeFw0fipPVtR7w8hTlcvc9WKBs+t9ewJnefur+VDESo2ZgxlOFF7HNioOEyPJPjqnn0IwzSq+opLU/ktqHztahqgKIXrIUQbfYrxh7if344s58fndEAvmf4POuZuM8/m/KFWhH1odXm7+RD5fbNFszZBT87E3v3NTw6QcwhscgOnwU9G1Xx0We2w5d/eQSlKm7bvITAXoDyivq4OejBAF6+NxqwieH65zSZsbenBTsmfoCUueIlRk0GcnZMTiR8xqKe7zLWqCc+gorrnGoW5n/do11v/GzP5Yj9kelilB+WH3QuBYnlDrmHEt7gCKyNxDXoOqI+psA14nARqzNaGvWu9CAunJgit65baqTs2K6apGmwb0rJfeDgLNHkJjwPoorqlEuDsRPJp+F/skRCOrm1kcHrRfQ3CwiHGtnq2l809bf3Fb56BlxgAwSB+jCamwsPYS91u5TWF96ohYwGQsC9iBnU8cHXfrep8ixtx025CHtH8qwZqRtlMN6+ECZR+BYpIoNqerkDgS8ZJtHwJu7saz+OBp0Pso21gs3Y5S1yc5JzJXzVDr7V439htoe8FQehAvIVMa9iJFvf9r9h8WGTEOy0rTm27NI2Wl/0NYDQXcNQ5CogKZvX217sC7zRdy751MkHjfBy96uuJ9E4DimW9fxRQRsP2mtKM4YOtJp57sRMwJvgl5UyJSyiR4xupsI/GJ4INDXVsHO3tueHwGlPdkq1EZi8v8qW4EZy/JftJXlS0X4wHkPH3Kj9TZk9mmjfAjYE0MGNWOPEvR4yjcD9XnabsHMAFGhFdv/ojftaVuNiZXHkfgF4PMjOZmb7PsCTpdijH1feFt5/S8w/657ZDMD+/amWgexzBDl9ZXX3oToCfa2am7m29CxWKo0lTIdwr1ymSH/txWLxP737rX2fOspcdzSKxXLC+35IrrED+2Rsz3f1Gl73fZa0YEBmH+7baq+Fjh6pDXfCj9+vS3fpivxgMcwPDahf/YI44fr2tZ/hv0OonzGSOlsxyRPeP37FBLrqzF3XTYSlUryxnUI32mbPuZHjg/M9oj1IcOuef237Rhl7IO3A3XH4weiQnZc7B/730b4ujxrQJCYk4enlfOIh7Ld2KbrKWNZrgha92DPmlzs6fXFsEDM+E0QCpOXIX1LOaqqy1H4wiI8tT4QqRH99L79waMQOBHIfS4RudurxDL3onhTOuJe2CsncHLTKNwdALxbuFHUBfbaukO2N8eoeU2cjGgYkL3F9bFNP04ETGJ8yjO5KK4Wy92ei8S1H8F51wsMWyq22xQsTd2IcjFd+ZZ0LPpVLoL+8KA8HrnP744HoN+SgsSMQtu8SguRE5uI1zqpyI4KiBGByrt4a7tcT9HVqaY1q+pX1jdrtn6Dr9uG2XPkEpSp23ygD61CQWEVbpBPp/vc4okGsf3qb1A/b+KByWlH0PhK+3egvMIMaKwxYEb7tSyYT10n8miArZNvNPq8XPYfuk5uI99i8iILgl6+FvNeGCDK4TpRpt/DouhrcPrJbzHDHth5fYvH/iDOMU8MEPk2QOTbABRmDMCiVHE8Wvhte/0i4FskLwSWielyt19nnS73t9fh6XwgIcx2sdWZueQtZFTPwLzJXZ9dGrbkIlefhAfu6V0puR8E3BqA5NCzyI5+HyFzj6Nu3B3YuiKk55WkQ1ug12fburuqre/yTZ8t+0VnOGSbrKcCF8/EqlFGPD1tB6Zbuw+xp0PTyUAsTYvD6dREpHX5AYa+0Cp2uI5th9vaw/f0gTKPO5C0OBLrbx4ID/lcAK7XY9X0n8Ngf5tPj92IiAenYeUNoiKietag2d5O//bZ2HT3TZghRivpPn2tWN7ce/GAHN2VwGk/QZzYuqpOlOIt+bJcj9FzsUVp5zpwAE4oyxLLuVN/B0oXP4EZvV0Fdw2fhk0jPHC6pRUN1w7AfNG/fnrHpj4ed9yKSOuvwZjh37+J8rr3YVTcPtj6mkalrfw3A0di0097/wxCYLjIX7F9jBLb3h6xnn6jwxBjf1DT7trB8JNNLm3vFfdS7jbCKLbPQBEU2Pfnvk6bfsoTOHj/MEQPkG3qWwcgeuhPUP3zyJ6/flW1L9zwrW2bNQ8YjNS752JN29uoXG9vQTcOE9vbo5isijndyjdxOI9YvBjbhw+2viZXWeYZucztD3bx4ZFuBM6wrYfyWlX7/tcgm50oOuTbtwMw4+axqF4ys+1B7D43KtIx30RZzVD205/NRWB/1QZaWtrWv+05IVWe2I5JIjiNfBSlogxuFwGlQfna+Qkj6gYMRNy4uUjv9XFQ+MeF9osbLu/KiJOySMd3Zsh9WKOUwQ8GoM54UgQ+x2EQwd/tyvb7s17sM5I+6EHMF7uIfvIU3NnDK9RqgU9tQWncEHyQHIKJE0KQuG0IEnZvR9LE/tpARmFpQSkS9MVImT0RE3+6DNlVfohLeFCOdybO9a+uwqjtT4u6wHRb99IeFw8tRyApawYKf/s0co+4KN9h0Vi/eyX89qYgfMJsLNrQggW/XtDxyrgy3V9SMepQCkImTERI8gcYEleKLU8H9rgC7TU9HTtej4D5z/Os81r0u2KYFyYjxv5yACdeYXHYkmBG9my5nqIrbAvwjCiM1Yu6la0Lf0EM2rIUAbJfH1vYdjHyuy9Td12PG3zEmhgDbW8CUoZ4eKBwSyHuvsXFrXrbDbt2Tv2msutEHl1r635luzKfHiX7X7qmbRvxGNuKLbstGLLtWlEO14kyvQY3PP4tDma0quq93yLw6f+IfIPIt2tFvl2LRFGpjdnxHxjC1AeS/yBi9X+w/p5rYHjiOut0huMWvPBxK+ICXHyvQGnWFG3A0D+kYoHTq+7VmveLYDP2E8zPjO31V6CvaWlp6eqLCVbKR8BCDo9FY14/PQT1nRIV8rVPYlrsHty+JAFJz8Zh8kUcDOkqU5UH3w9Owvg/P4Hx8V4EuUR0BVI+kmb7eJt+gAdu/94wpNu//v7ZVszYcRynW2wXc2LuuZgLL3T5acbe34Vj+gtnEJGQiuSU+f0X7GqC8gG4EPkhUhfmrBd1yflXQV2yH5gbUJyRiGWpIpJYtAnbX4lwfeHtbDlyfr8cK9Z+htv/8DYKn+793Zr+upZ0GfPAqCXrUfPxakw+n4vyHrZHpquZGXtrRQAgfsWNnsgAgEgz9Ji/cDZW3TgA11vvip5vbzryr/PWuxF16IM7DnQZ8sLkP5SicUc8hny6F3VX9suXLgNBiGt7oNlFlxXBAKAz58pRWD4E8TsacaSzAEBxfC+yz0/G6o9rUHwRAYBCg3cCiDpx4S+IW12KbNyE7fGP9vr2GhEREdHlzq0ggIiIiIiIrh4abA5ERERERKRtDAKIiIiIiDSGQQARERERkcYwCCAiIiIi0hgGAUREREREGsMggIiIiIhIYxgEEBERERFpDIMAIiIiIiKNYRBARERERKQxDAKIiIiIiDSGQQARERERkcYwCCAiIiIi0hgGAUREREREGsMggIiIiIhIYxgEEBERERFpDIMAIiIiIiKNYRBARERERKQxDAKIiIiIiDSGQQARERERkcYwCCAiIiIi0hgGAUREREREGsMggIiIiIhIYxgEEBERERFpDIMAIiIiIiKNYRBARERERKQxDAKIiIiIiDSGQQARERERkcYwCCAiIiIi0hgGAUREREREGsMggIiIiIhIYxgEEBERERFpzDUWQf4mIiIiIiINuGb//v0MAoiIiIiINIR3AoiIiIiINIbPBBARERERaQyDACIiIiIijWEQQERERESkMQwCiIiIiIg0hkEAEREREZHGMAggIiIiItIYBgFERERERBrDIICIiIiISGMYBBARERERaQyDACIiIiIijWEQQERERESkMQwCiIiIiIg0hkEAEREREZHG9E8Q8FU9it4vQv1Xsp+IiFxoQeP+IhTtbxS/iIiIvjvdBwGHDPDx8em8y6iUE7arfG0Slixegkn/V3Z5ndhMlcjLykbJCdnfS03vLhHrbkDHNb/0LknaThdgidgWDIdk/yVUmSG2yScK0CT7yT3fTb6ZULkxG9k7GmU/4XQRUucswZI5yci/yOOS274oQnKY7fi95N2LK3FTRTYSwibYzgV3z0JCVhmaWuXINqLcsxIw627bMieEJSB7v/NyK2FQ5uGi6+q40iLOT7N8ZiH7sBzgwITaNQsxxjqfLo6JplpkPzrGtjwX57M2Pcy3rtLWId8yStDYm3zr8vzccZ0b308WaVLGLUHBaTnQSccyrRQpcdYxbYbdLvbrC/UoeG4hJo1RphuDSY+moqCu49yI6NLoPggIiMGRI0dktwFxYlDYH/e1D3tynG06lXFLDmBb/mbs+2UwdHLYZeGfjSh5LhW1vENBdAm0oLEkFamH+zfUuKIMiUTars3YXJSGOUPlsH5krQSOT0b9uGiEyWG91VJtwMLwbBinp2Dbrp3Y9rswmN54CFP/vxJVpbEFtasXYlaOEVN/tw07d21DSpgJuXOmInlHx8qgw7lFdjEBcqSzC5XI/n06kJqGmNFymJ21Yj8J97/mgTmPBcuBHZmqs7Fw0v3I1c1BdIgc6EKP862LtLWUpmKSOt+ej4KuRORRfJEqCO9JvoUhY69jnu1MDwVG69rPv62NKHp2FiYk1WP8ks7XwLQjWaQtF6Ywe5lOhTFnFhaurlVd0GtB2XOTHNKW9ogOu6JmIfY99b4tymDuJCyvHoEYw04xXRaSxh3F8skLYajmfS+iy4KlRw5aMvV6y+ICo+y/wnyZb1ks0p9ZKft7yViw2KLXZ4rcuPxckrT1Ub72hYMv6S36x/MtV+gWesl8N/lmtOQ/Lpbz0uW452iAsp/6z7EsLzopei72WN5s2ZUoyvKZXRazHKIwV2ZapuoXW/K/lAOad1mSxHKSShymEtvbVKftrafpEfNYKeYxM8tSI4eoKdvz+MfXWWqauzomKsscb1n85xqxNl1smz3Ot67SJvPNaV8z710u0tiLfBP57fB3VictGxboLVNfbl+6kgf+kcst2xpFj8u/UdjyQP13iuaieDF9kmWXyEvbAFvaHPPAbNmX6rhetnWKt2w7JwdYKdP5W/SJu0ROENGl1ofPBDSh4AnbrUF75+qWqbXZQUYBiuImwGfMQuQda5S/H0LqbqfpvyiBIWaS7XbumElY+FwB6i/IcT1gXaYyjztjUST60+UtXVvndMv0Qj2KMpxuwVa4cfvyiwLEjhmD2Hcdb4maqvOQHNXVrVXbbfAl71Si5LmFmGCfbq36ykvPmY4VINW6XNst2JIv5AgrscwxPrh/Ta3sl74qQoJYfsL7bqyvK6Za5MryGjN5IVJdNPtoOVYEQ9ws23r6TMCsuGxUOt+Zsd7iFuUiyt+2DqIcolJRcMwpR+StZlueuVpeJdLF+huqbX2Nbz5km6+1rwlFv/JxuKrWp2kTpVy7MRkLe7oddUbZF7pLm+DWrfxu801qbURJRqzjrfwO6+mGtiYLYv94T/S/MEv22zrH5h4umkD0Nt+szdSWiDSrt8vYDvNz2RTKmmZ1k4k+3k87NOPo2HTDpsVhO+qq7Lt13XDEFG1GykxfOeBitMB0Dggb5+9wt1f3I1/4iqNs45dywD9NIl/DMP42h6ngO1Sk4b1GdLLldaulIhPJGTqkrIyBvxym5hmyDTtfjYa/pxzgkieCt+zE2iX+4lcXephvXafNA7r/Ev/d6OmYbx5Knw6662z9bufb2DicObMWkUNkv+JwEXJ3hyL6AdXS/zcG2zalIOzHst8lHfwf24yMB0fIfhtPvbLeTTD909YPkVYP8Z/3QMe0eSgDrethY/pKpHJmMPx/KAdY6TDCfzzwWi3q5RC3yH05771sPCSOR7OeK0Njte33hCdyUaveCS/UIi9J7qNK12mTJiLqwyDAG2F/tN+OtDUb6lRlIzweX4u1DzUhYVk2TA9nYe18M7JX5KOtWvpVCZLDFmLXD2OQuWsndhpiMKJ6Oeb8QX2r2T3DZ2/G5nzRvRoH5cZwVLrst3ZhGG6bTDCh5A9zsKREh6jnlduXm5EU0ojs8IWdtDm1a0TBC8tRFrIcSQ+qThSHs7Fwejoag9S3y2dhoXPlW2hck4ldIxYjq2gb1i7wxK5nF2K5i9vl7tmFdX82Ytyvs7AtLwnB50Q6lma35y3GIXSpP2rfKVMNE2tfXoI8xCAytMtTYqeKXsqF6aeZWFe0AUn3mJD9qKhwqfNNlOnyyCXYNTAKaUqZ5ou0fZGNWY+o02ZXi+ycXRj+uFiHorWIGpCP2MjlKGmr/LSgbNUcxG4W5blOOeHHY1xdHtZ9LkdbeWPEzCYYjUo+tqDxr2aMG3sURmttz4jGz/3h+yO5rn2aNjHFmoW4f0Ujxqtv5Xe7HXVC7gt5mIO0IpG2ohRM/UpJm8Hx5Kdsbx2aZ8zCpBXqZ3PcyTeF2Bf+P7GtlnjKW/mZiBlaK/LIcT3dMjRM7mtrEac0ufhZmmr/24wwVTMYJd86NIEIn4T0/b2qalsVrTKotstGpPa2HIQ+209VzSz3/bHz5hkt+zOxMK4Wvss2YOfBGuyzl/0v83pegfb2x7guK4GXgRPKMxKyfb5yYejdetW2K12oROazBuhcNQOSho8d13XF3mo4xk1041jXk3zrNm06jA9PwrjXMpG9u8m6bi1fiUrrm3nwfmwOgr1tU/We2L+3imPW/CiH/co7YBx8B8ieTnli+D2i0j5EXbkX23z9QTGD4fC2V+Z14xH5zDjkrspGyWnrGsB0WBxD3vRG9E+DxVFXGiDm834tGp0K0HhabLnqpkpua0StaTxSclOgz0pFcqkvkrLTMK4iGXml9n1QOb4tREKtL+LyduJAzb62Jk2xG3sbchJdxeQdATe5e8u28+kcmh0otyXVv1W3bI1bYyx6f6dbuPXrLHNc3sZ0U3fNVs7XWPJfzrLsqpf9VictG+bqLVNzHG+tOqfV3z/Gkq/calWpWeXf8bZvSZLTetnyyvEWbLNl2zKRT6n7LOqbwe6wpS3Jsuu8HKCozbJM1U+1ZNXKfsVfN1iiHIbZlun/fM+Xac/X+CL1Dd4aS1ao3jLnDeUWuo25Kt+S9fIuy1HZbyXSMcc5bdZtYY5lnboczm2zxItlJG23L8OWb+r5229nq/P84Er7NCct+dGZlqycMEtmleg177MsV93i7tu01Vgy/TveLt/1jMjfXjSFse4L+uWWfeqCkctMK5f9gnV7i84Xa9rOditf/bfu5ZvFuM0So/d32leOWtaJfaH7/b8z3TUHkvn2tsMa9HpfsG+Xjk0qbNulen922RSqQ5OJvt1P1bpqwmcd98gGhzK1/NtsaW5uvqhl2tfnYsvS+vfmg5a0IH+Rz2L7dz7GWvtt+WguT7OM97ftcx3X2ZYe/6B4y7rKk5Zm41HLrlVRFn+x/2VWqtfURVObDmXlqKv8bdfdtmnXVb65nzbj3jRxbBHLk13wLzdYjqpX0+18cyKb6jgei510k18OzovjpNgnw1T7i9W/jZZ9K+e0pV+vD7bEvHXUcZu0nmPE3z6zzXJUOR+J7fZkSZolTJm+p/uMw3ZlKyv17/bysPVHveWwx4j1aBb7zMXtMURXo/55RWhfaG0BJiq3llUGesJTfau5rw30R2RsDEJvlf1WHvD4b6D2QofrUTani7D82TIEpyYh0ulqUUtrE3Cbb/uVEUHnqQeaatHo9GYG3yFieBtPWO/AftHUy1uYengOlD8VN+pFPtaiRb0KQ4MRdl8tsnfIRghflaFkozeiQsb34gqNja9efVVND/1QoKypvZGFLiASMbGhqjsvgoeHWFuntFmJslavww994R8SLErDccJgkb/tvOF7m/wpeQ8NQ9mXShqacPQ6XwQP9cfRRtH/ZSNqR4uykUnu27SJ/8Ui/H0dSh6eN4rBnzcqo3pG2Rd+6o8R6oL5YRgyzpxB0kTZL1i3N7FO6hyx3coXy3S6et9dvuE/LWItxsP3R7LfSqy32BeKTvTXFTWZb//rsAYXuS+ILdFTnXF6jLgnGJ7dXhV1rW/30+55Kldgd+Qhe2MJKo+J5SjNIQeIbcnTsTnJlW84wvI3Y93baYge62td79Cn0pAUUot1+4/KacQWUpqOxV00A7qU3E2b8tagxfPKMNywDQeOHMGBXVkI+zIdc36jfjC4d0z7i5DrHdfru7kOWhtRkBSL7B+nIO1J9Rq1oHL1YjxUOhwZRQdw5MgB7MwOQ9OKOYhXPxg8NAppr8fA470lmDTMBz43T0Lyn8tQKY43caG9P890zVMc871R8kY28nZXor7JJI6LYrBSd3A4DhCR4vINAhTvxcrXu8lOtunvPy2oXWtvA23vZDvmDtJtr1q7cwkK/jsGMepmQGpO7Z99wtLliEvNF2E/i0LTa7tQJupe1qZA3osx9Z5+PFBeaG+b3ZYfbpepP6I3bUbKtJ7dL9d7i3KpF5XgLxpRLyq+/j/yhelLo6hsNqJs3Ij2CnM/pM3x2RMfzHpBjrhiFCH2TvU6dLYvXEm8EZq6GZuXXG5VSNd09yRhW95UtLyzHIuDx2CkqEwpzzXkVvdX2NELunFI+qgGafd1XfHUTUzCgZo0uK6f2pqijPux+vhjuwDTpATBUu2hbDT9dDHmdNIM6FJyL22NyH8pHS2/T0Pa/HHwFcGc7+hIJK2Mx4h3DMh30Uyt63xTa0TRm3nwXxqG4Is+jIsAIH4WYv+6WGx/TkHNiXxkvtAigp00RCkBm6c4rj6YhLSEEShYpWrSK/hOS8Hmj0/amr59loXxJhECPJyGxf12ntEh+Olt2BDagoLnFotz+UjccvMYTIrJRe1ltMsQXS4u7yBgZgb2yXaz6q7TV8ZdJNPu5Vj4bCPC0vehpm15+5AxU07gIA4blPG7xMH5WDaynR4IbvPUBoe027oMhKkf5LpEPEMjEdOUh7JKUSHeoZw8QtHxha99xYSSFQuR3BiGtLKa9rzYK/JCTtEfdL7DEaw8SCcq/VAeqhNBgeeJJtR+WQ//od6i6qHon7TF5cn5qLs/hjncGbq8dXz1oLVz8Vpg6j++98UhI18ck86cwcmafUib1ojkR7KtwbsmOV8cumwurAjdpq0JTbud7ygJfsPFsbcWteLY1GvWB4L9EXnvxQa4jSh5NlYEAGHYkBOHcc7Bx1dNKIEv9DfKfmn4cHFcOFwrjrVygJ28c2V6PxPph8Kw/Ol+PgYO8EVoQgY2763Bmb+dRE1ZGsIak7Hw5cvsu0VEl4HLNwhQHipqNMEsDh7KAcTWKa8f6D+NdSVomrkYUTOHw7ttmSIdLt9I5GEbPzoaaX8aj4KUdBQ4vIFHVEAHiEPd/xM/2uYluoH9uw42RluzAbtzRnFY94fO+eKLbjxCn4L1jQslG/vi5NGVRhzd3YSwx6IQdquofNvzQ6TpYi7QlH2uDr6a0Oj8gOuPfMWaH0XZ/lpb8xwRBIxoNIqTbRHGKUGBVV+nTfyhWJSpVSl6OS+l62UTFOu+8F4tjqrPYPIDbekVsl+wbm+HHd+4YjIqfb7tD/VJ3ebbdcqDe41iHVTpF13/br22fKv9q8MawLoKP7YHbH1PN1Bs9//PDLPsV9jybbiorNn6L40WNFWXoexY+1ao8x6OsOlTRZHVd2ji1edOlyD1iYfwUFKRwzZlY2veVlTp+Hakli+V7S+svRnZf3mKIi3Cwc8dpkKj0qTsp6qma18UIGFeAgocPphmgkkcP/1Vb6EZ96SLoDSvy9dQfGfcS5vYr0ZD5MdRxwppXa2oWHtjhL0Jobv51kY+EHxfNMIu6i5JCyozYrFw9wiszUlDqKsHosWJxB8HcfSvDmuA2uoSsf+OgEMrSDtxvEr9TQlC/5jSodlsn2ppQu3+MtTb9w1x7PS+NQxTQ8UuIwIs3gwgctSHQUALTCZx0Jad9YR6ob3f5Hi86Jb3PXMQ3ZSN1JQ8lByuFTt2CfKenYORc3JR+x85UU8NGY5x4gBZVFQgKoXi5Kp01bY3NCh8R4XC+/10pGYVoVIss1JpX/mbVOSdkxN0wvfhFGSFlCH2uQKHk6X/fTEY91oyElTzMywej5HiYNi/ByPbGyqKDlWicncekhNTUTs2EsEdTg46BM+Ogf61XOSNdjW+L4nK933itJaRiuz3K1F7uBJl7+ciYUVeL/PCH+Oe8kbZC8kwyPkVrc5GkXPApvPF8JAmUdYiBdaKiR6+AwtQUKF6M1A/pC30F+OQm5Kgmp8BC+8eiYTdPZ+jdV/wzkb6c2JfOCT2hUNiO0pcjqKxSQgLlBMJ1u3t/eVIXi23N7HM2KQ8+D8dhvFt9Sg38807GHMeMyI7RWz/u8UyDyvPjCRjzsiHkFvXw525jTeGjxMV7veLUGDf/0Rw1tQ2O1u+Ff1BnbZYJIsANSmsv9oQi6VOi0ZoaToSXihwyLdxz4SJFPUT9bHRmvfm9v62g6UO5s+z8VBkrDU/6puaUH+oBLmvrQNGj8PwngYosoJkz3flWGWqP+iiHGyayvOQ/Z4Y91oeyjp8zdgTwQuSMG5tPBa3bW/ZiP1lOowimA61p80zGFHKm2TiFreXaVYsYl8wIvphcbyVk+HHwQj13oXlyvHWur2J431KMjJLQxE9TVUK1rbdzl3H0NR0zL6eZThYr+xzje3r3hZUmVBvH7ZfVGqVCzZf1rb9XVtF0t18cytt/pizLBJYnYBY+3mh7Rgdg1D7XW53882uRaRnYxOifiYCMDlIreV0+3qV1VrXAEcrZb/qHFi/dg5mveCJtJwUBP+3ahsVnbVtvWL0HMQ9DBh+E9t2fFOODcnP1WLcL0Jd7DMmlKxSjlcpSPqZq9T1IZ0ZtS8/hDlxyvlPBMoiWK7cnYt1r4mcv3N4x3wj0jr5gLCbungzgnx6v/1tAY6d/W/cfTuQVeMuS+bSYIu/dR7jLWHLsiwHHT480nPm2nWWmBD/9rQ5vBXEbDlasNwSFWQbN35mvCWrvKbDWyNcvqGhMd8S0+HNJhZLc9UGS9KC8bZl+QdbolLzbW9KaOM6T3v78SZ72na1rae/JfiR5ZZdTm8uamdbvuPbYnrI+Y0gVi7etnH+qCU/NcoyXskLe3lWufhbd99eoZ5fUJRl+faTLvJNfsRGn9ZWXtZp1B+/UfR12izNlpq3ktq2Jf8Qkb4Cp7dn9ISyLywLc0yfi32huTzLEj9Tbm9BYZb4lw+KlDhxK9+Ef5+07HopxhIstuv2/aGLt46443yNZV3bPq10znnZbDn4crwlzGEf7OUyXW6Xrjnspy7zrW/3U9s22FmnPrY45od9f86v78WW1OUx2sU2LY9p/pFZlppOFtdxe9tnMf5bjmzjokzLXOSY3C5t21sP1tPFPtll/rYdk2xl6nIa0bVtNz3NNzWXxwtxninKbM83l+cFhZv5JtjeAub8Ya52tvOCOt2qTrX9dpVvDvuRKKttL7Wnravjm/J2o6l65a1svT76Oe3LXb0dSDh30JLVdqwUXaf5S0TXKP/IeIC06HA27p9ahuiPNiBK9V5pIiIiIrp6Xd4PBlO/q9yhtCMNQzADACIiIiLNYBCgZS1l2PVaE8IenuqyHSkRERERXZ3YHIiIiIiISGN4J4CIiIiISGMYBBARERERaQyDACIiIiIijWEQQERERESkMQwCiIiIiIg0hkEAEREREZHGMAggIiIiItIYBgFERERERBrDIICIiIiISGMYBBARERERaQyDACIiIiIijWEQQERERESkMQwCiIiIiIg0hkEAEREREZHGMAggIiIiItIYBgFERERERBrDIICIiIiISGMYBBARERERaQyDACIiIiIijWEQQERERESkMQwCiIiIiIg0hkEAEREREZHGMAggIiIiItIYBgFERERERBrDIICIiIiISGMYBBARERERaQyDACIiIiIijWEQQERERESkMQwCiIiIiIg0hkEAEREREZHGMAggIiIiItIYBgFERERERBrDIICIiIiISGMYBBARERERaQyDACIiIiIijWEQQERERESkMQwCiIiIiIg0hkEAEREREZHGMAggIiIiItIYBgFERERERBrDIICIiIiISGMYBBARERERaQyDACIiIiIijWEQQERERESkMQwCiIiIiIg0hkEAEREREZHGMAggIiIiItIYBgFERERERBrDIICIiIiISGMYBBARERERacw1+/fvt8jfRERERESkAde0tLQwCCAiIiIi0hA2ByIiIiIi0hgGAUREREREGsMggIiIiIhIYxgEEBERERFpDIMAIiIiIiKNYRBARERERKQxDAKIiIiIiDSGQQARERERkcYwCCAiIiIi0hgGAUREREREGsMggIiIiIhIYxgEEBERERFpDIMAIiIiIiKNYRBARERERKQxDAKIiIiIiDSGQQARERERkcYwCCAiIiIi0hgGAUREREREGsMggIiIiIhIYxgEEBERERFpDIMAIiIiIiKNYRBARERERKQxDAKIiIiIiDSGQQARERERkcYwCCAiIiIi0hgGAUREREREGsMggIiIiIhIYxgEEBERERFpDIMAIiIiIiKNYRBARERERKQxDAKIiIiIiDSGQQARERERkcYwCCAiIiIi0hgGAXQJmNFQWojC0gbxSyvM2Ps7X+iiNsIoh1xdtFimREREV66rMwioSIdONw8bT8n+q5YRG6N00K0ol/2X2PFiGDJyUd4s+ztzqhCJ0+Zh3rRleOu4HHY5MO6F4echGKkTeaobiZCfG1B+Vo4TylNVeW3ei0Qx3Yy1Dbb+UxsxT7cIhZ3V8Jv3ovAFI6LnzYBeDnKNZdpXjJvmiXJMh0NOWsup/dhwUWVKRER0BeOdAOo7Z6uQmFyMhguyvzM3zcfqA9ux/cNVWDBMDrvUzosK4PjpeHfQY1j1YQUqPlyJB85mICQyHVXy0rbHDYHAsTO2K/nnzqAhPAKexjPWcfhbAwpxG3w6qeE3lxYiW5+E+dO95JArxJVcpm64mDIlIiK6kjEIoEtCHzAZkyf6wUP2X2pKJd1gTMLKjGjMmBiIwIkRSHplNaIrUvDuIds0Q/R+Ilgw4xulR1QQG24eAg9ZgTSf/xoI94OPMq6DBry7Nhf6RVMQdLmscD+43MrUHb0vUyIioiubm0GAGVXr4xB+u9JMwnVTCaAc6WLcvA1V2LsiHAG+YjrfACzKqurYRri1AcUrFtmm0fkiIDIRG4+4aEl8shjpjwbAV1mmmFd48kbUnZfj2phRtylRpm2kmKYYDa1yVBuZtk2O9/XLV4i/UbfRtt7+1yF9ex1yn5LNQm4PR2KRbB5wqZ0th0Hmh+9di5BTLSopTjpvAiHWq0L2K6xNpsR0Io8TZ48Uv3UYOdtVOTSjPEuU/V2+1ml87xL5salOVaay+YqSV/emiP5CLPpf2a906vy1LlM1zjmdKs37DVh6ry1duttDsDSjXKREzb69laM4OVyWlZjO1fbmhpbzp+UvlcERIjAwIn6srVfvdyewpQHKdWLj3z6H38Qg3Hbma2sF0nRWbCM+XnB5nf/4HmzaHoiEhyZ3rCCzTFX6tkzd0esyJSIiusK5FQSYS9Mw++efYGjiFlQcbUS1vanE4lw4V48bVqWg8KYYrHmnFJviRqE8fjaSitSn+mYUJ9yL8OIbEPdqBSoOvIK4YdV4+v4kFKuDirPFiJsUjg8Gx+GVA2K6V+Mw6uOnMe2ZYoeKg5K2aY++BTy2CaUHNiE5qAq5az+RY3vn3ecNMIauxPoPtyAnrAVvRS6CoVqOdJuqItWh683zCg3IXRyCxIYpSN1aga25C6B7Mwfvdgh4euITZK4qxqhfrEfph5sQPeAtLHIqh6rV4QhJP4G7U94WZVWKVx4fgsJHp6nK1BNTfr0d23eI7k/Ron8KkvJkv9L9eoqYQhobB6OoVCtddVaEHOhCtQHh92Xg9KyVokwrUJr2IL7+cwjG/G5vh8pgw6o0FI+KEWUltrfHvPB+h+3NPfpxMzADucheW+ewfXl4iUqgvebu4YFAUV1sFhN802zEnX5B8BtktFYgTxwv7LTCWLUlB3sCFmBygBzQhmXan2Xqll6WKRER0ZXOrSDAdKYOxrDHELdoBgJv0WOU0lTi7aMwvv5gh1vlNzy+EgYxXdDEIEQkrMHKRUZkb1dd8TPuxVtrgNQXDYieHojAgBmIFr+fGZ2N3JL2K/XG0reQjVRb84wAMd30aKxc/QxuX5OLYlUFump/uqiwp2LV0xEIEtMFhSchdroc2Ut3P2tAUniQWAclbelICCjHW6VVcqy79IjIslWOOnZrEHGTnMxdp8pRvB2IS0lX5dt83NnZZVe3mDDlSaUclHWVzV+M2SiusJeWcoX0QeS8s96aH4EBQZgRa8CaBHWZekA/djImh4guwE/0e+K2INmvdGP17Ve/B3jAS6lUi+6GQXKYC1XbM1Ae/oKqTOOwJi0axhc+QLlzjXF+avv29vR6rFa2t7JeXDkeFo1VeTNRHhsAvXIHKzkXhdWOd44w2Ad+OI3mC8AZMUo/+Hp4DPpc/DbD/A8g4hYXDUfMe/GuoQozfhEhKptOWKb9W6ZWKQhRB+D/uwiiat+uN2VKRER0FXArCPD0GQV90WswrC9G+REjmpUmOfLk79y8wdPzBvlL4QUfpQ5xthkttgFAqzi54m743Sz7rW4Q8wIKj5+Q/YKYDsF+GCp7rQZ5iepIIRr+Jvvtgm8TJ/J21lv8F8Gn7dKvYgh8bhWVmPM9r4JYryJ30jnnm3sicOco9V8OhV+w/NkrnvBSV9wG+yEwdAp0baXlhxlPxSF6ovpaqAc8fiD+U5dpHzO3itpYoJ9DmXpZNyRRgT1n67fzu2mI/KWQ29vJM6Iq3HN+c3Jw5FQ1tr8YjRuOGPDUBF+ErChvr3ze5Ic7rdufEQ2H9aLSqxfbhhFfnzfhzEmxpYhydWau2INcYzSiw9Rro8Yy7c8yBZKwRR2Af5wjclylF2VKRER0NXArCPAIScWHWx+AOS8Rc8f4Qn+jbL98qO36fg85tTHW+WJRvhyllr/I9jxAZ1fxqI8FYun7xVgZ1v46lIYi+/MW7Z3YHK5eg0dh8rw4GAqqUbNbrGjqXBja2t37QB8KfNN6GmeO2d4a43OLJ4xnT6OhTPwe7FxhbEbxhnQYF83A5MFy0HdO62V6vVMAfr0cbtfTMiUiIro6uPlgMOA3PQk526vR2NICU2M1Voc1YNmDmdjbq3v0Ecj5WHV1zt49FSTHS+E5qHaeRnRx8kHNy1tfPxNwCXyag0WRb8Hrl6U4osr/LU/L8VcRc3Oz7Q6Xitc98/FYqBGfNNibBV2P60WdsK6hDl/72d4ac72HBz45VodvjBFOd7eEU8V4a70eSQtnXD7tyjVUpu7pYZkSERFdJdwIAswwHtqLvUfar/p76EchYtYDop5b1+FWvsmkfrtJM84oTw4P9oLONsDajMgDDTC1qq/OuWgeI6ZDgwlm1TReDs10VMo+F3NsZ2xwfjBYLDNApO289UWAkkzbSL8OH28606yObJQrhEDgoE6W3ak+fibAqhCf1KnTdsJ6tVJNN0hpSvE1zOrJzp4R+SMqND1s3tx8rArliEZMbBD8VGXgcVEPrnbPY4AokaoGhzJtthaWqKTdaOvvW83Y+3s99L8vdmp3fgbGw0p6ZK8oU7/RYrOsKEfdMB9rhVF/820wHf4EdS7S1rDrLRTqY/FASFfbDsu0f8rUXT0rUyIioquFG0GAB745nInp9y9C+hZxohSV2LqKYuSsyQIC7sYop8rs139ORJzy7IA4qRZmPInE9XrETA9qvxKqn4wFT55GxtOJyN1eharqvSheH4fp+unI+bS9lqMPWYCYMxlI+m0uiqvFdKXFyE2YDv20HFSpKiyB9yRBX5KCZS8UolxMV74lHRn5jlU5pUlExJMzsCd1KVI2lYtlirS9sAhPrQ9C6qwOj2vio+fjrOtaLtYz97dJyKgOwoKQjtN1p0+fCbgpCDOmA4bUJJlvStpew0eiAqPmFRKBOL0BTz6VY8u37bmI+1UiTi9cgCm3yInc5HVrIIKQi+WqMti4QuRNiZzA2chAxIhK7bv5xdhbKgJHpVMFjzjfjGblirvovrZedf+mrb9ZFXgFTk9A0JanHcp00a9yEZjyYD+9Z98LkxelIujln2Pe7zaiuEKsa0Uhcn6eiBSxRgtC2sNEH/0UVBUWoOoGWYY+fvA8Liqz+hva3yJkVYXCl4sRGDdD5GEnWKb9WKbuc79MiYiIrh5uNQfyW7QepXFD8EFyCAJ8fRFw78+R3bwA699Y2uGNJ37LkjGjLhuL7g3BPEMdgjK3Ij1M3RjCCzMyPsQrIWdgeGIiJk6YjmVrzXhw93YkTVSdcQfPgGHfK5hsNODnE8R005bhtfMPovT9JIdKg0dIMna8vgB4bR5CJsxDWrmotCy7W45t57dkPSr+MApVqSFimSFI3DYECbu3IGlsx7P8g88uhVf+k5h7bziWFumwoGA94jq83vG75ofodaVY6bcHKbMnYnb0W2j5WRwWOLczGTQZK/dtQbQ525ZvTxhw4p712LE6osMdj27dsRRbdidYg6xwMa/Z8dn4ZFgc4jp7E6TXDMQVxMGcE47p06bbuvw6ORIoX62HXm/rAmKVpzvSES779aKS2/ZSnIA463KHbEsUZToRIckfYEhcKbY/E9Tz4MlNHmOTxDKfwdBP0/Dze0W+3ZuIt/Agth80YIaqPf/1XiIXRSAceIt8eNXDAx5bClEY7Af146wQwe1b1TOwNLyr4JFl2p9l6i63y5SIiOgqck1LS4tF/r5Iyod+QvDJ643YNK/HVZPLg/IBpv9dhDs/bBEBiRxGVzTlg3CdP/QagfV/3YT5vWqa1RUz9v5uBKZXp+LI1mhR1ae+dGnKlIiI6OrCIECNQcDVR2mu0kV7d6XJVp9fiT5biKU3zQPeNiIn3PmyPl20S1GmREREVxm33w5EdEUa5PqZDHvXL5XFwRHIaWlhANBfLkWZEhERXWX68E4AERERERFdCXgngIiIiIhIYxgEEBERERFpDIMAIiIiIiKNYRBARERERKQxDAKIiIiIiDRGu0FAazPqtueg8FPZTy7V5RuwscIo+4iIiIjoanBJgwDzyUMo3HIIDeflgO/KyULE3adHQPwH+FoOItc8zJ8g7WFfjIzKQdV3XU5ERERE1C8uYRBgRGHyDsybuwPL8k/KYb3VjPL1b8NQ5MZ8Tm7Eoknz8EnIdhg/24LoO+TwK5IRG6N00K0ol/19z2/helTXVCPJYwVmL85FgxxORERERFeuSxgE6DE/MxLbd8zEqjm3yGG91YKG7ceRWN0s+zvTjOKXnsaeqeux/g+Twe+5uslrFKJXv44F5UuxbD3DACIiIqIr3aV9JkA/EpNDAuA3SPb3t+PvInvNECQsmw8/OYjcNGgyYlKmoPjlQlTJQURERER0ZXIrCChfkQZd1A5UleQh/C7xW5eGgEe3dmgjbp1uxSE0FL2O8Ntt04Un70Cdw3TVSBfDlXH2Lr1CjlIxbsoW4/JQXL0Vi+zLjHwdxeoWPxV5ch7rsChf9Ke+L/tdz7e5rhrFmIzAkXKAKyf3Iv3RAPjqdGIeOvjeFY7ETXUwy9EK46Z5Ylw6io/kIu7ekdbpRs5OdEyb1HxITDPbNo3u9hAszShHx/sVzahaHyfyzLbMkfcuhWG/i7saZ8thkGnzvWsRcqo7PtFgT5tDA6FTGzFP/I06P8pXiGVFbRRlmi7K1Ff8ja8o067b/fuNniyK7yPUnZIDiIiIiOiK5P6dgGPVSCnyQkz2TJS+PQyjKj/F7GdKO1ZoDx+AoWQwYnJt02HDIUxzmO4OxBljYFS6jwMQIYe6dgppL5vxoLLMrQGYcvYUwh8paL8SPWwitu+YJrqfIClU9C+5Q/bbugixeLWW86fFvzfAw8PW31EDcn81HVnnF2D1h9VoPFqBV5YNRfmj05BWqg4DFO8i7SUjJr+4XqQtBxEtb4m0GRyvklcbEP6TFJwIXonSAxUoTXsQX/85BOGrHa+lV60Ox8TfncDdaaWoOFCKlRFfI/u+cBiq5QRWIm2LQ5DYMAWpWyuwNXcBdG/m4N1WObo3jmWKMtWLMn1blFWCKNNlokyLXQQp0s1+orxM+MY5K4iIiIjoiuJ+EDB4JFZmzMSMiQEICp+LNWmDYVxzFOXONcbmm7BUNd36PzlPNwAeXl7wsnYD5LDOeCF+xVxEKPOaPhOGP41EYMVJfHJcjh48DJNDxopuFG5TGvjffIvst3WjBtsmc98ZGLcD0cuSxDJHQX9LIGYsMmC7sQbxY50jh7uRnKFMFyTSFo2VLySItL2FvaqKe9X2DJTPeQGvPB2BoIBAkR9xWJ8Zg/I/Fquu1Feh+I/liHjxFSSFByEwIAgRCeux6hflyChSXc8/VY5ikba4lHRETw8U081A9IvzcefFPBM8WKQ7I1qUlVgHkbY1adGirETaOo0CFHtgPCt/EhEREdEVyf0gwMsDN8ifCi+fgeLfVjRfsPW3cZ7uZj2mhF6nPLvbCwPho67IDx4EP5j7sRLqA/10IHdVOgpLq9DQ3GxtBmQNWjo8t+DjOGywj0hbFcyqq+TmViMw2g962a/w8PIBjJ+goa1JjfgDMdmdfg5TwUust/FwgzJKJQJ3jlIHI0PhFyx/9oZYL8cyVZ6UON2xTImIiIjoqtL/DwaPnY3i9xdjhrqOe9nyQ/TrFUi9+RNkxkzESL0enrqRCE8uRENvm92khtieB7B396bIEY5S7lVNI7qQVDnishPYRXMqIiIiIroS9H8QcDkZ4Ebt1SsQ0as3ofSzFrSYjDjyYTy8NszDsg29fDXm01tgNBqdujWIuEmOl5K2Ok8juqwIh7sIl9zZM2gQgZLD3RkiIiIiuuK4HwQ0mx2+rtt8RmkzMgBeSqugK4T+1jsRiL343P5MgbOzddhbWgWjvUmPhxf8Jj6IB4KB4lNn5EC7M2hWv0nHWkF2vEruMUBU4U3iR9szEEqzIudARPQrk7Uqk6mmc/m4RCE+qVM/lXsCDWXyp6QbNET8+7VDsyRb2iLg5yP77ZqbncpUCXSGdFqmzQ11qFKCgBvlACIiIiK6IrkfBJw9gsSE91FcUY3yLW/jyeSz0D85AkE9/eJW6wVR92yWna2NzTdt/c0w96rZjR6jgkStubAaG0sPiYq80n3aXpm3C5iMBQF7kLOp3OGVn20GncGeRyZi7jO5KK5uQPPJKuzdlIXsfCD6jlFyIruPkJaQjsKKcpRvz0Xi0xmomrgAkwPkaCFwegKC1izDkxmFKK+uQnlpIdLnjoA+ttgaG9gEYsZvgpD92ydh2FKOqupy7N2SjvDb9Xhye/tUuCkIM6YDhtQk5G6vEtMVI/e3r+Gj0XK85BUSgTi9AU8+lSPWQUwn0hb3q0ScXrgAU5y/yXZWpDtBrKuyDlvE3yTnijKd0UmZNuDdtWL80w8giM2BiIiIiK5o7gcBtwYgOfQssqPfR8jc46gbdwe2rgjp+Vd3D22BXp9t6+6qRqEYlD5b9ovOcMg2WU8FLp6JVaOMeHraDky3dh9izzk5sk0glqbF4XRqItJKXLwCx2MykneuR1CDAT+fMBL6ERMxPXUvbksrRXq485o+iORfeOHdmLkImb0UhboF2PJGnFiCSkActvwlCUP2JiJkwkSEPJKCj0a+gOpX5js08wl8agsqEodgT3IIJk4IwaOpH2HUi9VYP089lR+i15Vipd8epMyeiNnRb6HlZ3FY4JysQZOxct8WRJuzxTpMxMQnDDhxz3rsWO2iadGt8aJM60SZhogyzRBlukqU6QwXZdqM8hWLsLRqPlYvnazcuyAiIiKiK9g1LS0tFvm7U8pHwEIOj0Vj3rTLq416r5hRt/ZJTIvdg9uXJCDp2ThMdmqf3x3lg1y+j96J0pYkBMlhVxrlY2Ehh9eLMnUMSJw1V+Qg6fcrkPv57Uh9pxBJExkCEBEREV3ptPVgsJUHRi1Zj5qPV2Py+VyU/00OJpfqSrPxTchqVNcUMwAgIiIiukpoMAiw8bojAkmvV4uKrRxALgU9XY31z0RgVI/bfRERERHR5cqt5kBERERERHT10OydACIiIiIirWIQQERERESkMQwCiIiIiIg0hkEAEREREZHGMAggIiIiItIYBgFERERERBrDIICIiIiISGMYBBARERERaQyDACIiIiIijWEQQERERESkMQwCiIiIiIg0hkEAEREREZHGMAggIiIiItIYBgFERERERBrDIICIiIiISGMYBBARERERaQyDACIiIiIijWEQQERERESkMQwCiIiIiIg0hkEAEREREZHGMAggIiIiItIYBgFERERERBrDIICIiIiISGMYBBARERERaQyDACIiIiIijWEQQERERESkMQwCiIiIiIg0hkEAEREREZHGMAggIiIiItIYBgFERERERBrDIICIiIiISGOu2b9/v0X+JiIiIiIiDbjGIsjfRERERESkAWwORERERESkMQwCiIiIiIg0hkEAEREREZHGMAggIiIiItIYBgFERERERBrDIICIiIiISGMYBBARERERaQyDACIiIiIijWEQQERERESkMQwCiIiIiIg0hkEAEREREZHGMAggIiIiItIYBgFERERERBrDIICIiIiISGN6EASYULtmIcb4+MDHx4BKOdSRCZVZCZh1tzKNDyaEJSC7wiTHXZyWQwbM8pmF7MNygIqpIhsJYROsy/S5exYSsipFSpy5SNv+JjmuExcqYQjzwaysWjnAta7S1ut8c06bWIZ1/Vx2Hefb+H6ySJMybgkKTsuBTjrkW0YJGlvlSKsmFDyhXk57t+Rdp/RdqEfBcwsxaYwyfgwmPZqKgmMtcmS7lmMFSH10ki0/xkzCwucKUO9iE+m2TE8XYIkqPY5d5+tMRERERO4GAaZaZIuK2/2veWDOY8FyoDMTSpImYdYbJoT9bht27tqGlOlGZIcvhKG6Y2WwR0RlPPv36UBqGmJGy2GSaUcyJoXnwhSWgm27dmLb76bCmDMLC1fXon2pLahdvRCzcoyYak9bmAm5c6YieUdnQUoLKtcsRzpSkBbrL4e50EXa3Mu3nqQtDBl7j+DIkfZuZ3ooMFoHnZwCrY0oenYWJiTVY/ySMDmwo5bSVJFv2TBOl/n2fBR0JSId8UWi6u/kqQ0Oy1S6jJnecqRCrOfcSVhePQIxhp1iHTIR8+ODiI2MR5G6Mn66CPGRsTj44xhkimXuNMRgRPVyTIrKFnNo516Z2sTlOabryOsxYqg3PP/LNp6IiIiIXLC44eBLesv4x9dZapotFmPBYoten2k5KMe1+TLfslg/1ZJVK/utmi3blukt+sRd4ldvmS0HV0616GdmWWrkkHZGS/7jesvUlx3HNBfFizQmWXbZF9q8y5Kk11uSSsxygELM9yUx38fzxVw6MpenWabqw5zWx1lXaXMz39xNW2Wm+PvFlvwvZb/VScuGBY7rryzHP3K5ZVuj6HH5N4pmy65EUS5O627eu9xpelv+6l/qkGpHYjn++njLtnOy36rGkhUq0pbTnraaHLFOc9dZjsp+K+t242/JrJT97pap9e/0qr9TmC37nve36Jdtu4jtjYiIiOjq59adAM+Qbdj5ajT8PeUAV3T+iM7PwJzhst/KE3pf8d85U4cruO5qqchEcoYOKStj0PF6vA7+j21GxoMjZL+Np3WhTTD909aPf5pEXxjG39Z2vVzQwXeomO69RjTKIW0uVCLzWQN0rq7uq3SdNjfzzd20jY3DmTNrETlE9isOFyF3dyiiH1At/X9jsG1TCsJ+LPtd8oBOuVJ+o2f7HQRB56H06aC7ztbvrpYfhSIrPwbBP5QDrPTQDwVqL6jux1yoBSb6w2ETGeIr8q4JtY32+w9ulumQSKw9cwZxY2W/4qtdKFgNxD08VWx5RERERNQZt4KA4WPHdV+p+uFwBN/jD291rVJUYY9WAt5DvXtXKeu2Mu6J4fcEw3+Iw0LRWH9QLHQ4vB0qpe5qQeXLyTDoUpD2ZNfNgLoLFNzKt15rQdnWbNTOj0KYqGzbeQeMg+8A2dMpHcaHJ2Hca5nI3t1kDdBavqpF3pt58H5sDoLVLX0E7/MHkfuEbJ/vMwFLnNrn64b4i7If7riuLUdxtAII/ZHTzLrV+zJt3JGHvNExCLvH8W+JiIiIyFG/vh2opTQX6bvHIWZ2sMMVZ/e4qIxbH47t5qHPC2XIXVGCcb8IQ7CLhbZUpGPCmGSUdPIoQMer+5UwiMqv44OwvUxbN7pLmwNTGYpWNyFqWnCvAg1dQBzWbQpGZdQY3CLW75bb70c2kpCfGtpxfptLYHxwA2qOHMA2QyiMz81CgvODwU4a38mGAdFYPE25gu+sEQWLx2DW2nrZ341uytSmFkV/LoF/pAgg5BAiIiIicq3/goAvChD/q2z4dtOkpjMtpelY3EVTG5daReUyKRbZP+7mKn5nRGUz/Qk3mgH1Jm19zLS/CLnecYgM7d29BuWNRovnlWG4YRsOHDmCA7uyEPZlOub8Rv1gsCeCf7kZWW+vRdLM4fD29MW4+cshshhFuw+qpnNkqjAg9je1iP5jEkJ7dTdGxd0yPVyGgsNOTaOIiIiIyKX+CQJEABAbFovGx7ZhQ28q40LtoWw0/XQx5rgdQIjKYvwsxP51MbbldV45101MwoGaNLisO9dVIrspDItnd53mnqfNPV2mzUEjit7Mg//Srq6Md6UR+S+lo+X3aUibPw6+np7wHR2JpJXxGPGOAfltrzrVwTsgGMGj1AnSwWOQ+M/s+ikPJbhYGL4Ovn/ahrRpna2ILyLX1WDbEoenA1xwr0zFUl02jSIiIiIi1/o+CPiiBMlLRQDw0w3ISrjINvHvxcr368suLF2OcNaIkmdjRWUxDBty4jDuohZahNg7Vcv0mQWXS3U7bf3A+kCwPyLv7e1V7yY07RZV8SF62S/5Dcc41KL2RNdNfTrTcjgbi6PXwTN1AzIfdtUMqCd6UKbWB4J73zSKiIiISGv6Ngi4UAnD0oUoGb4WWc+HoutqYBNKnluCh+Ylo+gLOUhl3JNO739Xurw4OVatBZUZsVi4ewTW5qQh1NVbcf7LE96icn/wc/XV6xY0nmgEfurbns6AmI7LPLIBzkt1P21ucDdtbeRV7/uiEdbrOxE66MTfHvz8qJibSl0tSkRqRvjKh3lbK5E97yEYKhzTZjon/nN6s5C1+VdUNloeX4d1T/q7fAZEN1AELRW1cHgS4HSjCDu84W9fppUbZapifSD4IppGEREREWmNW0GA6VgZyvbbuoPWz7uKipvsLztmf4q1HrlzZyH9xjSs/X0wPE0mmNo6F01HTpchL6sIZaW5yNvf4SWdwEBPeHo6dx5yZLv6tXMw6wVPpOWkIPi/1cs0ocX+9VvPYEQ9Mw65cYtheL8StYcrUZQVi9gXjIh+OFRUQaUBOhfL9ESHpbqZNrfyzd202bUcRNnGJkT9LMxlkNVyurZtmWW1Sr6acLRS9lfb3gQE+GPOskhgdQJiRRlUHq5F5e48JCemonZsDEIDrBOJ/FDe+mNGelwsslVpS17rjZgHVFfdTSVIDotF7YOZyFg0HGZVGajL3n+2qKh/noz4Z/NQIpZZK5aZ+svlKFKWqXrVp1tl2qZRBEUlF9E0ioiIiEiD5PcCuqR89Eqv76Rr+5DUQUumq/HWzsVHsiwnLfm/9Lfo/edYsqrUH8rqgouPX3WVNscPSTVbDr4cbwkLso0bPzPeklXm6jNhzmzrtbigm2l7mDbHD3C5nzbbR7OcP8zVzvZRMqdl2TuHj4OZLUeLMi3xM8fbxvkHW6JS8y1Hz8vRbVykrdzpU1zyw10Oy7J3zh8kq8+3LH8k2OKvjLMv02l27pepUJtlmdrhI3VERERE1JVrlH9kPEBERERERBrQf68IJSIiIiKiyxKDACIiIiIijWEQQERERESkMQwCiIiIiIg0hkEAEREREZHGMAggIiIiItIYBgFERERERBrDIICIiIiISGMYBBARERERaQyDACIiIiIijWEQQERERESkMQwCiIiIiIg0hkEAEREREZHGMAggIiIiItIYBgFERERERBrDIICIiIiISFOA/x+TP2XPsrPSnwAAAABJRU5ErkJggg==;imageBorder=default;" vertex="1" parent="1">
          <mxGeometry x="2022.05" y="160" width="784.88" height="445" as="geometry" />
        </mxCell>
      </root>
    </mxGraphModel>
  </diagram>
</mxfile>
